<svg xmlns="http://www.w3.org/2000/svg" viewBox="0 0 240 240">
  <defs>
    <style>
      .\31 1141269-bb6f-49b1-bb32-cc7550bc9b00{fill:#5aa8ed;fill-rule:evenodd;}
    </style>
  </defs>
  <g id="f9710a09-aeb8-4811-a7cf-ea02f834b609" data-name="105">
    <path d="M120 0a120 120 0 1 0 120 120A120 120 0 0 0 120 0zm0 4.32A115.69 115.69 0 1 0 235.69 120 115.68 115.68 0 0 0 120 4.32z" class="11141269-bb6f-49b1-bb32-cc7550bc9b00"/>
    <path d="M160.87 124.9q-2.3 2.3-4.71 4.44v27.73l-35.72 35.72-5.79-5.79 19.93-31.66v-11.06a108.67 108.67 0 0 1-31.87 10.87c-.9 17-13.26 20.26-24.38 23.15-7.52 2-11.76 2.67-15.21 7.72-4.1-10.44-5.55-22.12.55-33.41a29 29 0 0 1 21.14-15.11 108.67 108.67 0 0 1 10.91-32.09H84.66L53 125.35l-5.79-5.79 35.73-35.72h27.73q2.14-2.41 4.44-4.71c21.25-21.25 47.82-31.49 77.69-31.92-.43 29.87-10.67 56.44-31.92 77.69zm-42.28 42.52a2.16 2.16 0 0 1-3.05 3.05l-1.54-1.53-1.52 1.53a2.16 2.16 0 0 1-3.05-3.05l1.53-1.53-1.53-1.53a2.16 2.16 0 1 1 3.05-3.05l1.52 1.53 1.53-1.53a2.16 2.16 0 0 1 3.05 3.05l-1.53 1.53 1.53 1.53zM175.77 148a2.16 2.16 0 0 1-3.05 3.05l-1.53-1.53-1.53 1.53a2.16 2.16 0 0 1-3.05-3.05l1.53-1.52-1.53-1.48a2.16 2.16 0 0 1 3.05-3.05l1.53 1.53 1.53-1.53a2.16 2.16 0 1 1 3.05 3.05l-1.53 1.53 1.53 1.52zm14-28a2.16 2.16 0 1 1-3.05 3.05l-1.53-1.53-1.5 1.48a2.16 2.16 0 0 1-3.05-3.05l1.53-1.53-1.53-1.53a2.16 2.16 0 1 1 3.05-3.05l1.53 1.53 1.53-1.53a2.16 2.16 0 1 1 3.05 3.05l-1.53 1.53 1.53 1.53zM73.28 131.83a2.16 2.16 0 0 1-3.05 3.05l-1.53-1.53-1.53 1.53a2.16 2.16 0 0 1-3.05-3.05l1.53-1.53-1.53-1.53a2.16 2.16 0 0 1 3.05-3.05l1.53 1.53 1.53-1.53a2.16 2.16 0 1 1 3.05 3.05l-1.53 1.53 1.53 1.53zm30.21-60.41a2.16 2.16 0 0 1-3.05 3.05l-1.52-1.53-1.53 1.53a2.16 2.16 0 0 1-3.05-3.05l1.53-1.53-1.53-1.53a2.16 2.16 0 1 1 3.05-3.05l1.53 1.53 1.52-1.53a2.16 2.16 0 1 1 3.05 3.05L102 69.89l1.52 1.53zM98.44 154L86.1 141.66a24.69 24.69 0 0 0-18.64 13c-3.91 7.25-4.46 16-2.35 23.85 3.34-2.07 7.63-3.19 12.14-4.36 9.83-2.56 20.75-5.41 21.19-20.15zm53.41-21a109.17 109.17 0 0 1-12.95 8.91v14.67l-18.77 29.81.31.31 31.4-31.41V133zM107 88.16H84.72l-31.41 31.4.31.31 29.82-18.77h14.67A108.72 108.72 0 0 1 107 88.16zm-15.8 40.32l20.31 20.31A104.77 104.77 0 0 0 186 70.66L169.34 54a104.77 104.77 0 0 0-78.12 74.44zM106.63 150L90 133.37q-.56 2.54-1 5.1L101.53 151q2.56-.44 5.1-1zm67.81-97L187 65.56a105 105 0 0 0 1.43-14 105.21 105.21 0 0 0-14 1.43zm-32.77 47.3a2.16 2.16 0 0 1 4.3-.37 6.48 6.48 0 0 1-5.89 7 2.16 2.16 0 1 1-.37-4.3 2.15 2.15 0 0 0 2-2.34zm7.54-11.38a15.1 15.1 0 1 1-21.27 1.87 15.09 15.09 0 0 1 21.27-1.87zm-2.77 3.3a10.79 10.79 0 1 0 1.33 15.21 10.8 10.8 0 0 0-1.33-15.21zm-29.18 32.87a2.16 2.16 0 1 1 4.3.37 6.48 6.48 0 0 1-7 5.88 2.16 2.16 0 1 1 .37-4.3 2.16 2.16 0 0 0 2.34-2zm9.41-9.89a15.1 15.1 0 1 1-21.27-1.86 15.09 15.09 0 0 1 21.27 1.86zm-3.3 2.76a10.79 10.79 0 1 0-1.33 15.2 10.8 10.8 0 0 0 1.33-15.2zm42.72-42.08a2.16 2.16 0 1 1 4.3-.37 6.48 6.48 0 0 1-5.89 7 2.16 2.16 0 1 1-.37-4.3 2.16 2.16 0 0 0 2-2.34zm7.54-11.38a15.1 15.1 0 1 1-21.27 1.87 15.09 15.09 0 0 1 21.27-1.87zm-2.77 3.3a10.79 10.79 0 1 0 1.33 15.2 10.8 10.8 0 0 0-1.33-15.21z" class="11141269-bb6f-49b1-bb32-cc7550bc9b00"/>
  </g>
</svg>
