<svg xmlns="http://www.w3.org/2000/svg" id="015a56bd-ab76-4cf5-8dc9-d02bb14d028b" data-name="Layer 1" viewBox="0 0 110 110">
  <defs>
    <style>
      .b5c2e6a1-575b-4d05-9a26-008fd8ddec32{fill:none;}.\38 f6cf4cb-a6ba-4c70-85db-9a7f950bd426{fill:#5aa8ed;}
    </style>
  </defs>
  <path d="M103.3 88.74a8 8 0 0 1-5.54 7.47h-.08l-.76.19h-.11l-26.44 3.89h31.77a5.62 5.62 0 0 0 5.61-5.61V25.11a5.62 5.62 0 0 0-4.46-5.49v69.12zM13 96.41l-.76-.18h-.08a7.84 7.84 0 0 1-5.41-7.46v-68.6a1.23 1.23 0 0 1-.06-.37v-.18a5.62 5.62 0 0 0-4.47 5.5v69.59a5.62 5.62 0 0 0 5.61 5.61h31.7l-26.41-3.89z" class="b5c2e6a1-575b-4d05-9a26-008fd8ddec32"/>
  <path d="M102.75 17.29a7.89 7.89 0 0 0-4.59-4.81 7.18 7.18 0 0 0-6.88-5.06h-.1L90 7.53a1 1 0 0 0-.21 0l-17.4 5v-.2a1.12 1.12 0 0 0-2.24 0v.85l-13.81 4h-2.77L20.11 7.57h-.21l-1.2-.15h-.1a7.17 7.17 0 0 0-6.88 5.06 7.89 7.89 0 0 0-4.61 4.82A7.87 7.87 0 0 0 0 25.11v69.6a7.86 7.86 0 0 0 7.86 7.86h94.23a7.86 7.86 0 0 0 7.91-7.86v-69.6a7.86 7.86 0 0 0-7.25-7.82zm-93.19 0a5.63 5.63 0 0 1 1.92-2.15v70.21a7.07 7.07 0 0 0 4.95 6.73h.08L39.21 98 13.5 94.22l-.66-.16A5.59 5.59 0 0 1 9 88.74V19.63a1.08 1.08 0 0 0 0-.13 1.22 1.22 0 0 0 0-.18 5.62 5.62 0 0 1 .56-2.06zm-1.7 83.06a5.62 5.62 0 0 1-5.61-5.61V25.11a5.62 5.62 0 0 1 4.47-5.49v.17a1.23 1.23 0 0 0 .06.37v68.58a7.83 7.83 0 0 0 5.41 7.47h.08l.76.18h.11l26.44 3.89zm46.4-80.42v79.66l-36.53-9.5-.64-.16a4.83 4.83 0 0 1-3.36-4.58v-71.1a1 1 0 0 0 0-.19 4.64 4.64 0 0 1 .2-1 4.74 4.74 0 0 1 .53-1.15 5 5 0 0 1 4.14-2.28l1 .09 19.7 5.7 6.21 1.8 1.67.48 6.08 1.76 1 .29v.11zm44.32 65.42V15.24a5.62 5.62 0 0 1 1.73 2 5.57 5.57 0 0 1 .6 2.25v.29a1.11 1.11 0 0 0 .13.52v68.44a5.74 5.74 0 0 1-4 5.32l-.66.16L70.71 98l22.05-5.74.68-.17h.08a7.23 7.23 0 0 0 5.06-6.74zm-24-65.08a9 9 0 1 1-9 9 9 9 0 0 1 9.05-9zm-18.88-.38v-.13l.89-.26 6.1-1.76 1.66-.48 5.74-1.66V19a10.71 10.71 0 0 0-1.06.54 11.21 11.21 0 0 0 1.06 20v6.36a11.22 11.22 0 0 0 0 20.56V73a1.12 1.12 0 1 0 2.24 0v-5.82a11.22 11.22 0 1 0 0-22v-4.94a11.11 11.11 0 0 0 2.25.23 11.22 11.22 0 0 0 0-22.45 11.11 11.11 0 0 0-2.25.23v-3.3l17.98-5.19 1-.09a5 5 0 0 1 4.14 2.28 4.63 4.63 0 0 1 .74 2.32v.24a1.12 1.12 0 0 0 .11.49v70.34a5 5 0 0 1-3.47 4.59l-37.07 9.64V19.89zM74.63 47.2a9 9 0 1 1-9 9 9 9 0 0 1 9-9zm33.13 47.5a5.62 5.62 0 0 1-5.61 5.61H70.38l26.44-3.89h.11l.76-.18h.08a8 8 0 0 0 5.54-7.46V19.63a5.62 5.62 0 0 1 4.46 5.49z" class="8f6cf4cb-a6ba-4c70-85db-9a7f950bd426"/>
  <path d="M77.6 35.45a1.39 1.39 0 0 0-1.6-1.16 1.4 1.4 0 0 0 .23 2.78h.23a1.4 1.4 0 0 0 1.14-1.62zm-4.3-.37a6 6 0 0 1-4.3-3.71.75.75 0 1 0-1.4.53 7.46 7.46 0 0 0 5.4 4.64h.17a.75.75 0 0 0 .16-1.48zm4.3 27.52a1.4 1.4 0 1 0-1.38 1.62h.23a1.4 1.4 0 0 0 1.15-1.62zm-9.97-3.54A7.46 7.46 0 0 0 73 63.7h.17a.75.75 0 0 0 .16-1.48A6 6 0 0 1 69 58.53a.75.75 0 0 0-1.4.53zM20.89 23.23l27.35 7.92a.72.72 0 0 0 .21 0 .75.75 0 0 0 .21-1.47L21.3 21.79a.75.75 0 0 0-.42 1.44zM48.66 36.9L21.3 29a.75.75 0 0 0-.42 1.44l27.35 7.92a.77.77 0 0 0 .21 0 .75.75 0 0 0 .21-1.47zm0 6.74L21.3 35.72a.75.75 0 0 0-.42 1.44l27.35 7.92a.73.73 0 0 0 .21 0 .75.75 0 0 0 .21-1.47zm0 6.36L21.3 42a.75.75 0 0 0-.42 1.44l27.36 7.96a.77.77 0 0 0 .21 0 .75.75 0 0 0 .21-1.4zm0 6.71L21.3 48.79a.75.75 0 0 0-.42 1.44l27.35 7.92a.72.72 0 0 0 .21 0 .75.75 0 0 0 .21-1.47zm0 6.84L21.3 55.63a.75.75 0 0 0-.42 1.44L48.24 65h.21a.75.75 0 0 0 .21-1.47zm0 6.74L21.3 62.37a.75.75 0 0 0-.42 1.44l27.35 7.92a.73.73 0 0 0 .21 0 .75.75 0 0 0 .21-1.47zm0 6.33L21.3 68.7a.75.75 0 0 0-.42 1.44l27.35 7.92a.69.69 0 0 0 .21 0 .75.75 0 0 0 .21-1.47zm0 6.74L21.3 75.45a.75.75 0 0 0-.42 1.44l27.36 7.91h.21a.75.75 0 0 0 .21-1.47z" class="8f6cf4cb-a6ba-4c70-85db-9a7f950bd426"/>
</svg>
