<?xml version="1.0" encoding="UTF-8"?>
<svg width="100px" height="100px" viewBox="0 0 100 100" version="1.1" xmlns="http://www.w3.org/2000/svg" xmlns:xlink="http://www.w3.org/1999/xlink">
    <!-- Generator: Sketch 47.1 (45422) - http://www.bohemiancoding.com/sketch -->
    <title>Play</title>
    <desc>Created with Sketch.</desc>
    <defs></defs>
    <g id="DS-Design" stroke="none" stroke-width="1" fill="none" fill-rule="evenodd">
        <g id="DS-careers-1920" transform="translate(-912.000000, -1166.000000)" fill-rule="nonzero" fill="#5AA8ED">
            <g id="Group-2" transform="translate(0.000000, 1080.000000)">
                <g id="Create-Learn-Play" transform="translate(545.000000, 76.000000)">
                    <g id="303" transform="translate(367.000000, 0.000000)">
                        <g id="Play" transform="translate(0.000000, 10.000000)">
                            <path d="M100,33.3348484 C100,43.9980001 94.8363636,54.3338939 85.3363636,63.1698559 C80.978634,67.165878 76.0825728,70.5317671 70.7909091,73.1694014 C70.529022,73.2894307 70.2423602,73.3455142 69.9545455,73.3330303 C69.2964683,73.3399093 68.7013019,72.9431498 68.4545455,72.3330758 C68.0964417,71.5045038 68.4685845,70.5418304 69.2909091,70.1695377 C69.4545455,70.0059088 96.6272727,57.0064997 96.6272727,33.3348484 C96.6272727,5.49975001 73.6272727,3.33621199 66.6272727,3.33621199 C59.6272727,3.33621199 36.6272727,5.49975001 36.6272727,33.3348484 C36.6272727,56.9701377 63.7909091,69.9968183 63.9636364,70.1695377 C64.7322862,70.5726286 65.0556592,71.5034101 64.7024868,72.29621 C64.3493145,73.0890099 63.4410546,73.47118 62.6272727,73.1694014 C57.3523444,70.5034492 52.4599963,67.1401127 48.0818182,63.1698559 C38.5,54.3338939 33.3363636,43.9980001 33.3363636,33.3348484 C33.3363636,8.835962 50.5,0 66.6636364,0 C82.8272727,0 100,8.835962 100,33.3348484 Z M74.8363636,84.3325303 C75.0426352,84.8274888 74.9808727,85.3936193 74.6727273,85.8324622 C74.3363636,86.1688105 73.8363636,86.6687878 73.3363636,86.6687878 L68.3363636,86.6687878 C68.4653206,87.7256417 68.8053881,88.7457977 69.3363636,89.6686514 C70.9072019,92.282298 71.716417,95.2828698 71.6727273,98.331894 C71.6727273,99.2531635 70.9258568,100 70.0045455,100 C69.0832341,100 68.3363636,99.2531635 68.3363636,98.331894 C68.3668041,95.826263 67.7399117,93.3564189 66.5181818,91.1685832 C65.570161,89.8399741 65.047166,88.2552128 65.0181818,86.6233353 L60,86.6233353 C59.4871214,86.577408 59.0101877,86.3405742 58.6636364,85.9597291 C58.3554909,85.5208863 58.2937284,84.9547558 58.5,84.4597973 L61.8181818,76.1601745 C62.0649383,75.5501006 62.6601047,75.153341 63.3181818,75.16022 L70,75.16022 C70.6711944,75.1061668 71.2917458,75.5198489 71.5,76.1601745 L74.8363636,84.3325303 Z M70.8363636,83.3325758 L68.8363636,78.3328031 L64.5454545,78.3328031 L62.5454545,83.3325758 L70.8363636,83.3325758 Z M46.2909091,65.151584 C45.8947032,64.9224002 45.4225063,64.8636245 44.9822026,64.9886856 C44.5418988,65.1137468 44.1711079,65.4119594 43.9545455,65.8151902 C39,74.9965911 28,78.3328031 27.8363636,78.3328031 C27.019585,78.6347727 26.5316078,79.4734454 26.6727273,80.3327121 C26.8961627,81.0551848 27.5810491,81.5342093 28.3363636,81.4962956 L28.8363636,81.4962956 C29.3363636,81.3326667 41.1727273,77.6601064 47.0181818,67.333303 C47.3950563,66.5488329 47.1111411,65.6064349 46.3636364,65.1606745 L46.2909091,65.151584 Z M21.6636364,81.6599245 C22.264357,81.622216 22.81577,81.3147755 23.1636364,80.8235989 C23.3928306,80.427411 23.451609,79.9552356 23.3265422,79.5149519 C23.2014753,79.0746681 22.9032491,78.7038941 22.5,78.4873415 C22.3363636,78.4873415 3.33636364,67.1514931 3.33636364,53.3248489 C3.33636364,40.1618108 11.8181818,31.6621972 25,31.6621972 C26.0630217,31.6297597 27.1269442,31.6814336 28.1818182,31.8167356 C28.6270941,31.887354 29.0812663,31.7634935 29.4290334,31.4765987 C29.7768005,31.1897039 29.9847174,30.7673657 30,30.3168038 C30.0455404,29.8761285 29.9124352,29.4355989 29.6304907,29.0938636 C29.3485463,28.7521283 28.941319,28.5377391 28.5,28.4987046 C27.3387007,28.3611054 26.1690724,28.3064239 25,28.3350757 C9.83636364,28.3350757 0,38.1800827 0,53.3339394 C0,69.1695832 20,80.9963183 20.8363636,81.5144766 C21.0926419,81.6407506 21.3796538,81.6912119 21.6636364,81.6599245 Z M31.5,89.495932 C31.6961754,89.9922975 31.6349538,90.5534703 31.3363636,90.9958638 C31.0378417,91.4357931 30.5309276,91.6875145 30,91.65947 L28.3363636,91.65947 L28.3363636,98.3228035 C28.3363636,99.244073 27.5894932,99.9909095 26.6681818,99.9909095 C25.7468704,99.9909095 25,99.244073 25,98.3228035 L25,91.65947 L20,91.65947 C19.4871214,91.6135428 19.0101877,91.3767089 18.6636364,90.9958638 C18.3554909,90.557021 18.2937284,89.9908905 18.5,89.495932 L20.1636364,84.4961593 C20.3546515,83.8215382 20.9626782,83.3498783 21.6636364,83.3325758 L28.3272727,83.3325758 C29.0282309,83.3498783 29.6362576,83.8215382 29.8272727,84.4961593 L31.5,89.495932 Z M27.6636364,88.3323485 L27.1636364,86.6687878 L22.8363636,86.6687878 L22.3363636,88.3323485 L27.6636364,88.3323485 Z M42.5,40.1527203 C41.6461232,40.4951203 41.2075205,41.4440539 41.5,42.3162584 C44.1636364,50.1613563 50,55.8338257 53.8363636,59.6609245 C54.1402429,59.981705 54.562672,60.1634101 55.0045455,60.1634101 C55.4464189,60.1634101 55.868848,59.981705 56.1727273,59.6609245 C56.4935224,59.357059 56.6752357,58.9346491 56.6752357,58.4927958 C56.6752357,58.0509424 56.4935224,57.6285325 56.1727273,57.3246671 C52.5363636,53.6884687 47.1727273,48.3250761 44.6727273,41.3253943 C44.6010108,40.8452412 44.3065504,40.4272375 43.8785645,40.1980336 C43.4505785,39.9688298 42.9394331,39.9553991 42.5,40.1618108 L42.5,40.1527203 Z M68.3363636,8.33598473 C68.3631568,7.88710239 68.1965034,7.44822304 67.8785164,7.13025043 C67.5605293,6.81227782 67.12163,6.64563201 66.6727273,6.67242398 C42.6636364,6.66333348 40,25.335212 40,33.3348484 C40,34.2561179 40.7468704,35.0029544 41.6681818,35.0029544 C42.5894932,35.0029544 43.3363636,34.2561179 43.3363636,33.3348484 C43.3363636,24.6625153 46.3636364,9.99954548 66.6636364,9.99954548 C67.1140661,10.0290573 67.5554628,9.8636157 67.8755162,9.54531619 C68.1955697,9.22701668 68.3634217,8.78654812 68.3363636,8.33598473 L68.3363636,8.33598473 Z M87.6727273,46.5160675 C87.8363636,46.6796964 88.0090909,46.6796964 88.3363636,46.6796964 C88.9944408,46.6865754 89.5896072,46.2898158 89.8363636,45.6797418 C91.5,42.3435298 93.3363636,37.0164993 93.3363636,33.3439389 C93.3363636,29.844098 93.3363636,26.3442571 91.5181818,22.6807872 C91.1039682,21.8975827 90.1332402,21.5984412 89.35,22.0126359 C88.5667599,22.4268306 88.2676047,23.3975145 88.6818182,24.1807191 C90,26.9987728 90,30.1622654 90,33.3348484 C90,36.3347121 88.3363636,41.1708559 86.8363636,44.3343484 C86.5575722,45.1605902 86.9046944,46.068407 87.6636364,46.4978865 L87.6727273,46.5160675 Z M8.33636364,45.9979092 C7.29369934,48.3063637 6.72784971,50.8015544 6.67272727,53.3339394 C6.64593408,53.7828217 6.81258747,54.221701 7.13057454,54.5396737 C7.4485616,54.8576463 7.8874609,55.0242921 8.33636364,54.9975001 C8.78526638,55.0242921 9.22416567,54.8576463 9.54215274,54.5396737 C9.8601398,54.221701 10.0267932,53.7828217 10,53.3339394 C10.0078379,51.2610963 10.4637038,49.2144445 11.3363636,47.3342121 C11.6381559,46.5204672 11.2559685,45.6122486 10.4631326,45.2590923 C9.67029663,44.905936 8.73947276,45.2292943 8.33636364,45.9979092 Z M12.5,40.4981592 C11.8843246,41.1333988 11.8152517,42.1195612 12.3363636,42.8344166 C12.6517823,43.1351437 13.0647324,43.3125752 13.5,43.3343939 C13.9352676,43.3125752 14.3482177,43.1351437 14.6636364,42.8344166 C17.4978172,40.1969601 21.1404978,38.5951505 25,38.2891687 C25.9213114,38.2891687 26.6681818,37.5423322 26.6681818,36.6210627 C26.6681818,35.6997932 25.9213114,34.9529567 25,34.9529567 C21.8181818,34.9984092 16.5,36.6619699 12.5,40.4981592 L12.5,40.4981592 Z" id="Shape"></path>
                        </g>
                    </g>
                </g>
            </g>
        </g>
    </g>
</svg>