<?xml version="1.0" encoding="UTF-8"?>
<svg width="20px" height="18px" viewBox="0 0 20 18" version="1.1" xmlns="http://www.w3.org/2000/svg" xmlns:xlink="http://www.w3.org/1999/xlink">
    <!-- Generator: Sketch 46.2 (44496) - http://www.bohemiancoding.com/sketch -->
    <title>case-svg</title>
    <desc>Created with Sketch.</desc>
    <defs></defs>
    <g id="Symbols" stroke="none" stroke-width="1" fill="none" fill-rule="evenodd">
        <g id="2-Testimonial-Norm" transform="translate(-26.000000, -536.000000)" fill="#FFFFFF">
            <g id="Case-Study" transform="translate(16.000000, 530.000000)">
                <path d="M11.3334721,15.0451357 L17.9998325,15.0451357 L17.9998325,16.0231352 C17.9998325,16.428135 18.2989233,16.7561349 18.6661959,16.7561349 L21.3334673,16.7561349 C21.701649,16.7561349 21.9998306,16.428135 21.9998306,16.0231352 L21.9998306,15.0451357 L28.6661911,15.0451357 L28.6661911,21.6461325 L11.3334721,21.6461325 L11.3334721,15.0451357 Z M19.3334683,15.2901356 L20.667104,15.2901356 L20.667104,13.3341365 L19.3334683,13.3341365 L19.3334683,15.2901356 Z M11.3334721,9.91213813 L28.6661911,9.91213813 L28.6661911,13.5781364 L21.9998306,13.5781364 L21.9998306,12.6011368 C21.9998306,12.195137 21.701649,11.8671372 21.3334673,11.8671372 L18.6661959,11.8671372 C18.6434686,11.8661372 18.6207413,11.8661372 18.597105,11.8671372 C18.2561961,11.9061372 17.9980144,12.224137 17.9998325,12.6011368 L17.9998325,13.5781364 L11.3334721,13.5781364 L11.3334721,9.91213813 Z M16.888924,8.44613883 L23.1116483,8.44613883 L23.1116483,7.4681393 L16.888924,7.4681393 L16.888924,8.44613883 Z M16.1525607,6.00114 C15.8271063,6.03813998 15.5543792,6.37413982 15.5561973,6.73413965 L15.5561973,8.44513883 L10.6671088,8.44513883 C10.2989271,8.44513883 9.99983636,8.77413868 9.99983636,9.17913848 L9.99983636,22.3791322 C9.99983636,22.783132 10.2989271,23.1111318 10.6671088,23.1121318 L29.3334635,23.1121318 C29.7016451,23.1111318 29.9998268,22.783132 29.9998268,22.3791322 L29.9998268,9.17913848 C30.001645,8.80213866 29.7434633,8.48413881 29.4025544,8.44513883 C29.3798271,8.44313883 29.3561908,8.44313883 29.3334635,8.44513883 L24.4443749,8.44513883 L24.4443749,6.73413965 C24.4443749,6.35113983 24.1271023,6.00114 23.7780116,6.00114 L16.2225607,6.00114 C16.1989243,5.99914 16.1761971,5.99914 16.1525607,6.00114 L16.1525607,6.00114 Z" id="case-svg"></path>
            </g>
        </g>
    </g>
</svg>