<svg id="dzensoft-logo-header" xmlns="http://www.w3.org/2000/svg" width="20" height="20" viewBox="0 0 20 20"><defs><style>.cls-1{fill:#3d5a98;}</style></defs><title>ds-elements</title><path class="cls-1" d="M12.37,1.86A6.8,6.8,0,0,0,8.11,0a4.19,4.19,0,0,0-.57,0C5.46.32,4.16,1.44,3.33,3.66a26.38,26.38,0,0,0-1.51,9.06v.07c0,.17,0,.34,0,.49A6,6,0,0,0,3.86,18.4a6,6,0,0,0,.89.61h0a8.26,8.26,0,0,0,3.78,1H9c1.63,0,5.66-.24,7.77-2.44a5.14,5.14,0,0,0,1.38-4A18,18,0,0,0,12.37,1.86ZM10.79,8.38l-.12,1.53H9.11v5.31h-2V9.91H6.07V8.38H7.13v-1a2.74,2.74,0,0,1,.34-1.58A1.88,1.88,0,0,1,9.11,5,6.63,6.63,0,0,1,11,5.19l-.26,1.57a3.56,3.56,0,0,0-.85-.13c-.41,0-.78.15-.78.56V8.38Z"/></svg>