<?xml version="1.0" encoding="UTF-8"?>
<svg width="34px" height="44px" viewBox="0 0 34 44" version="1.1" xmlns="http://www.w3.org/2000/svg" xmlns:xlink="http://www.w3.org/1999/xlink">
    <!-- Generator: Sketch 46.2 (44496) - http://www.bohemiancoding.com/sketch -->
    <title>Funnel</title>
    <desc>Created with Sketch.</desc>
    <defs></defs>
    <g id="DS_TOP2%" stroke="none" stroke-width="1" fill="none" fill-rule="evenodd">
        <g id="DS-TOP2%-1920" transform="translate(-644.000000, -1059.000000)" fill="#FFFFFF">
            <g id="101" transform="translate(629.000000, 1049.000000)">
                <path d="M33.90878,44.0082778 C33.7416245,44.2087313 33.6503882,44.4617955 33.6514981,44.7230732 L33.6514981,50.8454511 L30.2817484,50.8454511 L30.2817484,44.7186335 C30.2815264,44.4589097 30.1905121,44.2076214 30.0240225,44.0082778 L20.9627699,33.1753538 C24.5689349,34.1092495 28.2838731,34.5572176 32.0085786,34.5072707 C35.70376,34.5474502 39.3880641,34.0994821 42.9660368,33.1753538 L33.90878,44.0082778 Z M46.8596739,25.3170442 C46.3642008,24.9900586 45.7020161,25.0919502 45.3277475,25.5523495 C44.9588065,26.0418289 45.0567024,26.7377555 45.5461818,27.1066965 C45.5732642,27.1271192 45.6010124,27.14621 45.6298706,27.1639689 C46.3577632,27.6079412 46.792856,28.091871 46.792856,28.4470489 C46.7799808,28.6219739 46.7116091,28.7884636 46.5975082,28.9220992 C46.1994871,29.3296658 45.7413077,29.6741883 45.238953,29.9432355 C43.0190915,31.1108826 38.5351933,32.2918489 32.0085786,32.2918489 C23.7506939,32.2918489 18.734029,30.400527 17.5175449,29.0419717 L17.4285285,28.9398581 C17.307102,28.8026707 17.2338466,28.6297435 17.2198615,28.4470489 C17.2198615,28.0963107 17.6638338,27.6257001 18.3697497,27.1728484 C18.829483,26.9018033 19.0410358,26.3495017 18.8803179,25.8409315 C18.6794204,25.2617696 18.0467599,24.9554287 17.46782,25.1565482 C17.3921227,25.1829645 17.3193113,25.2173724 17.2509395,25.2593278 C15.3909176,26.4003366 15,27.6212604 15,28.4514886 C15.0017759,28.8555034 15.0927902,29.2541905 15.2666054,29.6191357 C15.416446,29.9374639 15.6060222,30.2358132 15.8304502,30.5070803 L28.0618869,45.1226483 L28.0618869,51.9553819 C28.0618869,52.5685076 28.5586919,53.0653126 29.1718176,53.0653126 L34.7614288,53.0653126 C35.3743326,53.0653126 35.8713596,52.5685076 35.8713596,51.9553819 L35.8713596,45.1226483 L47.8586115,30.8045417 C48.5543161,30.2204962 48.9689862,29.3682914 48.9993984,28.460368 C49.0173792,27.6523384 48.6397808,26.4536133 46.8596739,25.3170442 L46.8596739,25.3170442 Z M32.6789768,17.338862 C31.2642591,17.338862 30.1172566,16.1918596 30.1172566,14.7771419 C30.1172566,13.3622022 31.2642591,12.2154218 32.6789768,12.2154218 C34.0939165,12.2154218 35.2406969,13.3622022 35.2406969,14.7771419 C35.2335934,16.1867539 34.0888108,17.3255429 32.6789768,17.3255429 L32.6789768,17.338862 Z M32.6789768,10 C30.0382296,10 27.8973952,12.1406124 27.8973952,14.7815816 C27.8973952,17.4223288 30.0382296,19.5631632 32.6789768,19.5631632 C35.319724,19.5631632 37.4605584,17.4223288 37.4605584,14.7815816 C37.4581166,12.1417224 35.319058,10.0024418 32.6789768,10 L32.6789768,10 Z M40.0979758,20.3623134 C40.8529507,20.3623134 41.4651885,20.9745512 41.4651885,21.729748 C41.4651885,22.4849449 40.8529507,23.0971827 40.0979758,23.0971827 C39.3427789,23.0971827 38.7305412,22.4849449 38.7305412,21.729748 C38.7376447,20.9796568 39.3478846,20.3756325 40.0979758,20.3756325 L40.0979758,20.3623134 Z M40.0979758,25.3170442 C42.0792022,25.3170442 43.68505,23.7109744 43.68505,21.729748 C43.68505,19.7485217 42.0792022,18.1424519 40.0979758,18.1424519 C38.1165275,18.1424519 36.5106797,19.7485217 36.5106797,21.729748 C36.5128995,23.7098645 38.1176374,25.3146023 40.0979758,25.3170442 L40.0979758,25.3170442 Z M32.6878562,28.1229491 C31.9326594,28.1229491 31.3204216,27.5107113 31.3204216,26.7555144 C31.3204216,26.0003175 31.9326594,25.3880797 32.6878562,25.3880797 C33.4430531,25.3880797 34.0552909,26.0003175 34.0552909,26.7555144 C34.0481873,27.5089354 33.4323978,28.1145136 32.6789768,28.1096299 L32.6878562,28.1229491 Z M32.6878562,23.1682183 C30.7068519,23.1682183 29.1005601,24.774288 29.1005601,26.7555144 C29.1005601,28.7367408 30.7068519,30.3428106 32.6878562,30.3428106 C34.6693046,30.3428106 36.2751524,28.7367408 36.2751524,26.7555144 C36.2802581,24.7718462 34.6759642,23.1597828 32.6925179,23.1548991 C32.6878562,23.1548991 32.6834165,23.1548991 32.6789768,23.1548991 L32.6878562,23.1682183 Z M23.573105,23.6121906 C22.3668323,23.6121906 21.3889833,22.6341196 21.3889833,21.4278469 C21.3889833,20.2213522 22.3668323,19.2435032 23.573105,19.2435032 C24.7795997,19.2435032 25.7574487,20.2213522 25.7574487,21.4278469 C25.7574487,22.6341196 24.7795997,23.6121906 23.573105,23.6121906 L23.573105,23.6121906 Z M23.573105,17.0236417 C21.1408028,17.0236417 19.1691218,18.9953227 19.1691218,21.4278469 C19.1691218,23.8601491 21.1408028,25.832052 23.573105,25.832052 C26.0056292,25.832052 27.9773102,23.8601491 27.9773102,21.4278469 C27.9750903,18.9964326 26.0045193,17.0260836 23.573105,17.0236417 L23.573105,17.0236417 Z" id="Funnel"></path>
            </g>
        </g>
    </g>
</svg>