<svg xmlns="http://www.w3.org/2000/svg" width="20" height="20" viewBox="0 0 20 20"><defs><style>.cls-1{fill:#007bb5;}</style></defs><title>ds-elements</title><g id="social"><path class="cls-1" d="M12.37,1.86A6.8,6.8,0,0,0,8.11,0a4.19,4.19,0,0,0-.57,0C5.46.32,4.16,1.44,3.33,3.66a26.38,26.38,0,0,0-1.51,9.06v.07c0,.17,0,.34,0,.49A6,6,0,0,0,3.86,18.4a6,6,0,0,0,.89.61h0a8.26,8.26,0,0,0,3.78,1H9c1.63,0,5.66-.24,7.77-2.44a5.14,5.14,0,0,0,1.38-4A18,18,0,0,0,12.37,1.86ZM7.55,14H5.85V8.56H7.55Zm-.9-6.15h0a1,1,0,1,1,0-1.9,1,1,0,1,1,0,1.9ZM14.38,14H12.44V11.19c0-.74-.3-1.24-1-1.24a1,1,0,0,0-.92.67,1.24,1.24,0,0,0,0,.45v3H8.59s0-5,0-5.46h1.92v.86a1.75,1.75,0,0,1,1.7-.91c1.21,0,2.16.79,2.16,2.48Z"/></g></svg>