<?xml version="1.0" encoding="UTF-8"?>
<svg width="17px" height="21px" viewBox="0 0 17 21" version="1.1" xmlns="http://www.w3.org/2000/svg" xmlns:xlink="http://www.w3.org/1999/xlink">
    <!-- Generator: Sketch 46.2 (44496) - http://www.bohemiancoding.com/sketch -->
    <title>Letter-svg</title>
    <desc>Created with Sketch.</desc>
    <defs></defs>
    <g id="Symbols" stroke="none" stroke-width="1" fill="none" fill-rule="evenodd">
        <g id="Testimonials\Letter-reference" transform="translate(-12.000000, -5.000000)" fill-rule="nonzero" fill="#5AA8ED">
            <g id="Letter-reference">
                <g id="Letter-svg" transform="translate(12.509091, 5.169697)">
                    <path d="M15.8510085,4.63120677 L11.8853993,0.231346339 C11.7706091,0.103923764 11.6022956,0.0343779329 11.4282686,0.0424634418 L0.571413431,0.0424634418 C0.253990592,0.0485156571 -6.1035496e-05,0.300448872 1.37423787e-09,0.609112133 L1.37423787e-09,19.4974019 C0.0120547524,19.7973884 0.262673701,20.0361713 0.571413431,20.041829 L15.4281626,20.041829 C15.7455854,20.0357768 15.9996371,19.7838436 15.999576,19.4751803 L15.999576,5.03119408 C16.0053444,4.88416918 15.9520658,4.74072748 15.8510085,4.63120677 Z M12.0225386,2.08684304 L14.171053,4.48676691 L12.0225386,4.48676691 L12.0225386,2.08684304 Z M14.8567492,18.9307532 L1.14282686,18.9307532 L1.14282686,1.15353931 L10.8568552,1.15353931 L10.8568552,5.03119408 C10.8567941,5.33985734 11.1108457,5.59179056 11.4282686,5.59784277 L14.8567492,5.59784277 L14.8567492,18.9307532 Z M3.21134347,10.5865734 C3.21128244,10.8952367 3.46533406,11.1471699 3.7827569,11.1532221 L12.2053909,11.1532221 C12.4775668,11.1000353 12.6733799,10.8675906 12.6733799,10.5976842 C12.6733799,10.3277778 12.4775668,10.095333 12.2053909,10.0421462 L3.7827569,10.0421462 C3.47401717,10.047804 3.22339823,10.2865869 3.21134347,10.5865734 Z M12.2053909,12.8087251 L3.7827569,12.8087251 C3.51058095,12.8619119 3.31476788,13.0943567 3.31476788,13.3642631 C3.31476788,13.6341695 3.51058095,13.8666142 3.7827569,13.919801 L12.2053909,13.919801 C12.4775668,13.8666142 12.6733799,13.6341695 12.6733799,13.3642631 C12.6733799,13.0943567 12.4775668,12.8619119 12.2053909,12.8087251 L12.2053909,12.8087251 Z M12.2053909,15.6419686 L3.7827569,15.6419686 C3.51058095,15.6951554 3.31476788,15.9276001 3.31476788,16.1975065 C3.31476788,16.4674129 3.51058095,16.6998577 3.7827569,16.7530445 L12.2053909,16.7530445 C12.4775668,16.6998577 12.6733799,16.4674129 12.6733799,16.1975065 C12.6733799,15.9276001 12.4775668,15.6951554 12.2053909,15.6419686 Z M7.99978801,7.90888057 C8.87080109,7.91788974 9.66121505,7.41471627 10.0009779,6.63493335 C10.3407408,5.85515044 10.1626077,4.95309036 9.5499761,4.35107501 C8.93734451,3.74905967 8.01146462,3.56623811 7.20581016,3.8882028 C6.40015569,4.2101675 5.87417935,4.97319618 5.87413006,5.82005794 C5.87406341,6.96506021 6.82213189,7.8966997 7.99978801,7.90888057 L7.99978801,7.90888057 Z M7.99978801,4.85342194 C8.40293601,4.8489165 8.76897177,5.08155174 8.92647152,5.44237873 C9.08397128,5.80320572 9.00175074,6.22078222 8.71831587,6.49954665 C8.43488099,6.77831109 8.00635068,6.86306928 7.63341647,6.71412682 C7.26048226,6.56518436 7.01698355,6.21203124 7.01695691,5.82005794 C7.01390278,5.56471729 7.11610091,5.31881157 7.30074956,5.13720557 C7.48539821,4.95559956 7.73713279,4.85340468 7.99978801,4.85342194 Z" id="Shape"></path>
                </g>
            </g>
        </g>
    </g>
</svg>