<?xml version="1.0" encoding="UTF-8"?>
<svg width="30px" height="30px" viewBox="0 0 30 30" version="1.1" xmlns="http://www.w3.org/2000/svg" xmlns:xlink="http://www.w3.org/1999/xlink">
    <!-- Generator: Sketch 46.2 (44496) - http://www.bohemiancoding.com/sketch -->
    <title>location</title>
    <desc>Created with Sketch.</desc>
    <defs></defs>
    <g id="Symbols" stroke="none" stroke-width="1" fill="none" fill-rule="evenodd">
        <g id="Footer-+1920" transform="translate(-984.000000, -155.000000)" fill-rule="nonzero" fill="#FFFFFF">
            <g id="Footer-1920">
                <g id="location" transform="translate(984.000000, 155.000000)">
                    <path d="M15,0 C6.71572875,-5.07265313e-16 1.01453063e-15,6.71572875 0,15 C-1.01453063e-15,23.2842712 6.71572875,30 15,30 C23.2842712,30 30,23.2842712 30,15 C30,11.0217527 28.4196474,7.20644396 25.6066017,4.39339828 C22.793556,1.58035261 18.9782473,2.43597394e-16 15,0 Z M15,29 C7.2680135,29 1,22.7319865 1,15 C1,7.2680135 7.2680135,1 15,1 C22.7319865,1 29,7.2680135 29,15 C29,22.7319865 22.7319865,29 15,29 Z" id="Shape"></path>
                    <path d="M9,12 C9.01733864,8.87036257 11.4373197,6.27972869 14.5585254,6.04949726 C17.679731,5.81926583 20.4536408,8.02677951 20.93,11.12 C21.1169028,12.2519532 20.9528911,13.4139937 20.46,14.45 C19.1,17.29 17.78,20.14 16.46,22.99 C16.2964996,23.4734184 15.8998903,23.8415474 15.4056497,23.9686378 C14.9114091,24.0957282 14.386415,23.964583 14.01,23.62 C13.833245,23.4445871 13.6908033,23.2377075 13.59,23.01 C12.24,20.16 10.9,17.29 9.59,14.44 C9.20544802,13.6839155 9.00338201,12.8482527 9,12 Z M12,11.85 C11.9142491,13.4855424 13.1560726,14.8876012 14.79,15 C16.4468542,15.1215026 17.8884974,13.8768542 18.01,12.22 C18.1315026,10.5631458 16.8868542,9.12150264 15.23,9 C14.4240532,8.93685879 13.6267338,9.20165851 13.0186884,9.73440412 C12.4106431,10.2671497 12.0433407,11.0227463 12,11.83 L12,11.85 Z" id="Shape"></path>
                </g>
            </g>
        </g>
    </g>
</svg>