<?xml version="1.0" encoding="UTF-8"?>
<svg width="200px" height="49px" viewBox="0 0 200 49" version="1.1" xmlns="http://www.w3.org/2000/svg" xmlns:xlink="http://www.w3.org/1999/xlink">
    <!-- Generator: Sketch 46.2 (44496) - http://www.bohemiancoding.com/sketch -->
    <title>logo-header</title>
    <desc>Created with Sketch.</desc>
    <defs></defs>
    <g id="Symbols" stroke="none" stroke-width="1" fill="none" fill-rule="evenodd">
        <g id="Header\logo-header" transform="translate(-1.000000, 0.000000)" fill-rule="nonzero">
            <g id="logo-header">
                <path d="M43.16,32.9242308 C42.64,23.0111538 36.34,11.0438462 28.17,4.51365385 C24.48,1.56423077 20.7,0 17.23,0 C16.7449652,0.000578540576 16.260527,0.0320606005 15.78,0.0942307692 C10.43,0.782115385 7.09,3.50538462 4.93,8.88596154 C1.36,17.8190385 1.16,25.9794231 1,30.8323077 L1,31.0113462 C1,31.4259615 1,31.8217308 1,32.1986538 C0.84,37.5415385 2.63,41.7065385 6.32,44.59 C9.76199489,47.0832785 13.9785619,48.4408238 18.32,48.4534615 L19.61,48.4534615 C23.81,48.4534615 34.15,47.8786538 39.61,42.5357692 C42.1915242,39.9542825 43.4827885,36.4582159 43.16,32.9242308 L43.16,32.9242308 Z M5.84,12.4007692 C6.15,11.4584615 6.5,10.5161538 6.84,9.57384615 C8.72,4.86230769 11.46,2.62903846 16.03,2.03538462 C16.4210881,1.98529302 16.8153156,1.96010769 17.21,1.96 C20.21,1.96 23.51,3.36403846 26.83,6.01192308 C27.18,6.29461538 27.55,6.59615385 27.91,6.95423077 C27.58,6.95423077 27.23,6.95423077 26.86,6.95423077 C23.3090239,7.09143964 19.7862491,7.60991982 16.36,8.49961538 C12.6871224,9.36014871 9.1501766,10.6717618 5.84,12.4007692 L5.84,12.4007692 Z M5.1,15.5575 C5.19,15.2653846 6.01,14.5021154 8.02,13.5032692 C10.8481807,12.1566883 13.8264759,11.1105828 16.9,10.3842308 C20.1856744,9.48612096 23.5800467,8.98892168 27,8.90480769 C28.87,8.90480769 29.64,9.15923077 29.84,9.32884615 C29.61,10.045 25.92,12.5044231 18.05,14.4832692 C14.764409,15.3830505 11.3702366,15.8833871 7.95,15.9721154 C6.97768789,16.0794385 5.99269245,15.9361422 5.1,15.5575 Z M32.84,21.6542308 C29.0509314,23.4688206 25.0598307,24.8815077 20.94,25.8663462 C16.6262789,27.0463788 12.1701548,27.7018851 7.68,27.8169231 C4.79,27.8169231 3.61,27.3551923 3.53,27.0442308 C3.45,26.7332692 4.36,25.6496154 7.21,24.2173077 C11.0480949,22.335333 15.1098999,20.8897513 19.31,19.9109615 C23.6237449,18.7310297 28.0798552,18.0755255 32.57,17.9603846 C35.46,17.9603846 36.64,18.4221154 36.72,18.7330769 C36.8,19.0440385 36.15,19.9675 32.84,21.6542308 L32.84,21.6542308 Z M3.46,24.1136538 C3.65995071,21.8707408 3.99381283,19.6402208 4.46,17.4326923 C5.59203303,17.8242874 6.79524267,18.0004418 8,17.9509615 C11.554293,17.8140574 15.0804164,17.2955782 18.51,16.4055769 C21.7957347,15.6272227 24.978834,14.5051912 28,13.0603846 C29.3374486,12.478886 30.517158,11.6185661 31.45,10.5444231 C32.9356488,12.302789 34.2730611,14.1679648 35.45,16.1228846 C34.5242445,15.9827499 33.5875814,15.916553 32.65,15.925 C27.9754982,16.0925665 23.3376009,16.7724653 18.83,17.9509615 C13.72,19.2230769 6.8,21.5788462 3.46,24.1136538 Z M8.78,35.5438462 C12.8682801,33.586443 17.1746976,32.0631239 21.62,31.0019231 C26.2619144,29.7660086 31.048271,29.076024 35.87,28.9476923 C39.08,28.9476923 40.38,29.4659615 40.48,29.8240385 C40.58,30.1821154 39.61,31.36 36.48,32.9807692 C32.3367207,35.040776 27.9450501,36.6226969 23.4,37.6923077 C18.7633204,38.9173166 13.9837797,39.597792 9.17,39.7182692 C5.96,39.7182692 4.66,39.2 4.56,38.8419231 C4.51,38.6440385 5.09,37.4284615 8.78,35.5438462 Z M35.85,26.8934615 C30.8570671,27.0592529 25.9040516,27.7965225 21.1,29.0890385 C16.4984016,30.1906212 12.0410262,31.7708391 7.81,33.8005769 C6.21796361,34.5393594 4.76802384,35.52347 3.52,36.7123077 C3.1689405,35.257239 3.02102332,33.7652021 3.08,32.2740385 C3.08,31.8594231 3.08,31.4165385 3.08,30.9359615 L3.08,30.9359615 C3.08,30.3988462 3.08,29.8240385 3.08,29.2021154 C4.51256604,29.697508 6.0356354,29.9185545 7.56,29.8523077 C12.2344234,29.6839754 16.8722269,29.0040904 21.38,27.8263462 C25.6818426,26.7939534 29.8477156,25.311606 33.8,23.4069231 C35.2845524,22.7187422 36.6365298,21.8014776 37.8,20.6930769 C38.8003169,22.8645984 39.6031995,25.1122194 40.2,27.4117308 C38.782999,27.032241 37.3124355,26.8606147 35.84,26.9028846 L35.85,26.8934615 Z M38.12,41.1976923 C33.23,45.9940385 23.6,46.5123077 19.68,46.5123077 L18.39,46.5123077 C15.84,46.4369231 9.63,45.7961538 5.94,41.5275 C7.00968222,41.7030611 8.09429596,41.7850767 9.18,41.7725 C14.1724933,41.6094996 19.1254654,40.8754007 23.93,39.5863462 C30.17,38.0126923 37.82,35.3271154 41.04,32.4248077 C41.04,32.6603846 41.04,32.8676923 41.04,33.075 C41.3344449,36.0503966 40.2728499,39.003482 38.12,41.1976923 Z" id="sign" fill="#000000"></path>
                <g id="logo" transform="translate(50.000000, 11.307692)" fill="#000000">
                    <path d="M18.89,10.6198077 C18.9064605,11.9695467 18.6484817,13.3097701 18.13,14.5680769 C17.1687438,16.9245859 15.1860528,18.7826067 12.68,19.6753846 C11.3106429,20.1666231 9.8551075,20.4096038 8.39,20.3915385 L0.48,20.3915385 L0.48,0.8575 L8.39,0.8575 C9.85592845,0.840383821 11.3118923,1.08663412 12.68,1.58307692 C13.9210005,2.03054248 15.0510776,2.71373374 16,3.59019231 C16.9324906,4.46990543 17.6611762,5.52233482 18.14,6.68096154 C18.653812,7.93694977 18.9083709,9.27384099 18.89,10.6198077 Z M14.95,10.6198077 C14.9645725,9.64144655 14.809187,8.66742889 14.49,7.73634615 C14.2177049,6.94089915 13.7752659,6.20648971 13.19,5.57846154 C12.6206189,4.98565572 11.9164057,4.52179012 11.13,4.22153846 C10.2618992,3.89630622 9.3340752,3.73617881 8.4,3.75038462 L4.4,3.75038462 L4.4,17.4986538 L8.4,17.4986538 C9.33409705,17.5131089 10.2619725,17.3529726 11.13,17.0275 C11.9165717,16.7275365 12.620849,16.2636287 13.19,15.6705769 C13.7752659,15.0425488 14.2177049,14.3081393 14.49,13.5126923 C14.8068777,12.5780751 14.9588964,11.6008031 14.94,10.6198077 L14.95,10.6198077 Z" id="Shape"></path>
                    <path d="M36.55,0.8575 L36.55,2.19557692 C36.5525907,2.5993281 36.4234256,2.99407376 36.18,3.32634615 L25.54,17.4609615 L36.29,17.4609615 L36.29,20.3632692 L20.53,20.3632692 L20.53,18.9592308 C20.5297245,18.7821911 20.5636088,18.6065792 20.63,18.4409615 C20.696581,18.2777308 20.7838825,18.1226933 20.89,17.9792308 L31.56,3.75038462 L21.21,3.75038462 L21.21,0.8575 L36.55,0.8575 Z" id="Shape"></path>
                    <polygon id="Shape" points="53.08 1 53.08 3.89288462 43.89 3.89288462 43.89 9.30173077 51.13 9.30173077 51.13 12.1286538 43.89 12.1286538 43.89 17.6505769 53.08 17.6505769 53.08 20.5528846 40 20.5528846 40 1"></polygon>
                    <path d="M59.78,0.876346154 C59.8875254,0.888609319 59.9922225,0.917251632 60.09,0.961153846 C60.1894561,1.00704348 60.2805824,1.06746976 60.36,1.14019231 C60.4642286,1.23400982 60.5611463,1.33478367 60.65,1.44173077 L71.53,14.5021154 C71.49,14.1880128 71.4633333,13.8739103 71.45,13.5598077 C71.4366667,13.2457051 71.4366667,12.9630128 71.45,12.7117308 L71.45,0.8575 L74.85,0.8575 L74.85,20.3915385 L72.85,20.3915385 C72.5894472,20.4008495 72.3299293,20.3558016 72.09,20.2596154 C71.8551779,20.1422744 71.6530385,19.9743959 71.5,19.7696154 L60.66,6.76576923 C60.66,7.05474359 60.68,7.34057692 60.72,7.62326923 C60.72,7.90596154 60.72,8.16980769 60.72,8.39596154 L60.72,20.3915385 L57.32,20.3915385 L57.32,0.8575 L59.32,0.8575 L59.78,0.876346154 Z" id="Shape"></path>
                    <path d="M90.86,4.44769231 C90.7791143,4.61511515 90.6511624,4.75849577 90.49,4.86230769 C90.3420645,4.94557696 90.1722848,4.98802189 90,4.98480769 C89.7671521,4.97370338 89.5421398,4.9019391 89.35,4.7775 L88.5,4.31576923 C88.1352543,4.13036282 87.7537559,3.97584565 87.36,3.85403846 C86.8620837,3.70632493 86.3418917,3.63629909 85.82,3.64673077 C85.3462683,3.63704644 84.8738574,3.69746053 84.42,3.82576923 C84.0553054,3.93379639 83.7158827,4.10651032 83.42,4.33461538 C83.1537132,4.54223418 82.9444685,4.80728622 82.81,5.10730769 C82.6740281,5.42126105 82.6060292,5.75765949 82.61,6.09673077 C82.5944351,6.51407516 82.7401186,6.92256287 83.02,7.24634615 C83.3205183,7.57283912 83.6878451,7.83885015 84.1,8.02846154 C84.5920404,8.26260806 85.1037837,8.45801734 85.63,8.61269231 L87.39,9.15923077 C87.9897297,9.35404184 88.5773285,9.58055501 89.15,9.83769231 C89.707477,10.0773504 90.2233045,10.395042 90.68,10.78 C91.1394077,11.1871008 91.5067616,11.6774947 91.76,12.2217308 C92.0502972,12.87447 92.1900515,13.5778956 92.17,14.2853846 C92.1767772,15.1325647 92.0139311,15.973349 91.69,16.7636538 C91.3803218,17.5217567 90.9031009,18.2091383 90.29,18.7801923 C89.6311772,19.3660524 88.8517642,19.8182664 88,20.1088462 C87.0248504,20.4506573 85.9902548,20.616871 84.95,20.5988462 C84.2785971,20.6036203 83.6084385,20.5436283 82.95,20.4198077 C82.3208624,20.3014788 81.7048469,20.1279669 81.11,19.9015385 C80.533451,19.6823914 79.9808562,19.4109888 79.46,19.0911538 C78.963849,18.7874991 78.5044484,18.4335981 78.09,18.0357692 L79.21,16.2925 C79.3151142,16.1649743 79.443856,16.0564298 79.59,15.9721154 C79.7371121,15.8860075 79.9068174,15.8403176 80.08,15.8401923 C80.3603177,15.8547865 80.6291101,15.9501796 80.85,16.1134615 C81.1233333,16.295641 81.4566667,16.4998077 81.85,16.7259615 C82.2707819,16.9710117 82.7162906,17.1761801 83.18,17.3384615 C83.7706077,17.5341826 84.3941381,17.6267868 85.02,17.6117308 C85.9365309,17.6667686 86.8429781,17.4054986 87.57,16.8767308 C88.1929955,16.3373916 88.5238061,15.5615417 88.47,14.7659615 C88.4901088,14.3162355 88.3453331,13.8736918 88.06,13.5126923 C87.7656884,13.1704221 87.3975604,12.8909831 86.98,12.6928846 C86.4912157,12.4593888 85.9786025,12.2731187 85.45,12.1369231 C84.8766667,11.9861538 84.2933333,11.8196795 83.7,11.6375 C83.1211958,11.4719651 82.5535007,11.2737213 82,11.0438462 C81.4391902,10.8099281 80.9224538,10.4916767 80.47,10.1015385 C80.003366,9.6710015 79.6357424,9.15458718 79.39,8.58442308 C79.0958115,7.86686567 78.956427,7.10123161 78.98,6.33230769 C78.985071,4.8679609 79.6244068,3.46904924 80.75,2.45942308 C81.3672681,1.91574883 82.0906409,1.49012398 82.88,1.20615385 C83.7996581,0.878604425 84.7769941,0.718717072 85.76,0.735 C86.9116205,0.722944085 88.0562662,0.9048396 89.14,1.27211538 C90.1206632,1.60272814 91.0191106,2.11903435 91.78,2.78923077 L90.86,4.44769231 Z" id="Shape"></path>
                    <path d="M115.76,10.6198077 C115.773471,11.9784962 115.515657,13.3274531 115,14.5963462 C114.519226,15.7762904 113.791455,16.8530361 112.86,17.7625 C111.922028,18.6656402 110.794773,19.3748572 109.55,19.845 C106.787734,20.8413865 103.732266,20.8413865 100.97,19.845 C99.7188989,19.3756858 98.5849319,18.6665308 97.64,17.7625 C96.7072464,16.8540013 95.9792968,15.7769916 95.5,14.5963462 C94.4879118,12.031093 94.4879118,9.20852234 95.5,6.64326923 C95.9872951,5.47260427 96.71832,4.40568722 97.65,3.50538462 C98.597922,2.58899598 99.7391117,1.86995471 101,1.39461538 C102.363859,0.881178343 103.821423,0.625052588 105.29,0.640769231 C106.758871,0.621831437 108.217099,0.878073693 109.58,1.39461538 C110.818208,1.87897347 111.937916,2.5973465 112.87,3.50538462 C113.795993,4.40626461 114.520343,5.47336605 115,6.64326923 C115.515657,7.91216226 115.773471,9.26111915 115.76,10.6198077 Z M111.76,10.6198077 C111.77515,9.64212827 111.623206,8.66852376 111.31,7.73634615 C111.039476,6.93734307 110.596918,6.19952729 110.01,5.56903846 C109.457168,4.9773654 108.770225,4.51039949 108,4.20269231 C106.238118,3.57184964 104.291882,3.57184964 102.53,4.20269231 C101.739197,4.50472305 101.031429,4.97189986 100.46,5.56903846 C99.8697354,6.19884619 99.4237665,6.93667208 99.15,7.73634615 C98.8304613,8.66735097 98.675067,9.64142359 98.69,10.6198077 C98.675067,11.5981918 98.8304613,12.5722644 99.15,13.5032692 C99.4231578,14.3003761 99.8692719,15.0352331 100.46,15.6611538 C101.033165,16.2541398 101.740659,16.7179152 102.53,17.0180769 C104.291882,17.6489196 106.238118,17.6489196 108,17.0180769 C108.786738,16.7184027 109.49108,16.2544524 110.06,15.6611538 C110.647621,15.0347078 111.090354,14.2998111 111.36,13.5032692 C111.673206,12.5710916 111.82515,11.5974871 111.81,10.6198077 L111.76,10.6198077 Z" id="Shape"></path>
                    <polygon id="Shape" points="132.62 0.8575 132.62 3.75038462 123.43 3.75038462 123.43 9.53615385 131.19 9.53615385 131.19 12.4384615 123.43 12.4384615 123.43 20.3915385 119.54 20.3915385 119.54 0.8575"></polygon>
                    <polygon id="Shape" points="151 0.8575 151 3.84461538 144.76 3.84461538 144.76 20.3915385 140.9 20.3915385 140.9 3.84461538 134.64 3.84461538 134.64 0.8575"></polygon>
                </g>
                <g id="status" transform="translate(50.000000, 36.750000)" fill="#7C7C7C">
                    <path d="M0.82,2.49711538 L1.38,2.49711538 C1.42553286,2.48340672 1.47446714,2.48340672 1.52,2.49711538 C1.55599302,2.52035528 1.58383969,2.55315545 1.6,2.59134615 L2.37,5.04134615 L2.43,5.30519231 C2.43,5.39 2.43,5.47480769 2.43,5.55961538 C2.43,5.47480769 2.43,5.39 2.5,5.30519231 L2.58,5.04134615 L3.43,2.5725 C3.44291719,2.53525147 3.46727993,2.50245548 3.5,2.47826923 C3.54198533,2.46386538 3.58801467,2.46386538 3.63,2.47826923 L4,2.47826923 C4.04224254,2.46531219 4.08775746,2.46531219 4.13,2.47826923 C4.16272007,2.50245548 4.18708281,2.53525147 4.2,2.5725 L5,5.08846154 C5,5.17641026 5.02666667,5.26435897 5.08,5.35230769 L5.15,5.60673077 C5.15,5.52192308 5.15,5.43711538 5.2,5.34288462 C5.25,5.24865385 5.2,5.16384615 5.27,5.08846154 L6.06,2.63846154 C6.07372513,2.59650404 6.10186865,2.56003924 6.14,2.53480769 C6.18224254,2.52185065 6.22775746,2.52185065 6.27,2.53480769 L6.8,2.53480769 L5.49,6.30403846 L5,6.30403846 C4.93333333,6.30403846 4.88666667,6.2600641 4.86,6.17211538 L3.97,3.59019231 C3.94925339,3.53159132 3.93255184,3.47178694 3.92,3.41115385 L3.92,3.23211538 L3.92,3.41115385 C3.90736802,3.47176963 3.89066781,3.53156922 3.87,3.59019231 L2.97,6.17211538 C2.95602593,6.24596725 2.88953481,6.30079046 2.81,6.30403846 L2.28,6.30403846 L0.82,2.49711538 Z" id="Shape"></path>
                    <path d="M14.9,2.44057692 C15.1289326,2.43777401 15.3563308,2.47615236 15.57,2.55365385 C15.7696243,2.62668068 15.9503416,2.73913718 16.1,2.88346154 C16.255522,3.03726449 16.3747946,3.22030202 16.45,3.42057692 C16.5391133,3.65314394 16.5831465,3.89890914 16.58,4.14615385 C16.5974048,4.21428328 16.5974048,4.2853321 16.58,4.35346154 C16.5477146,4.39489318 16.4941049,4.41654323 16.44,4.41 L13.71,4.41 C13.709175,4.62400883 13.7428939,4.83689135 13.81,5.04134615 C13.8645601,5.20379359 13.9529503,5.3543577 14.07,5.48423077 C14.1794789,5.60057574 14.316517,5.69096818 14.47,5.74807692 C14.6357943,5.80806869 14.8124529,5.83688025 14.99,5.83288462 C15.1455085,5.83647786 15.3006725,5.8174067 15.45,5.77634615 C15.563363,5.74406645 15.6737316,5.7030963 15.78,5.65384615 L16.01,5.53134615 C16.056659,5.49874732 16.1120988,5.47915681 16.17,5.47480769 C16.2256736,5.47231622 16.2787111,5.49730504 16.31,5.54076923 L16.51,5.78576923 C16.4218201,5.88834143 16.317235,5.97735554 16.2,6.04961538 C16.0772737,6.12244338 15.9465046,6.18247594 15.81,6.22865385 C15.6701659,6.27500867 15.526279,6.30969339 15.38,6.33230769 C15.2335869,6.34380116 15.0864131,6.34380116 14.94,6.33230769 C14.6767244,6.33533673 14.4152945,6.29054629 14.17,6.20038462 C13.9381143,6.11258351 13.729779,5.97741515 13.56,5.80461538 C13.3807973,5.61958376 13.2445581,5.40133916 13.16,5.16384615 C13.0602775,4.88147314 13.0129184,4.58502347 13.02,4.2875 C13.0180234,4.03419316 13.0619893,3.78243004 13.15,3.54307692 C13.2292694,3.32074814 13.3550873,3.11567273 13.52,2.94 C13.6844244,2.76989618 13.8856024,2.63494696 14.11,2.54423077 C14.3628718,2.45849083 14.6318902,2.42319364 14.9,2.44057692 Z M14.9,2.93057692 C14.6002076,2.91567663 14.3071661,3.01794896 14.09,3.21326923 C13.8798146,3.42546307 13.7497642,3.69705483 13.72,3.98596154 L15.92,3.98596154 C15.9206839,3.84201137 15.8970551,3.6988756 15.85,3.56192308 C15.8090325,3.43699524 15.7409217,3.32146887 15.65,3.22269231 C15.5618602,3.12882385 15.4525133,3.05476498 15.33,3.00596154 C15.19673,2.95471059 15.0539323,2.92908024 14.91,2.93057692 L14.9,2.93057692 Z" id="Shape"></path>
                    <path d="M23.34,6.33230769 L23.34,0.763269231 L24.05,0.763269231 L24.05,3.04365385 C24.2130957,2.86397209 24.4096559,2.71387982 24.63,2.60076923 C24.8573954,2.48597379 25.1120553,2.42760321 25.37,2.43115385 C25.5877418,2.43092276 25.8028554,2.47596793 26,2.56307692 C26.1894733,2.64676371 26.3542839,2.77294685 26.48,2.93057692 C26.6238245,3.11425512 26.7290475,3.32215537 26.79,3.54307692 C26.8667489,3.81665385 26.9037531,4.09877818 26.9,4.38173077 C26.9020468,4.64664406 26.8615898,4.91032728 26.78,5.16384615 C26.7100104,5.39264489 26.5946417,5.60687303 26.44,5.79519231 C26.1305921,6.1618479 25.6570029,6.37103544 25.16,6.36057692 C24.930832,6.36703653 24.7036935,6.31839237 24.5,6.21923077 C24.3119205,6.1210174 24.1482704,5.98608472 24.02,5.82346154 L24.02,6.17211538 C24.0095389,6.25689196 23.9303785,6.31905317 23.84,6.31346154 L23.34,6.33230769 Z M25.14,2.99653846 C24.9256667,2.99174455 24.7142429,3.04400063 24.53,3.14730769 C24.3431355,3.25896516 24.1802905,3.40282462 24.05,3.57134615 L24.05,5.45596154 C24.1560946,5.60407943 24.3006918,5.72411368 24.47,5.80461538 C24.6331427,5.8747582 24.8106889,5.91014926 24.99,5.90826923 C25.3291364,5.93013291 25.6568352,5.78815907 25.86,5.53134615 C26.0810595,5.20992426 26.1862629,4.82991085 26.16,4.44769231 C26.1637455,4.23224132 26.1402467,4.01713671 26.09,3.80692308 C26.0540854,3.64857666 25.9861854,3.49821733 25.89,3.36403846 C25.8095581,3.25365435 25.6990087,3.16575964 25.57,3.10961538 C25.4389578,3.03423511 25.2923658,2.98604857 25.14,2.96826923 L25.14,2.99653846 Z" id="Shape"></path>
                    <path d="M43.84,6.33230769 C43.7474818,6.33834989 43.6652348,6.27716411 43.65,6.19096154 L43.59,5.72923077 C43.4263962,5.92227339 43.2263775,6.085196 43,6.20980769 C42.7676191,6.33103494 42.5055828,6.39276463 42.24,6.38884615 C42.0229154,6.39297592 41.8076179,6.35111251 41.61,6.26634615 C41.4209561,6.18201573 41.2562967,6.05594837 41.13,5.89884615 C40.985747,5.71541046 40.8804829,5.50742884 40.82,5.28634615 C40.7401169,5.01315999 40.6997521,4.73105933 40.7,4.44769231 C40.6979532,4.18277902 40.7384102,3.91909579 40.82,3.66557692 C40.8899896,3.43677818 41.0053583,3.22255005 41.16,3.03423077 C41.466351,2.66285285 41.9409288,2.44973491 42.44,2.45942308 C42.6570533,2.45561266 42.8722767,2.49746164 43.07,2.58192308 C43.2478857,2.66209147 43.4075184,2.77410872 43.54,2.91173077 L43.54,0.763269231 L44.25,0.763269231 L44.25,6.33230769 L43.84,6.33230769 Z M42.46,5.84230769 C42.6743333,5.8471016 42.8857571,5.79484552 43.07,5.69153846 C43.2570124,5.58006106 43.4198906,5.43617228 43.55,5.2675 L43.55,3.38288462 C43.440793,3.23382094 43.2927098,3.11375169 43.12,3.03423077 C42.9567551,2.96438088 42.7792787,2.92900375 42.6,2.93057692 C42.2608636,2.90871325 41.9331648,3.05068709 41.73,3.3075 C41.5089405,3.62892189 41.4037371,4.00893531 41.43,4.39115385 C41.4265365,4.60659329 41.4500319,4.82166662 41.5,5.03192308 C41.5361727,5.18727461 41.6041036,5.33450185 41.7,5.46538462 C41.7800668,5.57608822 41.8907202,5.66406562 42.02,5.71980769 C42.1572276,5.78331596 42.3072008,5.81864617 42.46,5.82346154 L42.46,5.84230769 Z" id="Shape"></path>
                    <path d="M52.89,2.44057692 C53.1189326,2.43777401 53.3463308,2.47615236 53.56,2.55365385 C53.7596243,2.62668068 53.9403416,2.73913718 54.09,2.88346154 C54.245522,3.03726449 54.3647946,3.22030202 54.44,3.42057692 C54.5291133,3.65314394 54.5731465,3.89890914 54.57,4.14615385 C54.5874048,4.21428328 54.5874048,4.2853321 54.57,4.35346154 C54.5377146,4.39489318 54.4841049,4.41654323 54.43,4.41 L51.74,4.41 C51.739175,4.62400883 51.7728939,4.83689135 51.84,5.04134615 C51.8945601,5.20379359 51.9829503,5.3543577 52.1,5.48423077 C52.2094789,5.60057574 52.346517,5.69096818 52.5,5.74807692 C52.6657943,5.80806869 52.8424529,5.83688025 53.02,5.83288462 C53.1755085,5.83647786 53.3306725,5.8174067 53.48,5.77634615 C53.593363,5.74406645 53.7037316,5.7030963 53.81,5.65384615 L54.04,5.53134615 C54.086659,5.49874732 54.1420988,5.47915681 54.2,5.47480769 C54.2556736,5.47231622 54.3087111,5.49730504 54.34,5.54076923 L54.54,5.78576923 C54.4518201,5.88834143 54.347235,5.97735554 54.23,6.04961538 C54.1072737,6.12244338 53.9765046,6.18247594 53.84,6.22865385 C53.7001659,6.27500867 53.556279,6.30969339 53.41,6.33230769 C53.2635869,6.34380116 53.1164131,6.34380116 52.97,6.33230769 C52.7067244,6.33533673 52.4452945,6.29054629 52.2,6.20038462 C51.9681143,6.11258351 51.759779,5.97741515 51.59,5.80461538 C51.4107973,5.61958376 51.2745581,5.40133916 51.19,5.16384615 C51.0902775,4.88147314 51.0429184,4.58502347 51.05,4.2875 C51.0480234,4.03419316 51.0919893,3.78243004 51.18,3.54307692 C51.2592694,3.32074814 51.3850873,3.11567273 51.55,2.94 C51.7144244,2.76989618 51.9156024,2.63494696 52.14,2.54423077 C52.3803347,2.46354393 52.635199,2.42832038 52.89,2.44057692 L52.89,2.44057692 Z M52.89,2.93057692 C52.5902076,2.91567663 52.2971661,3.01794896 52.08,3.21326923 C51.8698146,3.42546307 51.7397642,3.69705483 51.71,3.98596154 L53.91,3.98596154 C53.9106839,3.84201137 53.8870551,3.6988756 53.84,3.56192308 C53.7990325,3.43699524 53.7309217,3.32146887 53.64,3.22269231 C53.5518602,3.12882385 53.4425133,3.05476498 53.32,3.00596154 C53.189842,2.95592972 53.0505706,2.9303226 52.91,2.93057692 L52.89,2.93057692 Z" id="Shape"></path>
                    <path d="M60.7,2.49711538 L61.28,2.49711538 C61.3254217,2.48275026 61.3745783,2.48275026 61.42,2.49711538 C61.4548967,2.52144777 61.4824679,2.55392353 61.5,2.59134615 L62.5,5.04134615 C62.5373053,5.13015524 62.567392,5.2215082 62.59,5.31461538 L62.65,5.57846154 L62.72,5.31461538 C62.7438228,5.22182013 62.7738835,5.13054623 62.81,5.04134615 L63.81,2.59134615 C63.8255013,2.55024837 63.8532839,2.51425128 63.89,2.48769231 C63.9322425,2.47473527 63.9777575,2.47473527 64.02,2.48769231 L64.57,2.48769231 L63,6.33230769 L62.36,6.33230769 L60.7,2.49711538 Z" id="Shape"></path>
                    <path d="M72.63,2.44057692 C72.8589326,2.43777401 73.0863308,2.47615236 73.3,2.55365385 C73.4996243,2.62668068 73.6803416,2.73913718 73.83,2.88346154 C73.985522,3.03726449 74.1047946,3.22030202 74.18,3.42057692 C74.2691133,3.65314394 74.3131465,3.89890914 74.31,4.14615385 C74.3274048,4.21428328 74.3274048,4.2853321 74.31,4.35346154 C74.2777146,4.39489318 74.2241049,4.41654323 74.17,4.41 L71.48,4.41 C71.479175,4.62400883 71.5128939,4.83689135 71.58,5.04134615 C71.6345601,5.20379359 71.7229503,5.3543577 71.84,5.48423077 C71.9494789,5.60057574 72.086517,5.69096818 72.24,5.74807692 C72.4057943,5.80806869 72.5824529,5.83688025 72.76,5.83288462 C72.9155085,5.83647786 73.0706725,5.8174067 73.22,5.77634615 C73.333363,5.74406645 73.4437316,5.7030963 73.55,5.65384615 L73.78,5.53134615 C73.826659,5.49874732 73.8820988,5.47915681 73.94,5.47480769 C73.9956736,5.47231622 74.0487111,5.49730504 74.08,5.54076923 L74.28,5.78576923 C74.1918201,5.88834143 74.087235,5.97735554 73.97,6.04961538 C73.8472737,6.12244338 73.7165046,6.18247594 73.58,6.22865385 C73.4401659,6.27500867 73.296279,6.30969339 73.15,6.33230769 C73.0035869,6.34380116 72.8564131,6.34380116 72.71,6.33230769 C72.4467244,6.33533673 72.1852945,6.29054629 71.94,6.20038462 C71.7081143,6.11258351 71.499779,5.97741515 71.33,5.80461538 C71.1507973,5.61958376 71.0145581,5.40133916 70.93,5.16384615 C70.8302775,4.88147314 70.7829184,4.58502347 70.79,4.2875 C70.7880234,4.03419316 70.8319893,3.78243004 70.92,3.54307692 C70.9992694,3.32074814 71.1250873,3.11567273 71.29,2.94 C71.4544244,2.76989618 71.6556024,2.63494696 71.88,2.54423077 C72.1203347,2.46354393 72.375199,2.42832038 72.63,2.44057692 L72.63,2.44057692 Z M72.63,2.93057692 C72.3302076,2.91567663 72.0371661,3.01794896 71.82,3.21326923 C71.6098146,3.42546307 71.4797642,3.69705483 71.45,3.98596154 L73.65,3.98596154 C73.6506839,3.84201137 73.6270551,3.6988756 73.58,3.56192308 C73.5390325,3.43699524 73.4709217,3.32146887 73.38,3.22269231 C73.2918602,3.12882385 73.1825133,3.05476498 73.06,3.00596154 C72.92673,2.95471059 72.7839323,2.92908024 72.64,2.93057692 L72.63,2.93057692 Z" id="Shape"></path>
                    <polygon id="Shape" points="81.84 0.763269231 81.84 6.33230769 81.13 6.33230769 81.13 0.763269231"></polygon>
                    <path d="M90.57,2.44057692 C90.8439658,2.43733806 91.1158883,2.48538206 91.37,2.58192308 C91.6020446,2.66944498 91.8104411,2.80465307 91.98,2.97769231 C92.1510689,3.15792274 92.2804772,3.36971747 92.36,3.59961538 C92.5377887,4.12688404 92.5377887,4.69311596 92.36,5.22038462 C92.279229,5.44693835 92.149884,5.65542213 91.98,5.83288462 C91.8108902,6.00641141 91.6023677,6.14170118 91.37,6.22865385 C90.8545104,6.41250462 90.2854896,6.41250462 89.77,6.22865385 C89.5379554,6.14113194 89.3295589,6.00592385 89.16,5.83288462 C88.98676,5.65610893 88.8540036,5.44761319 88.77,5.22038462 C88.5902181,4.6934088 88.5902181,4.1265912 88.77,3.59961538 C88.8527603,3.36903811 88.985581,3.15723234 89.16,2.97769231 C89.3299962,2.8051292 89.5382714,2.66999985 89.77,2.58192308 C90.0241117,2.48538206 90.2960342,2.43733806 90.57,2.44057692 L90.57,2.44057692 Z M90.57,5.84230769 C90.9160005,5.87083376 91.2529284,5.72814175 91.46,5.46538462 C91.8538513,4.80737708 91.8538513,4.00319984 91.46,3.34519231 C91.2529284,3.08243517 90.9160005,2.93974316 90.57,2.96826923 C90.3881361,2.96265558 90.2071896,2.99482675 90.04,3.0625 C89.8943024,3.12727144 89.7673682,3.22425343 89.67,3.34519231 C89.5650876,3.48046086 89.4902574,3.63430752 89.45,3.7975 C89.3514051,4.19736665 89.3514051,4.61321027 89.45,5.01307692 C89.4897259,5.17644001 89.5646034,5.33038412 89.67,5.46538462 C89.7673682,5.58632349 89.8943024,5.68330548 90.04,5.74807692 C90.2071896,5.81575017 90.3881361,5.84792135 90.57,5.84230769 Z" id="Shape"></path>
                    <path d="M99.21,7.595 L99.21,2.49711538 L99.63,2.49711538 C99.7225182,2.49107319 99.8047652,2.55225896 99.82,2.63846154 L99.88,3.09076923 C100.044094,2.89817153 100.244019,2.7353255 100.47,2.61019231 C100.705152,2.48692867 100.970989,2.42511707 101.24,2.43115385 C101.457053,2.42734343 101.672277,2.46919241 101.87,2.55365385 C102.060139,2.64065558 102.224898,2.77003328 102.35,2.93057692 C102.494038,3.11413459 102.599281,3.32207519 102.66,3.54307692 C102.736749,3.81665385 102.773753,4.09877818 102.77,4.38173077 C102.772047,4.64664406 102.73159,4.91032728 102.65,5.16384615 C102.58001,5.39264489 102.464642,5.60687303 102.31,5.79519231 C101.989071,6.16065737 101.502537,6.36014228 101,6.33230769 C100.780478,6.33892361 100.562067,6.30033418 100.36,6.21923077 C100.181146,6.14058277 100.021213,6.02835538 99.89,5.88942308 L99.89,7.57615385 L99.21,7.595 Z M101.01,2.96826923 C100.795667,2.96347532 100.584243,3.0157314 100.4,3.11903846 C100.213136,3.23069593 100.050291,3.37455539 99.92,3.54307692 L99.92,5.42769231 C100.030188,5.5759219 100.178019,5.69578651 100.35,5.77634615 C100.513143,5.84648897 100.690689,5.88188003 100.87,5.88 C101.205687,5.898603 101.52882,5.75697922 101.73,5.50307692 C101.95106,5.18165503 102.056263,4.80164162 102.03,4.41942308 C102.033745,4.20397209 102.010247,3.98886747 101.96,3.77865385 C101.924326,3.62023586 101.856407,3.46983453 101.76,3.33576923 C101.679933,3.22506563 101.56928,3.13708822 101.44,3.08134615 C101.303548,3.01456975 101.153537,2.97601799 101,2.96826923 L101.01,2.96826923 Z" id="Shape"></path>
                    <path d="M109.45,6.33230769 L109.45,2.56307692 L109.87,2.56307692 C109.962518,2.55703473 110.044765,2.6182205 110.06,2.70442308 L110.11,3.10019231 C110.251016,2.93410268 110.419913,2.79086565 110.61,2.67615385 C110.801672,2.56298296 111.023824,2.50410737 111.25,2.50653846 C111.490503,2.50162566 111.724826,2.57857248 111.91,2.72326923 C112.08499,2.8791481 112.209768,3.07837949 112.27,3.29807692 C112.320714,3.16758689 112.39516,3.04641729 112.49,2.94 C112.663859,2.74523771 112.898206,2.60680889 113.16,2.54423077 C113.28952,2.529339 113.42048,2.529339 113.55,2.54423077 C113.744709,2.5402364 113.938361,2.57225037 114.12,2.63846154 C114.281447,2.70059501 114.425265,2.79739598 114.54,2.92115385 C114.662504,3.05252088 114.754475,3.20659269 114.81,3.37346154 C114.873238,3.57205413 114.903595,3.77864903 114.9,3.98596154 L114.9,6.33230769 L114.19,6.33230769 L114.19,3.88230769 C114.207372,3.63986617 114.132965,3.39947241 113.98,3.20384615 C113.829262,3.04232306 113.607854,2.95539176 113.38,2.96826923 C113.267212,2.96746349 113.155268,2.98664264 113.05,3.02480769 C112.945078,3.06222142 112.84968,3.12001062 112.77,3.19442308 C112.686251,3.27499767 112.621505,3.37133035 112.58,3.47711538 C112.531174,3.60389346 112.507448,3.73803748 112.51,3.87288462 L112.51,6.33230769 L111.8,6.33230769 L111.8,3.88230769 C111.819234,3.63816571 111.748603,3.39523518 111.6,3.19442308 C111.458499,3.03852814 111.247222,2.95470147 111.03,2.96826923 C110.85659,2.96684083 110.686434,3.01265194 110.54,3.10019231 C110.381248,3.19876577 110.242411,3.32321157 110.13,3.46769231 L110.13,6.29461538 L109.45,6.33230769 Z" id="Shape"></path>
                    <path d="M123.44,2.44057692 C123.668933,2.43777401 123.896331,2.47615236 124.11,2.55365385 C124.309624,2.62668068 124.490342,2.73913718 124.64,2.88346154 C124.795522,3.03726449 124.914795,3.22030202 124.99,3.42057692 C125.079113,3.65314394 125.123146,3.89890914 125.12,4.14615385 C125.137405,4.21428328 125.137405,4.2853321 125.12,4.35346154 C125.087715,4.39489318 125.034105,4.41654323 124.98,4.41 L122.29,4.41 C122.289175,4.62400883 122.322894,4.83689135 122.39,5.04134615 C122.44456,5.20379359 122.53295,5.3543577 122.65,5.48423077 C122.759479,5.60057574 122.896517,5.69096818 123.05,5.74807692 C123.215794,5.80806869 123.392453,5.83688025 123.57,5.83288462 C123.725509,5.83647786 123.880672,5.8174067 124.03,5.77634615 C124.143363,5.74406645 124.253732,5.7030963 124.36,5.65384615 L124.59,5.53134615 C124.636659,5.49874732 124.692099,5.47915681 124.75,5.47480769 C124.805674,5.47231622 124.858711,5.49730504 124.89,5.54076923 L125.09,5.78576923 C125.00182,5.88834143 124.897235,5.97735554 124.78,6.04961538 C124.657274,6.12244338 124.526505,6.18247594 124.39,6.22865385 C124.250166,6.27500867 124.106279,6.30969339 123.96,6.33230769 C123.813587,6.34380116 123.666413,6.34380116 123.52,6.33230769 C123.256724,6.33533673 122.995294,6.29054629 122.75,6.20038462 C122.518114,6.11258351 122.309779,5.97741515 122.14,5.80461538 C121.960797,5.61958376 121.824558,5.40133916 121.74,5.16384615 C121.640277,4.88147314 121.592918,4.58502347 121.6,4.2875 C121.598023,4.03419316 121.641989,3.78243004 121.73,3.54307692 C121.809269,3.32074814 121.935087,3.11567273 122.1,2.94 C122.264424,2.76989618 122.465602,2.63494696 122.69,2.54423077 C122.930335,2.46354393 123.185199,2.42832038 123.44,2.44057692 Z M123.44,2.93057692 C123.140208,2.91567663 122.847166,3.01794896 122.63,3.21326923 C122.419815,3.42546307 122.289764,3.69705483 122.26,3.98596154 L124.46,3.98596154 C124.460684,3.84201137 124.437055,3.6988756 124.39,3.56192308 C124.349033,3.43699524 124.280922,3.32146887 124.19,3.22269231 C124.10186,3.12882385 123.992513,3.05476498 123.87,3.00596154 C123.73673,2.95471059 123.593932,2.92908024 123.45,2.93057692 L123.44,2.93057692 Z" id="Shape"></path>
                    <path d="M131.86,6.33230769 L131.86,2.56307692 L132.28,2.56307692 C132.372518,2.55703473 132.454765,2.6182205 132.47,2.70442308 L132.53,3.11903846 C132.699078,2.94143693 132.898497,2.79174241 133.12,2.67615385 C133.350526,2.56018972 133.608731,2.50179579 133.87,2.50653846 C134.068807,2.50351366 134.266174,2.53878586 134.45,2.61019231 C134.612276,2.67534025 134.756114,2.77538121 134.87,2.90230769 C134.987764,3.03525904 135.07616,3.18903645 135.13,3.35461538 C135.191528,3.54710558 135.22187,3.74724464 135.22,3.94826923 L135.22,6.33230769 L134.51,6.33230769 L134.51,3.88230769 C134.524987,3.64303705 134.450698,3.40636164 134.3,3.21326923 C134.136838,3.04566325 133.900523,2.9586783 133.66,2.97769231 C133.453654,2.97580669 133.250335,3.02451594 133.07,3.11903846 C132.881463,3.22040858 132.712424,3.35102332 132.57,3.50538462 L132.57,6.33230769 L131.86,6.33230769 Z" id="Shape"></path>
                    <path d="M143.35,6.33230769 C143.076782,6.34647448 142.809338,6.25452314 142.61,6.07788462 C142.425438,5.87765996 142.332026,5.61697578 142.35,5.35230769 L142.35,3.0625 L141.86,3.0625 C141.824486,3.07475026 141.785514,3.07475026 141.75,3.0625 C141.733303,3.0264496 141.733303,2.98547348 141.75,2.94942308 L141.75,2.68557692 L142.41,2.61019231 L142.57,1.43230769 C142.573157,1.39599944 142.591069,1.36224186 142.62,1.33807692 C142.655514,1.32582666 142.694486,1.32582666 142.73,1.33807692 L143.09,1.33807692 L143.09,2.56307692 L144.25,2.56307692 L144.25,3.04365385 L143.09,3.04365385 L143.09,5.39 C143.077952,5.51963897 143.121126,5.64846913 143.21,5.74807692 C143.295507,5.82580925 143.411336,5.86673891 143.53,5.86115385 C143.592854,5.87154018 143.657146,5.87154018 143.72,5.86115385 L143.86,5.79519231 L143.96,5.72923077 L144.03,5.72923077 C144.073598,5.732407 144.11191,5.75767869 144.13,5.79519231 L144.34,6.11557692 C144.212533,6.22684663 144.063008,6.3133075 143.9,6.37 C143.71577,6.3895724 143.529286,6.37679237 143.35,6.33230769 L143.35,6.33230769 Z" id="Shape"></path>
                </g>
            </g>
        </g>
    </g>
</svg>