<?xml version="1.0" encoding="UTF-8"?>
<svg width="99px" height="27px" viewBox="0 0 99 27" version="1.1" xmlns="http://www.w3.org/2000/svg" xmlns:xlink="http://www.w3.org/1999/xlink">
    <!-- Generator: Sketch 47.1 (45422) - http://www.bohemiancoding.com/sketch -->
    <title>Logo-small</title>
    <desc>Created with Sketch.</desc>
    <defs></defs>
    <g id="DS-Design" stroke="none" stroke-width="1" fill="none" fill-rule="evenodd">
        <g id="DS-WHY-why-1920" transform="translate(-853.000000, -563.000000)" fill="#333333">
            <g id="Group-3" transform="translate(0.000000, 440.000000)">
                <g id="Logo-small" transform="translate(853.000000, 123.000000)">
                    <path d="M4.25231437,23.1773971 C6.2072358,23.1773971 8.92873831,22.7376359 11.718545,21.971575 C14.7178348,21.1473487 18.4560285,19.7357308 20.1966424,18.1897848 C20.1981659,18.2184762 20.1996894,18.2469068 20.2012129,18.2748158 C20.285514,20.0505539 19.7936731,21.5226846 18.7394019,22.6507791 C16.3088904,25.2510044 11.4971277,25.5316587 9.54119064,25.5316587 C9.31824987,25.5316587 9.10114923,25.5282678 8.89623669,25.5212254 C7.79448269,25.486274 5.2481842,25.2155314 3.40676451,23.5613405 C3.24552602,23.4163184 3.35039452,23.1442716 3.56444813,23.1573131 C3.78231053,23.1708764 4.01185319,23.1773971 4.25231437,23.1773971 M16.1072789,11.9089719 C14.5784333,12.7556297 12.4582107,13.5728135 10.1373922,14.2102847 C6.75265354,15.1404084 4.52019878,15.2791706 3.49055774,15.2791706 C2.57289492,15.2791706 2.05185339,15.1797939 1.77965235,15.090068 C1.62400008,15.0389451 1.56712225,14.844626 1.67554561,14.719427 C1.8865522,14.4758108 2.35630212,14.064741 3.3150998,13.5242989 C4.40161867,12.9116067 6.33597267,12.0057403 9.38223742,11.1689941 C12.7682456,10.2391312 14.9999386,10.1001082 16.0288179,10.1001082 C16.9335309,10.1001082 17.4525411,10.1968766 17.7285509,10.2871241 C17.8811561,10.3369429 17.931686,10.5307404 17.8270714,10.6551568 C17.6163187,10.9068588 17.1452992,11.3341002 16.1072789,11.9089719 M16.0458305,8.7479598 C13.8834573,8.7479598 11.0151897,9.32387487 9.05214288,9.86275193 C6.8113088,10.4783133 3.75945783,11.5816289 1.91600679,12.8104042 C1.75781533,12.91578 1.55087144,12.7858861 1.57143887,12.5933927 C1.66310359,11.7472566 1.78117586,10.9347678 1.92895665,10.1347988 C1.95257111,10.0051657 2.07800703,9.92143893 2.20217336,9.95586863 C2.59371627,10.0641135 3.08327186,10.1186272 3.66373041,10.1186272 C5.71615669,10.1186272 8.26093167,9.46394118 8.99196411,9.26336206 C10.8382083,8.75604557 12.5359099,8.09953369 13.7727487,7.41459122 C14.4484268,7.04055942 14.9466157,6.68322081 15.2815347,6.33135965 C15.3765003,6.23172217 15.5344379,6.24111209 15.6167076,6.35196531 C16.100677,7.00326057 16.5605241,7.69811462 16.9904087,8.42713755 C17.0838509,8.58624452 16.9637472,8.78630198 16.7834648,8.77299959 C16.5523986,8.7563064 16.3063513,8.7479598 16.0458305,8.7479598 M17.6825916,14.7744624 C15.7289397,14.7744624 13.0089607,15.2139628 10.2199158,15.9797629 C7.62181785,16.6939185 5.23447258,17.6164781 3.49792139,18.5776407 C2.78060056,18.9754081 2.19963417,19.3663939 1.76263979,19.7456423 C1.62755494,19.8630163 1.42213457,19.7842453 1.39572701,19.6045327 C1.31472689,19.05131 1.28247919,18.4652225 1.30025351,17.854356 C1.30583973,17.6649926 1.31015635,17.4646744 1.31523473,17.2531403 L1.31853567,17.0995108 C1.32183662,16.9526629 1.32539148,16.7995551 1.32894635,16.6412306 C1.33250121,16.4933393 1.46809389,16.3861378 1.60698752,16.4252624 C2.09806662,16.5635029 2.72219922,16.6331448 3.46999031,16.6331448 C5.63109387,16.6331448 8.50139284,16.0564473 10.4672328,15.5167877 C12.8799699,14.8540159 15.0984592,13.9964032 16.7146528,13.1020134 C17.4200394,12.7110276 17.984755,12.3255192 18.4004202,11.9514874 C18.5151916,11.8479374 18.695474,11.8935829 18.7526057,12.0391266 C19.0951423,12.9069117 19.3815628,13.7746968 19.6080584,14.629962 C19.6512246,14.7929814 19.5128388,14.9450459 19.3510925,14.9129637 C18.8818504,14.8211512 18.3232289,14.7744624 17.6825916,14.7744624 M4.10554926,19.7704213 C5.75678371,18.8562083 8.04535454,17.9738167 10.5497564,17.2862659 C13.2400269,16.5473314 15.7779461,16.1404349 17.6960493,16.1404349 C18.8059287,16.1404349 19.3975597,16.2765887 19.6789018,16.3892677 C19.8193189,16.4450856 19.8688331,16.6232332 19.775137,16.743998 C19.5732715,17.0037858 19.0717817,17.469891 17.9507299,18.1071014 C16.7758473,18.7745682 14.6838096,19.7599881 11.3887044,20.6648111 C8.70046524,21.4037456 6.16229215,21.810903 4.24266545,21.810903 C3.15056036,21.810903 2.55994506,21.6786616 2.2740324,21.5722425 C2.13107608,21.519033 2.08359325,21.3395812 2.1757658,21.2154256 C2.3748382,20.9467696 2.87328095,20.4532771 4.10554926,19.7704213 M3.2828521,6.37778759 C3.10282361,6.47194762 2.9034973,6.29406081 2.9695162,6.09817665 C3.04416835,5.87699188 3.12110577,5.65841541 3.19956671,5.44349059 C4.12586277,2.91629805 5.48051997,1.70395509 7.72947946,1.38939279 C7.91737943,1.36304884 8.11086561,1.34974646 8.30485963,1.34974646 C9.77581168,1.34974646 11.4224756,2.10902579 13.0671082,3.54516183 C13.1613121,3.62758446 13.2565316,3.71287623 13.3517512,3.80103714 C13.289795,3.79973299 13.2268231,3.7989505 13.1630895,3.7989505 C11.1045692,3.7989505 8.56614215,4.4531149 7.83739498,4.65343318 C6.46648697,5.03007329 4.66696389,5.65293796 3.2828521,6.37778759 M2.80421502,8.724485 C2.60590437,8.69788023 2.53709236,8.44070077 2.69553774,8.31498018 C2.91187662,8.14283165 3.23841629,7.92164688 3.71908473,7.66055494 C4.53416432,7.21792457 5.96753638,6.56376017 8.16748952,5.9594145 C10.7361329,5.25386638 12.4269787,5.14849061 13.2062557,5.14849061 C13.5617421,5.14849061 13.8270874,5.16831378 14.0236206,5.19544021 C14.2216773,5.22256664 14.2887119,5.4813111 14.1295047,5.60520587 C13.4256416,6.15216869 11.7218459,7.1167221 8.66186957,7.95711991 C6.08738609,8.66423302 4.38968448,8.77013045 3.60685258,8.77013045 C3.26609345,8.77013045 3.0030335,8.75082895 2.80421502,8.724485 M21.4941678,18.2077822 C21.2331392,12.7274599 18.0388398,6.12530308 13.8986925,2.5099232 C11.7502849,0.633765087 9.52214672,-0.226716715 7.55732246,0.0510684075 C4.81093589,0.435011788 3.09393645,1.94939716 1.9901511,4.96147471 C0.18250262,9.89118252 0.0829664203,14.3832157 0.0235494032,17.0682111 L0.0197406201,17.2476629 C0.0151700803,17.4458945 0.0108534594,17.6347362 0.00552116304,17.8136664 C-0.0803034171,20.7837501 0.834820213,23.1067119 2.72550016,24.7176048 C4.26551815,26.0295852 6.44261859,26.794342 8.85687927,26.8718088 C9.08591409,26.8783296 9.29945987,26.8817204 9.51021254,26.8817204 C11.640338,26.8817204 16.8936656,26.5614198 19.6669676,23.5936836 C20.9827752,22.1851956 21.5977667,20.3734628 21.4941678,18.2077822" id="Fill-1"></path>
                    <path d="M32.3360239,12.9032258 C32.3360239,12.3131743 32.2554737,11.7842979 32.0949032,11.3155507 C31.9338028,10.847065 31.7054005,10.4504731 31.4089016,10.1257748 C31.1124026,9.80107658 30.7517814,9.55193211 30.327303,9.37860286 C29.9025596,9.20501217 29.4240277,9.11795539 28.8914424,9.11795539 L27.1818701,9.11795539 C26.9563825,9.11795539 26.7738196,9.29834331 26.7738196,9.52082173 L26.7738196,16.2856299 C26.7738196,16.5081083 26.9563825,16.6884962 27.1818701,16.6884962 L28.8914424,16.6884962 C29.4240277,16.6884962 29.9025596,16.6017009 30.327303,16.4278488 C30.7517814,16.2545195 31.1124026,16.005375 31.4089016,15.6806768 C31.7054005,15.35624 31.9338028,14.9593866 32.0949032,14.4909009 C32.2554737,14.0224152 32.3360239,13.4932773 32.3360239,12.9032258 M34.4086022,12.9032258 C34.4086022,13.691704 34.2753233,14.4153471 34.0090307,15.074678 C33.743003,15.7342703 33.3686035,16.3018386 32.8860971,16.7776444 C32.4038557,17.2537117 31.8233112,17.6228533 31.1449936,17.8858537 C30.466676,18.1483312 29.7154923,18.2795699 28.8914424,18.2795699 L25.1392332,18.2795699 C24.9137456,18.2795699 24.7311828,18.0994434 24.7311828,17.876965 L24.7311828,7.92948663 C24.7311828,7.7070082 24.9137456,7.52688172 25.1392332,7.52688172 L28.8914424,7.52688172 C29.7154923,7.52688172 30.466676,7.65916619 31.1449936,7.92451942 C31.8233112,8.18987266 32.4038557,8.55927573 32.8860971,9.03246721 C33.3686035,9.50592012 33.743003,10.0724427 34.0090307,10.7317736 C34.2753233,11.391366 34.4086022,12.1150091 34.4086022,12.9032258" id="Fill-4"></path>
                    <path d="M41.5706533,7.52688172 C41.7722577,7.52688172 41.9354839,7.70700382 41.9354839,7.92947684 L41.9354839,8.26279422 C41.9354839,8.4910186 41.8769688,8.69911322 41.7604126,8.88760093 L37.1678112,16.0454284 C36.9967673,16.3120823 37.1697065,16.6809536 37.4658352,16.6809536 L41.4493589,16.6809536 C41.6509634,16.6809536 41.8141895,16.8610757 41.8141895,17.0838101 L41.8141895,17.8769748 C41.8141895,18.0991864 41.6509634,18.2795699 41.4493589,18.2795699 L34.7734328,18.2795699 C34.5718283,18.2795699 34.4086022,18.0991864 34.4086022,17.8769748 L34.4086022,17.5977724 C34.4086022,17.3698095 34.4581149,17.1405394 34.5744342,16.9525746 C34.5753819,16.9512674 34.5760926,16.9499603 34.5770402,16.9486532 L39.1840926,9.75344186 C39.3546627,9.48652653 39.1819604,9.11817814 38.8858317,9.11817814 L35.090172,9.11817814 C34.8885676,9.11817814 34.7251045,8.93779461 34.7251045,8.71558302 L34.7251045,7.92947684 C34.7251045,7.70700382 34.8885676,7.52688172 35.090172,7.52688172 L41.5706533,7.52688172 Z" id="Fill-6"></path>
                    <path d="M50.6129032,7.92947684 L50.6129032,8.71558302 C50.6129032,8.93779461 50.4415466,9.11817814 50.2299001,9.11817814 L46.4612987,9.11817814 C46.2496521,9.11817814 46.0782955,9.29830024 46.0782955,9.52077325 L46.0782955,11.6974011 C46.0782955,11.9198742 46.2496521,12.0999963 46.4612987,12.0999963 L49.267667,12.0999963 C49.4790648,12.0999963 49.6506701,12.2806412 49.6506701,12.5028528 L49.6506701,13.2366739 C49.6506701,13.4588855 49.4790648,13.639269 49.267667,13.639269 L46.4612987,13.639269 C46.2496521,13.639269 46.0782955,13.8196525 46.0782955,14.0421256 L46.0782955,16.2783584 C46.0782955,16.50057 46.2496521,16.6809536 46.4612987,16.6809536 L50.2299001,16.6809536 C50.4415466,16.6809536 50.6129032,16.8610757 50.6129032,17.0838101 L50.6129032,17.8769748 C50.6129032,18.0991864 50.4415466,18.2795699 50.2299001,18.2795699 L44.5445421,18.2795699 C44.3328956,18.2795699 44.1612903,18.0991864 44.1612903,17.8769748 L44.1612903,7.92947684 C44.1612903,7.70700382 44.3328956,7.52688172 44.5445421,7.52688172 L50.2299001,7.52688172 C50.4415466,7.52688172 50.6129032,7.70700382 50.6129032,7.92947684" id="Fill-8"></path>
                    <path d="M53.8940694,7.53786159 C53.9505842,7.5451815 54.0006544,7.56034417 54.0455192,7.58256533 C54.0901362,7.60504792 54.1335138,7.63720324 54.1761478,7.67929273 C54.218286,7.72138222 54.2651338,7.77706583 54.3169391,7.84660499 L59.668496,15.0373721 C59.6496577,14.8637856 59.6367683,14.6943819 59.6298279,14.5281154 C59.6226396,14.3621103 59.6194173,14.207085 59.6194173,14.063301 L59.6194173,7.92947684 C59.6194173,7.70700382 59.7902011,7.52688172 60.0011402,7.52688172 L60.9083518,7.52688172 C61.119043,7.52688172 61.2903226,7.70700382 61.2903226,7.92947684 L61.2903226,17.8769748 C61.2903226,18.0991864 61.119043,18.2795699 60.9083518,18.2795699 L60.3102366,18.2795699 C60.1595304,18.2795699 60.0350987,18.2547345 59.9364456,18.2055865 C59.8377926,18.1556543 59.7413703,18.0665082 59.6474268,17.937364 L54.3169391,10.7766609 C54.3313157,10.9350847 54.3417263,11.0924628 54.3486667,11.2485337 C54.3553592,11.4048661 54.3593252,11.547343 54.3593252,11.6762257 L54.3593252,17.8769748 C54.3593252,18.0991864 54.1882935,18.2795699 53.9776023,18.2795699 L53.069895,18.2795699 C52.8589559,18.2795699 52.688172,18.0991864 52.688172,17.8769748 L52.688172,7.92947684 C52.688172,7.70700382 52.8589559,7.52688172 53.069895,7.52688172 L53.6823867,7.52688172 C53.7669111,7.52688172 53.8373067,7.53054168 53.8940694,7.53786159" id="Fill-10"></path>
                    <path d="M69.3510442,9.55664632 C69.3017744,9.66330103 69.2447252,9.73849644 69.1798965,9.78223255 C69.1150678,9.82596866 69.0382163,9.84770883 68.9486349,9.84770883 C68.8590534,9.84770883 68.7583921,9.81011112 68.6468867,9.73491571 C68.5351456,9.6597203 68.4031309,9.57608459 68.2513138,9.48400857 C68.0990253,9.39193256 67.9215126,9.30804108 67.7180684,9.23284566 C67.5146241,9.15765025 67.2744043,9.12030831 66.997409,9.12030831 C66.7468166,9.12030831 66.5287565,9.15304645 66.3434643,9.21852273 C66.1577006,9.283999 66.0016403,9.37479619 65.8738688,9.49117004 C65.7465688,9.60754389 65.651801,9.74719251 65.589094,9.90960437 C65.526387,10.072272 65.4952692,10.2502856 65.4952692,10.4444126 C65.4952692,10.6914832 65.5589192,10.8978869 65.6862192,11.0628565 C65.8135192,11.2275702 65.9823095,11.3682419 66.1925902,11.4846158 C66.4026352,11.6009896 66.641912,11.7053424 66.9101849,11.7976742 C67.1782221,11.8897502 67.4521528,11.9879646 67.7315056,12.0920617 C68.0108583,12.1964145 68.284789,12.3176479 68.5528262,12.4560177 C68.8213349,12.5941317 69.0603759,12.7688204 69.2704209,12.9798279 C69.4804659,13.1908355 69.649492,13.4491598 69.776792,13.7545453 C69.9043277,14.0599307 69.9677419,14.431304 69.9677419,14.8678978 C69.9677419,15.3431123 69.8930121,15.7878906 69.7433168,16.2024885 C69.5933857,16.6173421 69.3743826,16.9789962 69.0860717,17.2869393 C68.7975251,17.5948824 68.4455642,17.8373493 68.0299533,18.014084 C67.6143424,18.1913304 67.1381462,18.2795699 66.6018361,18.2795699 C66.2930158,18.2795699 65.9889103,18.2470875 65.6895196,18.1816112 C65.3901289,18.116135 65.1029967,18.0227801 64.8278873,17.9015467 C64.5527779,17.7803133 64.2960562,17.634782 64.0570151,17.4649529 C63.9082628,17.359577 63.769883,17.2467839 63.6411685,17.1265736 C63.5070321,17.0009921 63.4773287,16.7876827 63.5690319,16.6234805 L63.9396163,15.9589986 C63.9886503,15.8912204 64.048057,15.8341844 64.1173648,15.7878906 C64.1866725,15.7421084 64.263524,15.7188336 64.3483907,15.7188336 C64.4601318,15.7188336 64.580831,15.7687081 64.7107241,15.8682014 C64.83991,15.9674389 64.9933772,16.0779301 65.1701828,16.1991635 C65.3465168,16.3201411 65.5544401,16.4306324 65.7937169,16.5301256 C66.032758,16.6293631 66.3198902,16.6794934 66.6553492,16.6794934 C67.169264,16.6794934 67.56743,16.5470062 67.8486687,16.2827992 C68.1306146,16.0185922 68.2711161,15.6387786 68.2711161,15.1441258 C68.2711161,14.8678978 68.2074661,14.6420558 68.0801661,14.4673671 C67.9528661,14.29319 67.7843115,14.1461241 67.573795,14.0271926 C67.3635143,13.9087726 67.124709,13.8080005 66.8564361,13.7256437 C66.5881631,13.6432868 66.3156469,13.5535127 66.0384158,13.4563213 C65.7611847,13.3593857 65.4886685,13.2430119 65.2203955,13.1071998 C64.9521226,12.9713876 64.7126101,12.7941413 64.5030366,12.5759723 C64.2927559,12.3575475 64.1239655,12.0849002 63.9964298,11.7575188 C63.8688941,11.4298817 63.8052441,11.0262818 63.8052441,10.5462077 C63.8052441,10.1630692 63.8757305,9.78939402 64.0164677,9.42569376 C64.1574407,9.06173774 64.3630066,8.73947168 64.6334012,8.4581283 C64.9040315,8.17678493 65.2359544,7.95145446 65.6291699,7.78162536 C66.0223854,7.61179627 66.471943,7.52688172 66.9771353,7.52688172 C67.549278,7.52688172 68.0768657,7.6238173 68.5596627,7.81794423 C68.9363763,7.96935813 69.2699494,8.16808886 69.5596748,8.41413643 C69.6987618,8.53204488 69.7416666,8.74049475 69.6603361,8.91057961 L69.3510442,9.55664632 Z" id="Fill-12"></path>
                    <path d="M79.7713511,12.9032258 C79.7713511,12.3259741 79.6939973,11.8085703 79.5403212,11.3499915 C79.3861293,10.8916685 79.1646397,10.5024008 78.8761102,10.1824443 C78.5878385,9.86223198 78.2371682,9.61746906 77.8235834,9.44738825 C77.4107722,9.27781896 76.9451026,9.19290643 76.4265745,9.19290643 C75.9083043,9.19290643 75.4413455,9.27781896 75.0259558,9.44738825 C74.6100504,9.61746906 74.2568016,9.86223198 73.9659515,10.1824443 C73.6748435,10.5024008 73.4510333,10.8916685 73.2947787,11.3499915 C73.1380084,11.8085703 73.0603968,12.3259741 73.0603968,12.9032258 C73.0603968,13.4804775 73.1380084,13.998137 73.2947787,14.4564601 C73.4510333,14.9147831 73.6748435,15.3030277 73.9659515,15.6204267 C74.2568016,15.9380814 74.6100504,16.1818213 75.0259558,16.3513905 C75.4413455,16.5214714 75.9083043,16.6063839 76.4265745,16.6063839 C76.9451026,16.6063839 77.4107722,16.5214714 77.8235834,16.3513905 C78.2371682,16.1818213 78.5878385,15.9380814 78.8761102,15.6204267 C79.1646397,15.3030277 79.3861293,14.9147831 79.5403212,14.4564601 C79.6939973,13.998137 79.7713511,13.4804775 79.7713511,12.9032258 M81.7956989,12.9032258 C81.7956989,13.6745998 81.6657446,14.3886835 81.4068674,15.0457326 C81.1474744,15.7030374 80.7833961,16.271849 80.3138588,16.7519117 C79.8445793,17.2319744 79.2798968,17.6066637 78.6198114,17.8757239 C77.9594682,18.1450398 77.228733,18.2795699 76.4265745,18.2795699 C75.6246739,18.2795699 74.8923916,18.1450398 74.2302435,17.8757239 C73.5670639,17.6066637 73.0003187,17.2319744 72.5284608,16.7519117 C72.056345,16.271849 71.6912353,15.7030374 71.4318423,15.0457326 C71.1724494,14.3886835 71.0430108,13.6745998 71.0430108,12.9032258 C71.0430108,12.1321075 71.1724494,11.4177681 71.4318423,10.7607191 C71.6912353,10.10367 72.056345,9.53485838 72.5284608,9.05453993 C73.0003187,8.57447724 73.5670639,8.19978792 74.2302435,7.93072775 C74.8923916,7.66141181 75.6246739,7.52688172 76.4265745,7.52688172 C77.228733,7.52688172 77.9594682,7.66269061 78.6198114,7.9343084 C79.2798968,8.20592618 79.8445793,8.58061549 80.3138588,9.05837634 C80.7833961,9.53613719 81.1474744,10.10367 81.4068674,10.7607191 C81.6657446,11.4177681 81.7956989,12.1321075 81.7956989,12.9032258" id="Fill-14"></path>
                    <path d="M89.3225806,7.92947684 L89.3225806,8.71558302 C89.3225806,8.93779461 89.1512373,9.11817814 88.9393584,9.11817814 L85.1712961,9.11817814 C84.9596659,9.11817814 84.7880739,9.29830024 84.7880739,9.52077325 L84.7880739,11.8981759 C84.7880739,12.1206489 84.9596659,12.3010324 85.1712961,12.3010324 L88.231852,12.3010324 C88.4434822,12.3010324 88.6148256,12.4811545 88.6148256,12.7036275 L88.6148256,13.4970536 C88.6148256,13.7192652 88.4434822,13.8996487 88.231852,13.8996487 L85.1712961,13.8996487 C84.9596659,13.8996487 84.7880739,14.0797708 84.7880739,14.3025053 L84.7880739,17.8769748 C84.7880739,18.0991864 84.6164818,18.2795699 84.4051003,18.2795699 L83.25419,18.2795699 C83.0423111,18.2795699 82.8709677,18.0991864 82.8709677,17.8769748 L82.8709677,7.92947684 C82.8709677,7.70700382 83.0423111,7.52688172 83.25419,7.52688172 L88.9393584,7.52688172 C89.1512373,7.52688172 89.3225806,7.70700382 89.3225806,7.92947684" id="Fill-16"></path>
                    <path d="M99,7.92947684 L99,8.76734525 C99,8.99007969 98.8402138,9.17020179 98.6428581,9.17020179 L96.4874835,9.17020179 C96.2901278,9.17020179 96.1303416,9.35058532 96.1303416,9.57279691 L96.1303416,17.8769748 C96.1303416,18.0991864 95.9705553,18.2795699 95.7731996,18.2795699 L94.7131375,18.2795699 C94.5157818,18.2795699 94.3559956,18.0991864 94.3559956,17.8769748 L94.3559956,9.57279691 C94.3559956,9.35058532 94.1959775,9.17020179 93.9988537,9.17020179 L91.8302602,9.17020179 C91.6329045,9.17020179 91.4731183,8.99007969 91.4731183,8.76734525 L91.4731183,7.92947684 C91.4731183,7.70700382 91.6329045,7.52688172 91.8302602,7.52688172 L98.6428581,7.52688172 C98.8402138,7.52688172 99,7.70700382 99,7.92947684" id="Fill-18"></path>
                </g>
            </g>
        </g>
    </g>
</svg>