<?xml version="1.0" encoding="UTF-8"?>
<svg width="30px" height="34px" viewBox="0 0 30 34" version="1.1" xmlns="http://www.w3.org/2000/svg" xmlns:xlink="http://www.w3.org/1999/xlink">
    <!-- Generator: Sketch 46.2 (44496) - http://www.bohemiancoding.com/sketch -->
    <title>logo-stone</title>
    <desc>Created with Sketch.</desc>
    <defs></defs>
    <g id="DS_WHY-why" stroke="none" stroke-width="1" fill="none" fill-rule="evenodd">
        <g id="DS-WHY-why-320" transform="translate(-48.000000, -822.000000)" fill-rule="nonzero" fill="#4A4A4A">
            <g id="1" transform="translate(20.000000, 694.000000)">
                <path d="M57.2761595,150.857445 C56.9151527,143.975352 52.5414163,135.667122 46.8694439,131.133577 C44.307684,129.085958 41.6834422,128 39.274416,128 C38.9376836,128.000402 38.6013653,128.022258 38.2677624,128.065419 C34.5535577,128.542979 32.2347832,130.433592 30.7352164,134.169024 C28.2567658,140.370758 28.117917,146.036055 28.006838,149.405141 L28.006838,149.529437 C28.006838,149.817281 28.006838,150.092041 28.006838,150.353718 C27.895759,154.062983 29.1384555,156.954509 31.7002154,158.956334 C34.0897992,160.687277 37.017125,161.629745 40.0311418,161.638519 L40.9267164,161.638519 C43.8425406,161.638519 51.0210222,161.239462 54.8115938,157.530197 C56.6038011,155.738016 57.5002534,153.310893 57.2761595,150.857445 L57.2761595,150.857445 Z M31.3669783,136.609158 C31.5821939,135.954967 31.8251793,135.300775 32.0612222,134.646584 C33.3664007,131.375627 35.2686289,129.825194 38.4413234,129.413053 C38.7128339,129.378278 38.9865239,129.360793 39.2605311,129.360718 C41.3432627,129.360718 43.6342675,130.335463 45.9391571,132.173741 C46.1821425,132.369998 46.4390127,132.579339 46.6889405,132.827932 C46.45984,132.827932 46.2168547,132.827932 45.9599844,132.827932 C43.494741,132.923188 41.0490763,133.28314 38.6704238,133.900806 C36.1205511,134.498226 33.6650482,135.408805 31.3669783,136.609158 L31.3669783,136.609158 Z M30.8532379,138.800699 C30.9157198,138.5979 31.4849998,138.068005 32.88043,137.374562 C34.8438771,136.439706 36.9115403,135.713454 39.0453155,135.209189 C41.3263748,134.585681 43.682897,134.240504 46.0571786,134.182108 C47.3554146,134.182108 47.8899824,134.35874 48.0288312,134.476494 C47.8691551,134.97368 45.3073952,136.681119 39.843696,138.054921 C37.5626946,138.679588 35.2063112,139.026944 32.8318329,139.088543 C32.1568112,139.163052 31.4729841,139.063569 30.8532379,138.800699 Z M50.1115628,143.033317 C47.4810251,144.293085 44.710228,145.273834 41.8500607,145.957552 C38.8552863,146.776783 35.7616495,147.231864 32.6443871,147.311728 C30.6380223,147.311728 29.8188145,146.991175 29.763275,146.775291 C29.7077355,146.559408 30.3394974,145.807088 32.3180924,144.812717 C34.9826663,143.506168 37.8025495,142.502582 40.7184432,141.823063 C43.7132342,141.003903 46.8068614,140.548823 49.9241169,140.468887 C51.9304817,140.468887 52.7496895,140.789441 52.805229,141.005324 C52.8607685,141.221207 52.40951,141.862314 50.1115628,143.033317 L50.1115628,143.033317 Z M29.7146779,144.740756 C29.8534925,143.183628 30.0852742,141.635103 30.4089218,140.10254 C31.1948288,140.374402 32.0301497,140.496696 32.8665451,140.462345 C35.3340913,140.3673 37.7820808,140.007349 40.1630481,139.389471 C42.4441493,138.849104 44.6539965,138.07014 46.7514225,137.067092 C47.679938,136.66339 48.498944,136.066118 49.1465638,135.320401 C50.1779664,136.541136 51.1064567,137.836023 51.9235393,139.193214 C51.2808392,139.095926 50.6305666,139.049969 49.9796564,139.055834 C46.7344122,139.172166 43.5145805,139.644181 40.3852062,140.462345 C36.83762,141.345503 32.0334525,142.980982 29.7146779,144.740756 Z M33.4080553,152.676097 C36.2463187,151.317182 39.2360227,150.259627 42.3221466,149.522895 C45.5447672,148.664869 48.8676659,148.185851 52.2151217,148.096758 C54.4436445,148.096758 55.3461615,148.456563 55.4155859,148.705156 C55.4850103,148.953749 54.8115938,149.771488 52.6386104,150.896697 C49.7621642,152.326844 46.7132738,153.425083 43.5579007,154.167653 C40.3389143,155.018108 37.0207475,155.490524 33.6788104,155.574165 C31.4502876,155.574165 30.5477706,155.21436 30.4783462,154.965767 C30.443634,154.828387 30.8462954,153.98448 33.4080553,152.676097 Z M52.2012368,146.670621 C48.7349237,146.78572 45.2963232,147.297565 41.9611398,148.194887 C38.7665083,148.959654 35.6720027,150.05671 32.7346388,151.465843 C31.6293773,151.978738 30.6227655,152.661951 29.7563326,153.487294 C29.5126117,152.477122 29.4099211,151.441284 29.4508653,150.406053 C29.4508653,150.118209 29.4508653,149.810739 29.4508653,149.477102 L29.4508653,149.477102 C29.4508653,149.104213 29.4508653,148.705156 29.4508653,148.27339 C30.4454155,148.617313 31.502797,148.770773 32.5610778,148.724782 C35.8062676,148.607918 39.0260342,148.135912 42.155528,147.31827 C45.1420559,146.601538 48.0341877,145.572427 50.7780369,144.250113 C51.8086783,143.772347 52.7472803,143.135542 53.5550124,142.366042 C54.2494762,143.873607 54.8068725,145.434004 55.2211976,147.030426 C54.2374534,146.766968 53.2165237,146.647817 52.1942944,146.677163 L52.2012368,146.670621 Z M53.7771704,156.601245 C50.3823179,159.931079 43.6967494,160.290884 40.9753135,160.290884 L40.0797389,160.290884 C38.309417,160.238549 33.9981626,159.793699 31.4364027,156.830212 C32.1790231,156.952094 32.9320095,157.009033 33.6857529,157.000302 C37.1517607,156.88714 40.5903313,156.377496 43.9258499,155.482578 C48.2579316,154.390079 53.5688972,152.525633 55.8043625,150.510724 C55.8043625,150.674272 55.8043625,150.818194 55.8043625,150.962116 C56.0087791,153.027767 55.2717732,155.077928 53.7771704,156.601245 Z" id="logo-stone"></path>
            </g>
        </g>
    </g>
</svg>