<?xml version="1.0" encoding="UTF-8"?>
<svg width="229px" height="60px" viewBox="0 0 229 60" version="1.1" xmlns="http://www.w3.org/2000/svg" xmlns:xlink="http://www.w3.org/1999/xlink">
    <!-- Generator: Sketch 46.2 (44496) - http://www.bohemiancoding.com/sketch -->
    <title>ds-logo-footer-white</title>
    <desc>Created with Sketch.</desc>
    <defs></defs>
    <g id="Symbols" stroke="none" stroke-width="1" fill="none" fill-rule="evenodd">
        <g id="Footer-+1920" transform="translate(-374.000000, -40.000000)" fill-rule="nonzero" fill="#FFFFFF">
            <g id="Footer-1920">
                <g id="ds-logo-footer-white" transform="translate(374.000000, 40.000000)">
                    <path d="M48.3870647,40.3014925 C47.7920398,28.2636816 40.5830846,13.7313433 31.2343284,5.80149254 C27.0119403,2.2199005 22.6865672,0.32039801 18.7159204,0.32039801 C18.1609055,0.321100553 17.6065732,0.359330367 17.0567164,0.434825871 C10.9348259,1.27014925 7.11293532,4.57711443 4.64129353,11.1109453 C0.556218905,21.9587065 0.327363184,31.8681592 0.144278607,37.761194 L0.144278607,37.978607 C0.144278607,38.4820896 0.144278607,38.9626866 0.144278607,39.420398 C-0.0388059701,45.9084577 2.00945274,50.9661692 6.2318408,54.4676617 C10.1704419,57.4953407 14.9953693,59.1438576 19.9631841,59.159204 L21.4393035,59.159204 C26.2452736,59.159204 38.0771144,58.461194 44.3248756,51.9731343 C47.2788585,48.8383408 48.7564246,44.5929397 48.3870647,40.3014925 L48.3870647,40.3014925 Z M5.68258706,15.3791045 C6.03731343,14.2348259 6.43781095,13.0905473 6.82686567,11.9462687 C8.97810945,6.22487562 12.1134328,3.51293532 17.3427861,2.7920398 C17.7902999,2.73121175 18.241406,2.70062829 18.6930348,2.70049751 C22.1258706,2.70049751 25.90199,4.40547264 29.700995,7.62089552 C30.1014925,7.9641791 30.5248756,8.33034826 30.9368159,8.76517413 C30.559204,8.76517413 30.1587065,8.76517413 29.7353234,8.76517413 C25.6720174,8.93179187 21.6409815,9.56140127 17.720398,10.641791 C13.5176028,11.6867681 9.47035133,13.2795077 5.68258706,15.3791045 L5.68258706,15.3791045 Z M4.8358209,19.2124378 C4.93880597,18.8577114 5.87711443,17.9308458 8.17711443,16.7179104 C11.4133412,15.0827082 14.8213406,13.812384 18.3383085,12.9303483 C22.0980354,11.8397408 25.982143,11.2359735 29.8955224,11.1338308 C32.0353234,11.1338308 32.9164179,11.4427861 33.1452736,11.6487562 C32.8820896,12.518408 28.6597015,15.5049751 19.6542289,17.9079602 C15.8945974,19.0005974 12.0107185,19.6081745 8.09701493,19.7159204 C6.98441898,19.8462467 5.85730976,19.6722369 4.8358209,19.2124378 Z M36.5781095,26.6159204 C32.2423593,28.819443 27.6754282,30.5349205 22.961194,31.7308458 C18.0250953,33.1638025 12.9260478,33.9598076 7.7880597,34.0995025 C4.48109453,34.0995025 3.13084577,33.538806 3.03930348,33.161194 C2.94776119,32.7835821 3.98905473,31.4676617 7.25024876,29.7283582 C11.6420986,27.4430077 16.2899353,25.6875851 21.0960199,24.499005 C26.0321459,23.0661707 31.1311776,22.270168 36.2691542,22.1303483 C39.5761194,22.1303483 40.9263682,22.6910448 41.0179104,23.0686567 C41.1094527,23.4462687 40.3656716,24.5676617 36.5781095,26.6159204 L36.5781095,26.6159204 Z M2.95920398,29.6024876 C3.18800331,26.8788364 3.57003458,24.1702346 4.10348259,21.4895522 C5.39884377,21.9650805 6.77565081,22.1789912 8.15422886,22.1189055 C12.2213303,21.9526578 16.2561979,21.3230495 20.180597,20.2422886 C23.940393,19.2971047 27.5827454,17.9345808 31.039801,16.1800995 C32.5702148,15.4739645 33.9201311,14.4292467 34.9875622,13.1248756 C36.6875584,15.2601235 38.2179306,17.5250745 39.5646766,19.899005 C38.5053544,19.7288343 37.4335508,19.648449 36.3606965,19.6587065 C31.0117641,19.8621885 25.7047175,20.6878144 20.5467662,22.1189055 C14.6995025,23.6636816 6.78109453,26.5243781 2.95920398,29.6024876 Z M9.04676617,43.4825871 C13.7248976,41.1056411 18.6526391,39.2558191 23.7393035,37.9671642 C29.0509468,36.4663482 34.5278723,35.6284746 40.0452736,35.4726368 C43.718408,35.4726368 45.2059701,36.10199 45.320398,36.5368159 C45.4348259,36.9716418 44.3248756,38.40199 40.7432836,40.3701493 C36.0022177,42.8716907 30.976923,44.7926749 25.7761194,46.0915423 C20.4704662,47.5791152 15.00134,48.4054414 9.49303483,48.5517413 C5.8199005,48.5517413 4.33233831,47.9223881 4.21791045,47.4875622 C4.16069652,47.2472637 4.82437811,45.7711443 9.04676617,43.4825871 Z M40.0223881,32.9781095 C34.3090817,33.1794359 28.6414521,34.0747293 23.1442786,35.6442786 C17.878768,36.9819707 12.7782886,38.900887 7.93681592,41.3656716 C6.11508274,42.2628022 4.45594768,43.4578435 3.0278607,44.9014925 C2.62615082,43.1345496 2.45689236,41.3227147 2.52437811,39.5119403 C2.52437811,39.0084577 2.52437811,38.4706468 2.52437811,37.8870647 L2.52437811,37.8870647 C2.52437811,37.2348259 2.52437811,36.5368159 2.52437811,35.781592 C4.16363278,36.3831654 5.90644846,36.6515901 7.65074627,36.5711443 C12.999589,36.3667323 18.3065283,35.5411231 23.4646766,34.1109453 C28.3871831,32.8572731 33.1541024,31.0572045 37.6766169,28.7442786 C39.3753585,27.9085954 40.9223972,26.7947276 42.2537313,25.4487562 C43.3983726,28.085714 44.317094,30.8150821 45,33.6074627 C43.378556,33.1466344 41.6958217,32.9382224 40.0109453,32.9895522 L40.0223881,32.9781095 Z M42.6199005,50.3482587 C37.0243781,56.1726368 26.0049751,56.80199 21.519403,56.80199 L20.0432836,56.80199 C17.1253731,56.7104478 10.019403,55.9323383 5.79701493,50.7487562 C7.02102941,50.9619465 8.26212971,51.061541 9.50447761,51.0462687 C15.2172809,50.8483313 20.8848609,49.9568882 26.3825871,48.3915423 C33.5228856,46.480597 42.2766169,43.219403 45.961194,39.6950249 C45.961194,39.9810945 45.961194,40.2328358 45.961194,40.4845771 C46.2981211,44.0977097 45.0833606,47.6837491 42.6199005,50.3482587 Z" id="sign"></path>
                    <g id="logo" transform="translate(56.213930, 14.731343)">
                        <path d="M21.6154229,12.2164179 C21.6342583,13.8554552 21.3390587,15.4829374 20.7457711,17.0109453 C19.6458263,19.8725401 17.3770754,22.1288025 14.5094527,23.2129353 C12.9425267,23.8094642 11.2769887,24.1045245 9.60049751,24.0825871 L0.549253731,24.0825871 L0.549253731,0.361691542 L9.60049751,0.361691542 C11.2779281,0.340906742 12.9439564,0.639937461 14.5094527,1.24278607 C15.9295031,1.78615982 17.2226261,2.61578389 18.3084577,3.6800995 C19.3754868,4.74836724 20.2093061,6.02637065 20.7572139,7.43333333 C21.345158,8.95852566 21.6364443,10.5819614 21.6154229,12.2164179 Z M17.1069652,12.2164179 C17.1236402,11.0283583 16.9458359,9.8455731 16.580597,8.71492537 C16.2690155,7.74898506 15.762742,6.85716488 15.0930348,6.09452736 C14.4415042,5.37466163 13.6356881,4.81137271 12.7358209,4.44676617 C11.7424717,4.05182479 10.6807826,3.85737624 9.6119403,3.87462687 L5.03482587,3.87462687 L5.03482587,20.5696517 L9.6119403,20.5696517 C10.6808076,20.587205 11.7425556,20.3927457 12.7358209,19.9975124 C13.6358781,19.6332558 14.4417675,19.0699156 15.0930348,18.3497512 C15.762742,17.5871137 16.2690155,16.6952935 16.580597,15.7293532 C16.9431934,14.5944135 17.1171451,13.4076764 17.0955224,12.2164179 L17.1069652,12.2164179 Z" id="Shape"></path>
                        <path d="M41.8233831,0.361691542 L41.8233831,1.98656716 C41.8263476,2.47685695 41.6785467,2.95621101 41.4,3.35970149 L29.2248756,20.5238806 L41.5258706,20.5238806 L41.5258706,24.0482587 L23.4920398,24.0482587 L23.4920398,22.3432836 C23.4917245,22.1282979 23.5304976,21.915046 23.6064677,21.7139303 C23.6826549,21.5157133 23.7825521,21.3274456 23.9039801,21.1532338 L36.1134328,3.87462687 L24.2701493,3.87462687 L24.2701493,0.361691542 L41.8233831,0.361691542 Z" id="Shape"></path>
                        <polygon id="Shape" points="60.9328358 0.361691542 60.9328358 3.87462687 50.4169154 3.87462687 50.4169154 10.4427861 58.7014925 10.4427861 58.7014925 13.8756219 50.4169154 13.8756219 50.4169154 20.5810945 60.9328358 20.5810945 60.9328358 24.1054726 45.9656716 24.1054726 45.9656716 0.361691542"></polygon>
                        <path d="M68.4049751,0.384577114 C68.5280142,0.399468724 68.6478168,0.434250129 68.7597015,0.487562189 C68.873507,0.54328764 68.9777808,0.616665477 69.0686567,0.704975124 C69.1879232,0.818901147 69.2988241,0.941274514 69.4004975,1.07114428 L81.8502488,16.9308458 C81.8044776,16.5494196 81.7739635,16.1679934 81.7587065,15.7865672 C81.7434494,15.405141 81.7434494,15.0618574 81.7587065,14.7567164 L81.7587065,0.361691542 L85.6492537,0.361691542 L85.6492537,24.0825871 L83.3606965,24.0825871 C83.0625516,24.0938938 82.7655907,24.0391904 82.4910448,23.9223881 C82.2223429,23.7798966 81.991039,23.5760356 81.8159204,23.3273632 L69.4119403,7.53631841 C69.4119403,7.88723051 69.4348259,8.23432836 69.480597,8.57761194 C69.480597,8.92089552 69.480597,9.24129353 69.480597,9.5159204 L69.480597,24.0825871 L65.5900498,24.0825871 L65.5900498,0.361691542 L67.878607,0.361691542 L68.4049751,0.384577114 Z" id="Shape"></path>
                        <path d="M103.969154,4.72139303 C103.876598,4.9247007 103.730186,5.09881301 103.545771,5.22487562 C103.376492,5.32599254 103.182216,5.37753496 102.985075,5.37363184 C102.718632,5.36014747 102.461155,5.27300149 102.241294,5.12189055 L101.268657,4.56119403 C100.851286,4.33604826 100.414746,4.14841243 99.9641791,4.00049751 C99.3944241,3.82112359 98.7991796,3.73608866 98.20199,3.74875622 C97.659909,3.73699619 97.1193394,3.81035922 96.6,3.96616915 C96.1826877,4.09735047 95.7942936,4.3070833 95.4557214,4.5840796 C95.1510151,4.83619868 94.9115809,5.15806104 94.7577114,5.52238806 C94.6021217,5.90363307 94.524312,6.31213398 94.5288557,6.7238806 C94.5110451,7.23067712 94.6777476,7.72671865 94.99801,8.1199005 C95.3418866,8.51637282 95.7622108,8.83939971 96.2338308,9.06965174 C96.7968622,9.35398441 97.3824391,9.59127702 97.9845771,9.77910448 L99.9985075,10.4427861 C100.684765,10.6793523 101.357142,10.9544155 102.012438,11.2666667 C102.650347,11.5576922 103.240597,11.9434768 103.763184,12.4109453 C104.288874,12.9053026 104.70923,13.5008059 104.999005,14.1616915 C105.331186,14.9543366 105.491104,15.808532 105.468159,16.6676617 C105.475914,17.6964233 105.289573,18.7174185 104.918905,19.6771144 C104.564547,20.5977063 104.018474,21.432419 103.316915,22.1258706 C102.563039,22.8373019 101.671173,23.3864419 100.696517,23.7393035 C99.5806746,24.1543772 98.3968089,24.3562166 97.2064677,24.3343284 C96.4381956,24.3401258 95.6713475,24.2672753 94.9179104,24.1169154 C94.1980017,23.9732243 93.4931084,23.7625225 92.8124378,23.4875622 C92.1527052,23.221444 91.5203827,22.8918698 90.9243781,22.5034826 C90.3566431,22.1347435 89.8309608,21.7049887 89.3567164,21.2218905 L90.6383085,19.1049751 C90.7585884,18.9501161 90.9059049,18.8183065 91.0731343,18.7159204 C91.2414716,18.6113565 91.4356617,18.5558736 91.6338308,18.5557214 C91.9545924,18.5734436 92.2621658,18.6892829 92.5149254,18.8875622 C92.8276949,19.1087894 93.2091211,19.3567164 93.659204,19.6313433 C94.1406957,19.9289166 94.6504818,20.1780602 95.1810945,20.3751244 C95.8569143,20.6127956 96.5704068,20.7252482 97.2865672,20.7069652 C98.3353339,20.7737997 99.372562,20.4565299 100.204478,19.8144279 C100.917358,19.1594886 101.295898,18.2173458 101.234328,17.2512438 C101.257338,16.7051251 101.091675,16.167728 100.765174,15.7293532 C100.4284,15.3137221 100.007159,14.9743891 99.5293532,14.7338308 C98.9700478,14.4502884 98.3834755,14.2240938 97.778607,14.0587065 C97.1225539,13.8756219 96.455058,13.673466 95.7761194,13.4522388 C95.1138061,13.2512237 94.4642048,13.0104891 93.8308458,12.7313433 C93.1891231,12.447288 92.5978327,12.0608237 92.0800995,11.5870647 C91.5461402,11.0642479 91.1254763,10.4371472 90.8442786,9.74477612 C90.507645,8.87341998 90.3481503,7.94368261 90.3751244,7.00995025 C90.380927,5.23174052 91.1125052,3.53299105 92.4004975,2.30696517 C93.1068242,1.6467617 93.9345642,1.12990992 94.8378109,0.785074627 C95.8901561,0.387319415 97.0085007,0.19316237 98.1333333,0.212935323 C99.451108,0.198295386 100.760902,0.419177745 102.000995,0.865174129 C103.123147,1.26664926 104.151221,1.89361873 105.021891,2.70746269 L103.969154,4.72139303 Z" id="Shape"></path>
                        <path d="M132.461692,12.2164179 C132.477106,13.866323 132.182095,15.5044105 131.59204,17.0452736 C131.0419,18.478123 130.209127,19.7856545 129.143284,20.8900498 C128.069982,21.9867659 126.780089,22.8479939 125.355721,23.4189055 C122.194919,24.628854 118.698613,24.628854 115.537811,23.4189055 C114.106203,22.8490001 112.808629,21.9878473 111.727363,20.8900498 C110.660033,19.7868266 109.827056,18.4789745 109.278607,17.0452736 C108.120496,13.9301932 108.120496,10.5026426 109.278607,7.38756219 C109.836208,5.96598102 110.672704,4.67038473 111.738806,3.57711443 C112.823493,2.46431027 114.129332,1.59115223 115.572139,1.01393035 C117.132774,0.390445019 118.800634,0.0794221704 120.481095,0.0985074627 C122.161892,0.0755106089 123.830511,0.386674928 125.39005,1.01393035 C126.806904,1.60210405 128.088163,2.47445061 129.154726,3.57711443 C130.21432,4.67108588 131.043178,5.96690608 131.59204,7.38756219 C132.182095,8.92842529 132.477106,10.5665129 132.461692,12.2164179 Z M127.884577,12.2164179 C127.901912,11.0291861 127.728047,9.84690264 127.369652,8.71492537 C127.060097,7.74466678 126.553687,6.84871016 125.88209,6.08308458 C125.249495,5.36459439 124.463442,4.79754065 123.58209,4.4238806 C121.566006,3.65782533 119.33897,3.65782533 117.322886,4.4238806 C116.417986,4.79064755 115.608103,5.35795739 114.954229,6.08308458 C114.278802,6.84788308 113.768489,7.74385197 113.455224,8.71492537 C113.089583,9.84547848 112.911768,11.0283304 112.928856,12.2164179 C112.911768,13.4045054 113.089583,14.5873573 113.455224,15.7179104 C113.767793,16.6858664 114.278271,17.57823 114.954229,18.3383085 C115.61009,19.058393 116.41966,19.6215723 117.322886,19.9860697 C119.33897,20.7521249 121.566006,20.7521249 123.58209,19.9860697 C124.482337,19.6221643 125.288301,19.0587725 125.939303,18.3383085 C126.611706,17.5775922 127.118315,16.6851803 127.426866,15.7179104 C127.785261,14.5859332 127.959126,13.4036497 127.941791,12.2164179 L127.884577,12.2164179 Z" id="Shape"></path>
                        <polygon id="Shape" points="151.754229 0.361691542 151.754229 3.87462687 141.238308 3.87462687 141.238308 10.9004975 150.11791 10.9004975 150.11791 14.4248756 141.238308 14.4248756 141.238308 24.0825871 136.787065 24.0825871 136.787065 0.361691542"></polygon>
                        <polygon id="Shape" points="172.78607 0.361691542 172.78607 3.98905473 165.645771 3.98905473 165.645771 24.0825871 161.228856 24.0825871 161.228856 3.98905473 154.065672 3.98905473 154.065672 0.361691542"></polygon>
                    </g>
                    <g id="status" transform="translate(56.213930, 45.771144)">
                        <path d="M0.938308458,2.20845771 L1.57910448,2.20845771 C1.63120676,2.19181078 1.6872012,2.19181078 1.73930348,2.20845771 C1.78048952,2.23667876 1.81235388,2.27650921 1.83084577,2.32288557 L2.7119403,5.29800995 L2.78059701,5.61840796 C2.78059701,5.72139303 2.78059701,5.82437811 2.78059701,5.92736318 C2.78059701,5.82437811 2.78059701,5.72139303 2.86069652,5.61840796 L2.95223881,5.29800995 L3.92487562,2.3 C3.93965649,2.25476775 3.96753425,2.21494238 4.00497512,2.18557214 C4.05301804,2.16808102 4.10568842,2.16808102 4.15373134,2.18557214 L4.57711443,2.18557214 C4.62545166,2.16983794 4.67753342,2.16983794 4.72587065,2.18557214 C4.76331153,2.21494238 4.79118929,2.25476775 4.80597015,2.3 L5.72139303,5.35522388 C5.72139303,5.46202322 5.75190713,5.56882255 5.81293532,5.67562189 L5.89303483,5.98457711 C5.89303483,5.88159204 5.89303483,5.77860697 5.95024876,5.6641791 C6.00746269,5.54975124 5.95024876,5.44676617 6.03034826,5.35522388 L6.93432836,2.3800995 C6.95003373,2.32914899 6.98223776,2.28486845 7.02587065,2.25422886 C7.07420788,2.23849465 7.12628963,2.23849465 7.17462687,2.25422886 L7.78109453,2.25422886 L6.28208955,6.83134328 L5.72139303,6.83134328 C5.64510779,6.83134328 5.59170813,6.77794362 5.56119403,6.67114428 L4.54278607,3.5358209 C4.51904617,3.46465958 4.49993495,3.39203694 4.48557214,3.31840796 L4.48557214,3.10099502 L4.48557214,3.31840796 C4.47111764,3.39201592 4.45200795,3.46463274 4.42835821,3.5358209 L3.39850746,6.67114428 C3.38251723,6.7608253 3.30643286,6.82739912 3.21542289,6.83134328 L2.60895522,6.83134328 L0.938308458,2.20845771 Z" id="Shape"></path>
                        <path d="M17.0497512,2.139801 C17.3117139,2.13639731 17.5719209,2.18300154 17.8164179,2.27711443 C18.0448438,2.36579358 18.2516347,2.5023536 18.4228856,2.67761194 C18.600846,2.86438047 18.7373271,3.08664963 18.8233831,3.32985075 C18.9253535,3.61226536 18.9757397,3.91070701 18.9721393,4.21094527 C18.9920553,4.29367733 18.9920553,4.37995451 18.9721393,4.46268657 C18.9351958,4.51299852 18.8738514,4.53928896 18.8119403,4.53134328 L15.6880597,4.53134328 C15.6871157,4.79122201 15.7256995,5.04973303 15.8024876,5.29800995 C15.8649195,5.4952758 15.9660625,5.67811129 16.1,5.8358209 C16.2252744,5.97710284 16.3820842,6.08686967 16.5577114,6.15621891 C16.7474263,6.2290691 16.949573,6.26405603 17.1527363,6.25920398 C17.3306814,6.26356739 17.5082322,6.24040858 17.6791045,6.19054726 C17.8088234,6.15134884 17.9351158,6.10159729 18.0567164,6.04179104 L18.3199005,5.89303483 C18.3732914,5.85344887 18.4367299,5.8296594 18.5029851,5.82437811 C18.5666912,5.82135262 18.6273808,5.85169746 18.6631841,5.90447761 L18.8920398,6.20199005 C18.7911375,6.32654721 18.671463,6.4346403 18.5373134,6.52238806 C18.3968803,6.61082575 18.2472441,6.68372548 18.0910448,6.739801 C17.9310356,6.79609135 17.766389,6.83821027 17.599005,6.86567164 C17.4314676,6.87962858 17.2630597,6.87962858 17.0955224,6.86567164 C16.7942617,6.86934991 16.4951131,6.81495925 16.2144279,6.70547264 C15.949086,6.59885256 15.7106924,6.43471269 15.5164179,6.22487562 C15.31136,6.00018497 15.1554645,5.73516258 15.0587065,5.44676617 C14.9445961,5.10387032 14.8904041,4.74388067 14.8985075,4.38258706 C14.8962457,4.07498733 14.9465549,3.76926219 15.0472637,3.47860697 C15.1379699,3.20862502 15.2819407,2.95959446 15.4706468,2.74626866 C15.6587941,2.53970538 15.8889977,2.37583162 16.1457711,2.26567164 C16.4351269,2.16155451 16.7429589,2.11869184 17.0497512,2.139801 Z M17.0497512,2.73482587 C16.7067052,2.71673191 16.371384,2.84092492 16.1228856,3.07810945 C15.8823749,3.33578417 15.733561,3.66558796 15.6995025,4.01641791 L18.2169154,4.01641791 C18.217698,3.84161397 18.1906601,3.66779898 18.1368159,3.50149254 C18.0899377,3.3497881 18.012,3.20950022 17.9079602,3.08955224 C17.8071038,2.97556435 17.6819804,2.88563196 17.541791,2.82636816 C17.389293,2.76413227 17.2258927,2.73300839 17.061194,2.73482587 L17.0497512,2.73482587 Z" id="Shape"></path>
                        <path d="M26.7074627,6.86567164 L26.7074627,0.102985075 L27.5199005,0.102985075 L27.5199005,2.8721393 C27.7065274,2.6539452 27.9314471,2.47168267 28.1835821,2.33432836 C28.4437858,2.19492807 28.7351876,2.12404654 29.0303483,2.12835821 C29.2795055,2.12807759 29.5256555,2.18277758 29.7512438,2.28855721 C29.968054,2.39018114 30.1566433,2.54340992 30.3004975,2.73482587 C30.4650728,2.95787301 30.5854772,3.21033387 30.6552239,3.47860697 C30.743046,3.81082141 30.7853891,4.15341527 30.7810945,4.49701493 C30.7834366,4.8187088 30.7371426,5.13890896 30.6437811,5.44676617 C30.5636935,5.72460482 30.4316796,5.98474986 30.2547264,6.21343284 C29.9006775,6.6586761 29.3587596,6.91270016 28.7900498,6.9 C28.5278177,6.90784414 28.267908,6.84877376 28.0348259,6.72835821 C27.8196105,6.60909413 27.6323492,6.44524046 27.4855721,6.24776119 L27.4855721,6.67114428 C27.4736018,6.77409157 27.3830202,6.84957619 27.279602,6.84278607 L26.7074627,6.86567164 Z M28.7671642,2.81492537 C28.5219072,2.80910396 28.2799795,2.87256042 28.0691542,2.99800995 C27.8553292,3.13359969 27.6689892,3.30829347 27.5199005,3.51293532 L27.5199005,5.80149254 C27.6413023,5.98135749 27.8067618,6.12711946 28.0004975,6.22487562 C28.1871782,6.3100526 28.3903406,6.35302925 28.5955224,6.35074627 C28.983589,6.37729613 29.3585677,6.20489211 29.5910448,5.89303483 C29.8439985,5.5027205 29.9643804,5.04125634 29.9343284,4.57711443 C29.9386142,4.31548443 29.911725,4.05427505 29.8542289,3.79900498 C29.8131326,3.60671915 29.7354361,3.42413233 29.6253731,3.26119403 C29.5333252,3.12715058 29.4068259,3.02041683 29.259204,2.95223881 C29.1092552,2.86070179 28.9415131,2.80218712 28.7671642,2.78059701 L28.7671642,2.81492537 Z" id="Shape"></path>
                        <path d="M50.1651741,6.86567164 C50.0593075,6.8730089 49.965194,6.79870878 49.9477612,6.69402985 L49.8791045,6.13333333 C49.6918961,6.36775204 49.4630191,6.5655949 49.2039801,6.71691542 C48.9380716,6.86412609 48.6382291,6.9390867 48.3343284,6.93432836 C48.0859231,6.93934328 47.8395628,6.88850702 47.6134328,6.78557214 C47.397114,6.68316663 47.2086978,6.53007844 47.0641791,6.33930348 C46.8991135,6.11655082 46.778662,5.86399116 46.7094527,5.59552239 C46.6180442,5.26378246 46.5718557,4.92121734 46.5721393,4.57711443 C46.5697972,4.25542055 46.6160912,3.9352204 46.7094527,3.62736318 C46.7895403,3.34952453 46.9215542,3.08937949 47.0985075,2.86069652 C47.4490583,2.40971876 47.9921075,2.15092187 48.5631841,2.16268657 C48.8115536,2.15805944 49.057829,2.20887819 49.2840796,2.31144279 C49.4876304,2.40879419 49.6702947,2.54482082 49.8218905,2.7119403 L49.8218905,0.102985075 L50.6343284,0.102985075 L50.6343284,6.86567164 L50.1651741,6.86567164 Z M48.5860697,6.27064677 C48.8313266,6.27646818 49.0732544,6.21301172 49.2840796,6.08756219 C49.4980739,5.95219112 49.684452,5.77746172 49.8333333,5.57263682 L49.8333333,3.2840796 C49.7083701,3.10306614 49.5389216,2.95726167 49.3412935,2.86069652 C49.1544958,2.77587525 48.9514134,2.73291551 48.7462687,2.73482587 C48.3582021,2.70827601 47.9832234,2.88068002 47.7507463,3.19253731 C47.4977926,3.58285164 47.3774106,4.0443158 47.4074627,4.50845771 C47.4034995,4.77007369 47.4303848,5.03124508 47.4875622,5.28656716 C47.5289538,5.47521619 47.6066857,5.65399961 47.7164179,5.81293532 C47.8080367,5.94736675 47.9346549,6.05420092 48.0825871,6.12189055 C48.2396137,6.19901095 48.4112248,6.24191372 48.5860697,6.24776119 L48.5860697,6.27064677 Z" id="Shape"></path>
                        <path d="M60.5208955,2.139801 C60.7828582,2.13639731 61.0430651,2.18300154 61.2875622,2.27711443 C61.515988,2.36579358 61.7227789,2.5023536 61.8940299,2.67761194 C62.0719903,2.86438047 62.2084714,3.08664963 62.2945274,3.32985075 C62.3964978,3.61226536 62.446884,3.91070701 62.4432836,4.21094527 C62.4631995,4.29367733 62.4631995,4.37995451 62.4432836,4.46268657 C62.40634,4.51299852 62.3449957,4.53928896 62.2830846,4.53134328 L59.2049751,4.53134328 C59.2040311,4.79122201 59.2426149,5.04973303 59.319403,5.29800995 C59.3818349,5.4952758 59.482978,5.67811129 59.6169154,5.8358209 C59.7421898,5.97710284 59.8989996,6.08686967 60.0746269,6.15621891 C60.2643417,6.2290691 60.4664884,6.26405603 60.6696517,6.25920398 C60.8475968,6.26356739 61.0251476,6.24040858 61.1960199,6.19054726 C61.3257388,6.15134884 61.4520312,6.10159729 61.5736318,6.04179104 L61.8368159,5.89303483 C61.8902068,5.85344887 61.9536454,5.8296594 62.0199005,5.82437811 C62.0836066,5.82135262 62.1442962,5.85169746 62.1800995,5.90447761 L62.4089552,6.20199005 C62.3080529,6.32654721 62.1883784,6.4346403 62.0542289,6.52238806 C61.9137958,6.61082575 61.7641595,6.68372548 61.6079602,6.739801 C61.4479511,6.79609135 61.2833044,6.83821027 61.1159204,6.86567164 C60.948383,6.87962858 60.7799752,6.87962858 60.6124378,6.86567164 C60.3111771,6.86934991 60.0120285,6.81495925 59.7313433,6.70547264 C59.4660014,6.59885256 59.2276078,6.43471269 59.0333333,6.22487562 C58.8282755,6.00018497 58.67238,5.73516258 58.5756219,5.44676617 C58.4615116,5.10387032 58.4073196,4.74388067 58.4154229,4.38258706 C58.4131611,4.07498733 58.4634703,3.76926219 58.5641791,3.47860697 C58.6548853,3.20862502 58.7988561,2.95959446 58.9875622,2.74626866 C59.1757095,2.53970538 59.4059131,2.37583162 59.6626866,2.26567164 C59.9376964,2.16769067 60.2293322,2.12491742 60.5208955,2.139801 L60.5208955,2.139801 Z M60.5208955,2.73482587 C60.1778495,2.71673191 59.8425283,2.84092492 59.5940299,3.07810945 C59.3535192,3.33578417 59.2047053,3.66558796 59.1706468,4.01641791 L61.6880597,4.01641791 C61.6888423,3.84161397 61.6618044,3.66779898 61.6079602,3.50149254 C61.561082,3.3497881 61.4831443,3.20950022 61.3791045,3.08955224 C61.278248,2.97556435 61.1531247,2.88563196 61.0129353,2.82636816 C60.8639983,2.7656127 60.7046331,2.73451704 60.5437811,2.73482587 L60.5208955,2.73482587 Z" id="Shape"></path>
                        <path d="M69.4577114,2.20845771 L70.121393,2.20845771 C70.1733681,2.19101362 70.229617,2.19101362 70.281592,2.20845771 C70.3215236,2.23800541 70.3530728,2.27744191 70.3731343,2.32288557 L71.5174129,5.29800995 C71.5601006,5.40585407 71.5945282,5.51678729 71.620398,5.62985075 L71.6890547,5.95024876 L71.7691542,5.62985075 C71.7964142,5.51716609 71.8308119,5.40632886 71.8721393,5.29800995 L73.0164179,2.32288557 C73.0341558,2.27297903 73.0659467,2.22926646 73.1079602,2.19701493 C73.1562974,2.18128072 73.2083792,2.18128072 73.2567164,2.19701493 L73.8860697,2.19701493 L72.0895522,6.86567164 L71.3572139,6.86567164 L69.4577114,2.20845771 Z" id="Shape"></path>
                        <path d="M83.1089552,2.139801 C83.3709179,2.13639731 83.6311249,2.18300154 83.8756219,2.27711443 C84.1040477,2.36579358 84.3108386,2.5023536 84.4820896,2.67761194 C84.66005,2.86438047 84.7965311,3.08664963 84.8825871,3.32985075 C84.9845575,3.61226536 85.0349437,3.91070701 85.0313433,4.21094527 C85.0512592,4.29367733 85.0512592,4.37995451 85.0313433,4.46268657 C84.9943997,4.51299852 84.9330554,4.53928896 84.8711443,4.53134328 L81.7930348,4.53134328 C81.7920908,4.79122201 81.8306746,5.04973303 81.9074627,5.29800995 C81.9698946,5.4952758 82.0710377,5.67811129 82.2049751,5.8358209 C82.3302495,5.97710284 82.4870593,6.08686967 82.6626866,6.15621891 C82.8524014,6.2290691 83.0545481,6.26405603 83.2577114,6.25920398 C83.4356565,6.26356739 83.6132073,6.24040858 83.7840796,6.19054726 C83.9137985,6.15134884 84.0400909,6.10159729 84.1616915,6.04179104 L84.4248756,5.89303483 C84.4782665,5.85344887 84.5417051,5.8296594 84.6079602,5.82437811 C84.6716663,5.82135262 84.7323559,5.85169746 84.7681592,5.90447761 L84.9970149,6.20199005 C84.8961126,6.32654721 84.7764381,6.4346403 84.6422886,6.52238806 C84.5018555,6.61082575 84.3522192,6.68372548 84.1960199,6.739801 C84.0360108,6.79609135 83.8713641,6.83821027 83.7039801,6.86567164 C83.5364427,6.87962858 83.3680349,6.87962858 83.2004975,6.86567164 C82.8992368,6.86934991 82.6000882,6.81495925 82.319403,6.70547264 C82.0540611,6.59885256 81.8156675,6.43471269 81.621393,6.22487562 C81.4163352,6.00018497 81.2604397,5.73516258 81.1636816,5.44676617 C81.0495713,5.10387032 80.9953793,4.74388067 81.0034826,4.38258706 C81.0012209,4.07498733 81.05153,3.76926219 81.1522388,3.47860697 C81.242945,3.20862502 81.3869158,2.95959446 81.5756219,2.74626866 C81.7637692,2.53970538 81.9939728,2.37583162 82.2507463,2.26567164 C82.5257561,2.16769067 82.8173919,2.12491742 83.1089552,2.139801 L83.1089552,2.139801 Z M83.1089552,2.73482587 C82.7659092,2.71673191 82.430588,2.84092492 82.1820896,3.07810945 C81.9415789,3.33578417 81.792765,3.66558796 81.7587065,4.01641791 L84.2761194,4.01641791 C84.276902,3.84161397 84.2498641,3.66779898 84.1960199,3.50149254 C84.1491417,3.3497881 84.071204,3.20950022 83.9671642,3.08955224 C83.8663077,2.97556435 83.7411844,2.88563196 83.600995,2.82636816 C83.448497,2.76413227 83.2850967,2.73300839 83.120398,2.73482587 L83.1089552,2.73482587 Z" id="Shape"></path>
                        <polygon id="Shape" points="93.6477612 0.102985075 93.6477612 6.86567164 92.8353234 6.86567164 92.8353234 0.102985075"></polygon>
                        <path d="M103.637313,2.139801 C103.950807,2.13586793 104.261962,2.19420951 104.552736,2.31144279 C104.81826,2.41772383 105.056724,2.58191194 105.250746,2.7920398 C105.446497,3.01090019 105.594576,3.26809026 105.685572,3.54726368 C105.889012,4.18754525 105.889012,4.87514132 105.685572,5.51542289 C105.593148,5.79053535 105.445141,6.0437048 105.250746,6.25920398 C105.057238,6.46992389 104.81863,6.6342112 104.552736,6.739801 C103.962873,6.96305769 103.311754,6.96305769 102.721891,6.739801 C102.456367,6.63351995 102.217903,6.46933184 102.023881,6.25920398 C101.825646,6.04453881 101.673735,5.79135483 101.577612,5.51542289 C101.371891,4.87549693 101.371891,4.18718963 101.577612,3.54726368 C101.672313,3.26726529 101.824297,3.01006181 102.023881,2.7920398 C102.218404,2.58249013 102.456728,2.41839762 102.721891,2.31144279 C103.012665,2.19420951 103.32382,2.13586793 103.637313,2.139801 L103.637313,2.139801 Z M103.637313,6.27064677 C104.033234,6.30528701 104.418774,6.1320109 104.655721,5.81293532 C105.106397,5.01389277 105.106397,4.03735101 104.655721,3.23830846 C104.418774,2.91923288 104.033234,2.74595677 103.637313,2.78059701 C103.42921,2.77378015 103.222157,2.81284678 103.030846,2.89502488 C102.864127,2.9736792 102.718879,3.09144797 102.607463,3.23830846 C102.487414,3.40257 102.401787,3.58939161 102.355721,3.78756219 C102.242901,4.27313486 102.242901,4.77810893 102.355721,5.26368159 C102.401179,5.46205935 102.48686,5.64899929 102.607463,5.81293532 C102.718879,5.95979581 102.864127,6.07756458 103.030846,6.15621891 C103.222157,6.238397 103.42921,6.27746363 103.637313,6.27064677 Z" id="Shape"></path>
                        <path d="M113.523881,8.39900498 L113.523881,2.20845771 L114.004478,2.20845771 C114.110344,2.20112045 114.204458,2.27542057 114.221891,2.3800995 L114.290547,2.92935323 C114.478317,2.69547482 114.707086,2.49772494 114.965672,2.34577114 C115.234752,2.19608761 115.538942,2.12102753 115.846766,2.12835821 C116.095136,2.12373108 116.341411,2.17454983 116.567662,2.27711443 C116.785234,2.38276381 116.973764,2.53987187 117.116915,2.73482587 C117.281735,2.95772664 117.402162,3.2102365 117.471642,3.47860697 C117.559464,3.81082141 117.601807,4.15341527 117.597512,4.49701493 C117.599855,4.8187088 117.553561,5.13890896 117.460199,5.44676617 C117.380111,5.72460482 117.248097,5.98474986 117.071144,6.21343284 C116.703912,6.65723039 116.147181,6.8994722 115.572139,6.86567164 C115.320945,6.87370559 115.071022,6.82684504 114.839801,6.72835821 C114.635142,6.63285308 114.452135,6.49657126 114.30199,6.3278607 L114.30199,8.3761194 L113.523881,8.39900498 Z M115.583582,2.78059701 C115.338325,2.7747756 115.096397,2.83823206 114.885572,2.96368159 C114.671747,3.09927133 114.485407,3.27396512 114.336318,3.47860697 L114.336318,5.76716418 C114.462405,5.94716478 114.631564,6.09272074 114.828358,6.19054726 C115.015039,6.27572424 115.218201,6.3187009 115.423383,6.31641791 C115.807502,6.33900821 116.177257,6.16702929 116.407463,5.85870647 C116.660416,5.46839214 116.780798,5.00692799 116.750746,4.54278607 C116.755032,4.28115608 116.728143,4.01994669 116.670647,3.76467662 C116.629826,3.57230388 116.552107,3.38966605 116.441791,3.22686567 C116.350172,3.09243425 116.223554,2.98560007 116.075622,2.91791045 C115.919482,2.83682143 115.747828,2.79000661 115.572139,2.78059701 L115.583582,2.78059701 Z" id="Shape"></path>
                        <path d="M125.241294,6.86567164 L125.241294,2.28855721 L125.721891,2.28855721 C125.827757,2.28121996 125.921871,2.35552007 125.939303,2.460199 L125.996517,2.94079602 C126.157879,2.73910733 126.351144,2.56516938 126.568657,2.42587065 C126.787983,2.28844311 127.042187,2.21694834 127.300995,2.2199005 C127.576198,2.2139347 127.844328,2.30737404 128.056219,2.48308458 C128.256456,2.67237398 128.399237,2.91430792 128.468159,3.18109453 C128.52619,3.02263572 128.611377,2.87549506 128.7199,2.74626866 C128.918844,2.5097617 129.187002,2.34166253 129.486567,2.26567164 C129.634774,2.24758802 129.784629,2.24758802 129.932836,2.26567164 C130.155638,2.26082114 130.377229,2.29969687 130.585075,2.3800995 C130.769815,2.45555045 130.934383,2.57309939 131.065672,2.72338308 C131.20585,2.88290687 131.311091,3.07000189 131.374627,3.27263682 C131.446989,3.51379504 131.481725,3.76467077 131.477612,4.01641791 L131.477612,6.86567164 L130.665174,6.86567164 L130.665174,3.89054726 C130.685053,3.59614168 130.59991,3.30422276 130.424876,3.06666667 C130.25239,2.87052328 129.999036,2.76495943 129.738308,2.78059701 C129.609248,2.77961858 129.481153,2.80290852 129.360697,2.84925373 C129.240637,2.89468658 129.131475,2.96486213 129.040299,3.05522388 C128.944467,3.15306855 128.870379,3.27004883 128.822886,3.39850746 C128.767015,3.5524587 128.739865,3.71535468 128.742786,3.87910448 L128.742786,6.86567164 L127.930348,6.86567164 L127.930348,3.89054726 C127.952357,3.59407675 127.871536,3.29907734 127.701493,3.05522388 C127.539576,2.86591498 127.297816,2.76412119 127.049254,2.78059701 C126.850824,2.77886246 126.656119,2.83449256 126.488557,2.94079602 C126.306901,3.06049737 126.148032,3.21161644 126.019403,3.38706468 L126.019403,6.8199005 L125.241294,6.86567164 Z" id="Shape"></path>
                        <path d="M141.249751,2.139801 C141.511714,2.13639731 141.771921,2.18300154 142.016418,2.27711443 C142.244844,2.36579358 142.451635,2.5023536 142.622886,2.67761194 C142.800846,2.86438047 142.937327,3.08664963 143.023383,3.32985075 C143.125353,3.61226536 143.17574,3.91070701 143.172139,4.21094527 C143.192055,4.29367733 143.192055,4.37995451 143.172139,4.46268657 C143.135196,4.51299852 143.073851,4.53928896 143.01194,4.53134328 L139.933831,4.53134328 C139.932887,4.79122201 139.971471,5.04973303 140.048259,5.29800995 C140.110691,5.4952758 140.211834,5.67811129 140.345771,5.8358209 C140.471046,5.97710284 140.627855,6.08686967 140.803483,6.15621891 C140.993197,6.2290691 141.195344,6.26405603 141.398507,6.25920398 C141.576453,6.26356739 141.754003,6.24040858 141.924876,6.19054726 C142.054595,6.15134884 142.180887,6.10159729 142.302488,6.04179104 L142.565672,5.89303483 C142.619063,5.85344887 142.682501,5.8296594 142.748756,5.82437811 C142.812462,5.82135262 142.873152,5.85169746 142.908955,5.90447761 L143.137811,6.20199005 C143.036909,6.32654721 142.917234,6.4346403 142.783085,6.52238806 C142.642651,6.61082575 142.493015,6.68372548 142.336816,6.739801 C142.176807,6.79609135 142.01216,6.83821027 141.844776,6.86567164 C141.677239,6.87962858 141.508831,6.87962858 141.341294,6.86567164 C141.040033,6.86934991 140.740884,6.81495925 140.460199,6.70547264 C140.194857,6.59885256 139.956464,6.43471269 139.762189,6.22487562 C139.557131,6.00018497 139.401236,5.73516258 139.304478,5.44676617 C139.190367,5.10387032 139.136175,4.74388067 139.144279,4.38258706 C139.142017,4.07498733 139.192326,3.76926219 139.293035,3.47860697 C139.383741,3.20862502 139.527712,2.95959446 139.716418,2.74626866 C139.904565,2.53970538 140.134769,2.37583162 140.391542,2.26567164 C140.666552,2.16769067 140.958188,2.12491742 141.249751,2.139801 Z M141.249751,2.73482587 C140.906705,2.71673191 140.571384,2.84092492 140.322886,3.07810945 C140.082375,3.33578417 139.933561,3.66558796 139.899502,4.01641791 L142.416915,4.01641791 C142.417698,3.84161397 142.39066,3.66779898 142.336816,3.50149254 C142.289938,3.3497881 142.212,3.20950022 142.10796,3.08955224 C142.007104,2.97556435 141.88198,2.88563196 141.741791,2.82636816 C141.589293,2.76413227 141.425893,2.73300839 141.261194,2.73482587 L141.249751,2.73482587 Z" id="Shape"></path>
                        <path d="M150.884577,6.86567164 L150.884577,2.28855721 L151.365174,2.28855721 C151.471041,2.28121996 151.565154,2.35552007 151.582587,2.460199 L151.651244,2.96368159 C151.844716,2.74801357 152.072907,2.56623405 152.326368,2.42587065 C152.590154,2.28505117 152.885612,2.2141413 153.184577,2.2199005 C153.412067,2.21622737 153.63791,2.25905969 153.848259,2.34577114 C154.033948,2.42488266 154.198538,2.54636606 154.328856,2.70049751 C154.46361,2.86194519 154.56476,3.0486827 154.626368,3.24975124 C154.696774,3.48349911 154.731493,3.72653527 154.729353,3.97064677 L154.729353,6.86567164 L153.916915,6.86567164 L153.916915,3.89054726 C153.934065,3.59999219 153.849058,3.31258861 153.676617,3.07810945 C153.489914,2.8745794 153.219504,2.7689504 152.944279,2.7920398 C152.708162,2.78975002 152.475507,2.84889945 152.269154,2.96368159 C152.053415,3.08677903 151.859988,3.24538927 151.697015,3.43283582 L151.697015,6.86567164 L150.884577,6.86567164 Z" id="Shape"></path>
                        <path d="M164.032338,6.86567164 C163.719701,6.88287489 163.41367,6.77121502 163.185572,6.55671642 C162.974382,6.31357631 162.867492,5.997018 162.88806,5.67562189 L162.88806,2.89502488 L162.327363,2.89502488 C162.286725,2.90990081 162.242131,2.90990081 162.201493,2.89502488 C162.182387,2.85124756 162.182387,2.80148876 162.201493,2.75771144 L162.201493,2.43731343 L162.956716,2.34577114 L163.139801,0.915422886 C163.143414,0.871332453 163.16391,0.830339394 163.197015,0.800995025 C163.237653,0.786119086 163.282247,0.786119086 163.322886,0.800995025 L163.734826,0.800995025 L163.734826,2.28855721 L165.062189,2.28855721 L165.062189,2.8721393 L163.734826,2.8721393 L163.734826,5.72139303 C163.72104,5.87881837 163.770443,6.03526153 163.872139,6.15621891 C163.969984,6.2506121 164.102523,6.30031449 164.238308,6.29353234 C164.310231,6.30614484 164.383799,6.30614484 164.455721,6.29353234 L164.61592,6.21343284 L164.730348,6.13333333 L164.810448,6.13333333 C164.860335,6.13719035 164.904176,6.16787868 164.924876,6.21343284 L165.165174,6.60248756 C165.019317,6.73760642 164.848218,6.84259901 164.661692,6.91144279 C164.450881,6.93521026 164.237491,6.91969101 164.032338,6.86567164 L164.032338,6.86567164 Z" id="Shape"></path>
                    </g>
                </g>
            </g>
        </g>
    </g>
</svg>