<?xml version="1.0" encoding="UTF-8"?>
<svg width="30px" height="30px" viewBox="0 0 30 30" version="1.1" xmlns="http://www.w3.org/2000/svg" xmlns:xlink="http://www.w3.org/1999/xlink">
    <!-- Generator: Sketch 46.2 (44496) - http://www.bohemiancoding.com/sketch -->
    <title>mail</title>
    <desc>Created with Sketch.</desc>
    <defs></defs>
    <g id="Symbols" stroke="none" stroke-width="1" fill="none" fill-rule="evenodd">
        <g id="Footer-+1920" transform="translate(-744.000000, -155.000000)" fill-rule="nonzero" fill="#FFFFFF">
            <g id="Footer-1920">
                <g id="mail" transform="translate(744.000000, 155.000000)">
                    <path d="M15,0 C6.71572875,-5.07265313e-16 1.01453063e-15,6.71572875 0,15 C-1.01453063e-15,23.2842712 6.71572875,30 15,30 C23.2842712,30 30,23.2842712 30,15 C30,11.0217527 28.4196474,7.20644396 25.6066017,4.39339828 C22.793556,1.58035261 18.9782473,2.43597394e-16 15,0 Z M15,29 C7.2680135,29 1,22.7319865 1,15 C1,7.2680135 7.2680135,1 15,1 C22.7319865,1 29,7.2680135 29,15 C29,22.7319865 22.7319865,29 15,29 Z" id="Shape"></path>
                    <path d="M16.35,17.76 L16.29,17.76 C15.9747489,18.8347957 14.9579719,19.5486147 13.84,19.48 C13.008111,19.4930295 12.21601,19.1246104 11.69,18.48 C11.1093724,17.7040212 10.8224001,16.747447 10.88,15.78 C10.814708,14.4759244 11.2112877,13.1905811 12,12.15 C12.6628279,11.3374525 13.6855592,10.9066317 14.73,11 C15.73,11 16.29,11.19 16.53,12.38 L16.53,12.38 L16.63,11.19 L18.8,11.19 C18.51,14.19 18.37,15.57 18.37,16.42 C18.37,17.27 18.61,17.7 19.1,17.7 C19.59,17.7 20.04,17.32 20.37,16.64 C20.7355572,15.7919534 20.9064106,14.8727619 20.87,13.95 C20.9240308,12.567355 20.4026749,11.2241393 19.43,10.24 C18.3506619,9.23064619 16.9054098,8.70674231 15.43,8.79 C13.699152,8.74633887 12.0322861,9.44511234 10.85,10.71 C9.64052345,11.9677321 8.98196973,13.6555009 9.02,15.4 C8.93802433,16.9726085 9.52675657,18.5062197 10.64,19.62 C11.9466896,20.7040153 13.6148092,21.2541019 15.31,21.16 C16.7458504,21.1765791 18.1694141,20.8939098 19.49,20.33 L19.49,22.2 C18.0618466,22.7030717 16.5536306,22.9403191 15.04,22.9 C12.891377,23.0020225 10.7836832,22.2875501 9.14,20.9 C7.61631213,19.4938628 6.78339974,17.4919505 6.86,15.42 C6.79835589,13.2118512 7.65249994,11.0764911 9.22,9.52 C10.8411047,7.91035282 13.0570823,7.04496286 15.34,7.13 C17.3871695,7.01310338 19.4046365,7.66182953 21,8.95 C22.420384,10.1693555 23.2080704,11.9692555 23.14,13.84 C23.2109052,15.2891717 22.7444294,16.7135254 21.83,17.84 C21.0319268,18.8104244 19.8363404,19.3659122 18.58,19.35 C18.028186,19.4323602 17.4654095,19.3076945 17,19 C16.5918975,18.7193317 16.3486543,18.2552984 16.35,17.76 L16.35,17.76 Z M15.07,12.43 C14.4457312,12.4613675 13.8960351,12.8512229 13.66,13.43 C13.28751,14.1347372 13.1016101,14.9230903 13.12,15.72 C13.0898558,16.226868 13.2192473,16.7304458 13.49,17.16 C13.7069258,17.4990691 14.0878425,17.6971458 14.49,17.68 C15.1242002,17.6639823 15.6873204,17.270192 15.92,16.68 C16.3012324,15.8682005 16.4796763,14.9759813 16.44,14.08 C16.4411843,13.6372994 16.2852701,13.2085354 16,12.87 C15.7736256,12.5887965 15.4309845,12.4266868 15.07,12.43 L15.07,12.43 Z" id="Shape"></path>
                </g>
            </g>
        </g>
    </g>
</svg>