<?xml version="1.0" encoding="UTF-8"?>
<svg width="30px" height="30px" viewBox="0 0 30 30" version="1.1" xmlns="http://www.w3.org/2000/svg" xmlns:xlink="http://www.w3.org/1999/xlink">
    <!-- Generator: Sketch 46.2 (44496) - http://www.bohemiancoding.com/sketch -->
    <title>phone</title>
    <desc>Created with Sketch.</desc>
    <defs></defs>
    <g id="Symbols" stroke="none" stroke-width="1" fill="none" fill-rule="evenodd">
        <g id="Footer-+1920" transform="translate(-744.000000, -225.000000)" fill-rule="nonzero" fill="#FFFFFF">
            <g id="Footer-1920">
                <g id="phone" transform="translate(744.000000, 225.000000)">
                    <path d="M15,0 C6.71572875,-5.07265313e-16 1.01453063e-15,6.71572875 0,15 C-1.01453063e-15,23.2842712 6.71572875,30 15,30 C23.2842712,30 30,23.2842712 30,15 C30,11.0217527 28.4196474,7.20644396 25.6066017,4.39339828 C22.793556,1.58035261 18.9782473,2.43597394e-16 15,0 Z M15,29 C7.2680135,29 1,22.7319865 1,15 C1,7.2680135 7.2680135,1 15,1 C22.7319865,1 29,7.2680135 29,15 C29,22.7319865 22.7319865,29 15,29 Z" id="Shape"></path>
                    <path d="M18.66,16.57 C17.66,17.57 17.66,18.66 16.57,18.66 C15.48,18.66 14.48,17.66 13.43,16.57 C12.38,15.48 11.34,14.48 11.34,13.43 C11.34,12.38 12.34,12.43 13.43,11.34 C14.52,10.25 11.34,7.16 10.3,7.16 C9.26,7.16 7.16,10.3 7.16,10.3 C7.16,12.39 9.31,16.63 11.34,18.66 C13.37,20.69 17.61,22.84 19.7,22.84 C19.7,22.84 22.84,20.75 22.84,19.7 C22.84,18.65 19.7,15.52 18.66,16.57 Z" id="Shape"></path>
                </g>
            </g>
        </g>
    </g>
</svg>