<svg xmlns="http://www.w3.org/2000/svg" width="60" height="45" viewBox="0 0 60 45">
  <path fill="#DCDCDC" fill-rule="evenodd" d="M60,6.94533762 C52.1543016,10.8038778 48.2315113,15.3375945 48.2315113,20.5466238 C51.5755794,20.9324778 54.3408251,22.2990236 56.5273312,24.6463023 C58.7138373,26.9935809 59.807074,29.7105955 59.807074,32.7974277 C59.807074,36.0771868 58.7459913,38.8424325 56.6237942,41.0932476 C54.5015971,43.3440627 51.8328135,44.4694534 48.6173633,44.4694534 C45.0160592,44.4694534 41.8971193,43.0064455 39.2604502,40.0803859 C36.623781,37.1543262 35.3054662,33.6013071 35.3054662,29.4212219 C35.3054662,16.8809662 42.3150424,7.07399035 56.3344051,0 L60,6.94533762 Z M24.6945338,6.94533762 C16.7845264,10.8038778 12.829582,15.3375945 12.829582,20.5466238 C16.2379592,20.9324778 19.0353588,22.2990236 21.221865,24.6463023 C23.4083711,26.9935809 24.5016077,29.7105955 24.5016077,32.7974277 C24.5016077,36.0771868 23.4244481,38.8424325 21.2700965,41.0932476 C19.1157449,43.3440627 16.4308842,44.4694534 13.2154341,44.4694534 C9.6141299,44.4694534 6.51126704,43.0064455 3.90675241,40.0803859 C1.30223778,37.1543262 0,33.6013071 0,29.4212219 C0,16.8809662 6.97742219,7.07399035 20.9324759,0 L24.6945338,6.94533762 Z"/>
</svg>
