<?xml version="1.0" encoding="UTF-8"?>
<svg width="32px" height="38px" viewBox="0 0 32 38" version="1.1" xmlns="http://www.w3.org/2000/svg" xmlns:xlink="http://www.w3.org/1999/xlink">
    <!-- Generator: Sketch 46.2 (44496) - http://www.bohemiancoding.com/sketch -->
    <title>social-github</title>
    <desc>Created with Sketch.</desc>
    <defs></defs>
    <g id="Symbols" stroke="none" stroke-width="1" fill="none" fill-rule="evenodd">
        <g id="Footer-+1920" transform="translate(-375.000000, -161.000000)" fill-rule="nonzero" fill="#FFFFFF">
            <g id="Footer-1920">
                <g id="social-github" transform="translate(375.000000, 161.000000)">
                    <path d="M17.2377358,27.7735849 C21.2686,26.4292622 23.7297327,22.3601715 23.0487698,18.165966 C22.367807,13.9717606 18.7457295,10.8903278 14.4966038,10.8903278 C10.247478,10.8903278 6.62540058,13.9717606 5.94443773,18.165966 C5.26347487,22.3601715 7.72460752,26.4292622 11.7554717,27.7735849 C12.1901887,27.8520755 12.3290566,27.5864151 12.3290566,27.3569811 L12.3290566,25.7267925 C9.91396226,26.2520755 9.41283019,24.7064151 9.41283019,24.7064151 C9.25422903,24.1828369 8.91376096,23.7331621 8.45283019,23.4384906 C7.66792453,22.9011321 8.51320755,22.9132075 8.51320755,22.9132075 C9.0707206,22.9886226 9.5615411,23.3188109 9.84150943,23.8067925 C10.0793658,24.2383415 10.4797584,24.556993 10.9536849,24.6919146 C11.4276114,24.8268363 11.9357987,24.7668475 12.365283,24.525283 C12.4035621,24.0855039 12.5985466,23.674108 12.914717,23.3660377 C10.9886792,23.1486792 8.96603774,22.4 8.96603774,19.085283 C8.95422309,18.2244184 9.27420469,17.3920338 9.85962264,16.7607547 C9.59592141,16.0129136 9.62613521,15.1928246 9.94415094,14.4664151 C9.94415094,14.4664151 10.674717,14.2309434 12.3290566,15.3539623 C13.7499389,14.9648238 15.2493064,14.9648238 16.6701887,15.3539623 C18.3184906,14.2309434 19.0430189,14.490566 19.0430189,14.490566 C19.3616353,15.2168381 19.3918576,16.0371574 19.1275472,16.7849057 C19.7135028,17.4158495 20.0335705,18.2484581 20.0211321,19.109434 C20.0211321,22.4362264 17.9924528,23.1728302 16.0603774,23.3841509 C16.4850526,23.806584 16.7053631,24.39261 16.6641509,24.9901887 L16.6641509,27.3690566 C16.6581132,27.5683019 16.7969811,27.84 17.2377358,27.7735849 Z" id="Shape"></path>
                    <path d="M12.0754717,0.603773585 C14.490566,0.603773585 17.1954717,1.76301887 19.8279245,3.94867925 C25.7992453,8.90566038 30.4,17.9501887 30.7924528,25.4611321 C31.0206016,28.0386452 30.1171809,30.5880545 28.3169811,32.4467925 C24.4166038,36.4015094 16.9056604,36.8301887 13.8867925,36.8301887 L12.9207547,36.8301887 C10.509501,36.7930036 8.14021963,36.1934472 6.00150943,35.0792453 L5.95320755,35.0792453 C5.38525406,34.7691697 4.8457993,34.4095332 4.34113208,34.0045283 C1.74490566,31.8611321 0.49509434,28.8120755 0.603773585,24.8875472 C0.603773585,24.5977358 0.603773585,24.2837736 0.603773585,23.9698113 L0.603773585,23.8369811 C0.724528302,20.1116981 0.869433962,13.8867925 3.48981132,7.07622642 C5.00528302,3.14566038 7.34792453,1.16528302 11.085283,0.670188679 C11.4135452,0.626488156 11.7443139,0.604302448 12.0754717,0.603773585 L12.0754717,0.603773585 Z M12.0754717,4.02194001e-16 C11.7140163,0.000284956933 11.352976,0.0244887799 10.994717,0.0724528302 C7.02188679,0.603773585 4.52830189,2.69283019 2.92830189,6.85886792 C0.265660377,13.7660377 0.120754717,20.0573585 0.0362264151,23.8249057 L0.0362264151,23.9577358 C0.0362264151,24.2777358 0.0362264151,24.5615094 0.0362264151,24.869434 C-0.114716981,28.9811321 1.20754717,32.205283 3.96075472,34.4150943 C4.49361986,34.8430628 5.06340027,35.2229164 5.66339623,35.5501887 L5.66339623,35.5501887 C7.90026491,36.7247429 10.3824452,37.3556304 12.9086792,37.3916981 L13.8867925,37.4339623 C17.0083019,37.4339623 24.7124528,36.9871698 28.7577358,32.869434 C30.6746377,30.8900803 31.6374178,28.1757895 31.3962264,25.4309434 C31.0158491,17.7690566 26.3184906,8.52528302 20.2384906,3.48981132 C17.509434,1.20754717 14.6656604,0 12.0754717,4.02194001e-16 Z" id="Shape"></path>
                </g>
            </g>
        </g>
    </g>
</svg>