<?xml version="1.0" encoding="UTF-8"?>
<svg width="32px" height="38px" viewBox="0 0 32 38" version="1.1" xmlns="http://www.w3.org/2000/svg" xmlns:xlink="http://www.w3.org/1999/xlink">
    <!-- Generator: Sketch 46.2 (44496) - http://www.bohemiancoding.com/sketch -->
    <title>social-twitter</title>
    <desc>Created with Sketch.</desc>
    <defs></defs>
    <g id="Symbols" stroke="none" stroke-width="1" fill="none" fill-rule="evenodd">
        <g id="Footer-+1920" transform="translate(-543.000000, -161.000000)" fill-rule="nonzero" fill="#FFFFFF">
            <g id="Footer-1920">
                <g id="social-twitter" transform="translate(543.000000, 161.000000)">
                    <g id="dzensoft-logo-header" transform="translate(6.641509, 12.075472)">
                        <path d="M15.6981132,1.77509434 C15.1109245,2.03512229 14.4882167,2.2060617 13.850566,2.28226415 C14.5247957,1.88132532 15.029366,1.24792855 15.269434,0.501132075 C14.636777,0.875989285 13.9444554,1.1394391 13.2226415,1.28 C12.3175423,0.317584781 10.9168881,0.00473740998 9.68830925,0.490578467 C8.45973036,0.976419523 7.65187462,2.1626213 7.64981132,3.48377358 C7.64667806,3.73354611 7.67302367,3.98281614 7.72830189,4.22641509 C5.1377923,4.09771656 2.72370902,2.87531258 1.08679245,0.863396226 C0.235816394,2.3352338 0.671382588,4.21476792 2.08301887,5.16226415 C1.56410841,5.14626968 1.05669775,5.00543733 0.603773585,4.75169811 L0.603773585,4.79396226 C0.604846458,6.32705689 1.68533726,7.64737626 3.18792453,7.95169811 C2.9107471,8.02876073 2.62429298,8.06736093 2.33660377,8.06641509 C2.13407672,8.06752199 1.93190502,8.04932654 1.73283019,8.01207547 C2.15522414,9.32757261 3.37018687,10.226645 4.75169811,10.2460377 C3.40320213,11.2946535 1.69679046,11.7716682 0,11.5743396 C2.81956022,13.3796534 6.39947924,13.5027211 9.33635988,11.8952977 C12.2732405,10.2878744 14.0990797,7.20610913 14.0981132,3.85811321 C14.0981132,3.71924528 14.0981132,3.58037736 14.0981132,3.44150943 C14.7262914,2.98559517 15.2681103,2.42128561 15.6981132,1.77509434" id="Shape"></path>
                    </g>
                    <g id="ico-shape">
                        <path d="M12.0754717,0.603773585 C14.490566,0.603773585 17.1954717,1.76301887 19.8279245,3.94867925 C25.7992453,8.90566038 30.4,17.9501887 30.7924528,25.4611321 C31.0206016,28.0386452 30.1171809,30.5880545 28.3169811,32.4467925 C24.4166038,36.4015094 16.9056604,36.8301887 13.8867925,36.8301887 L12.9207547,36.8301887 C10.509501,36.7930036 8.14021963,36.1934472 6.00150943,35.0792453 L5.95320755,35.0792453 C5.38525406,34.7691697 4.8457993,34.4095332 4.34113208,34.0045283 C1.74490566,31.8611321 0.49509434,28.8120755 0.603773585,24.8875472 C0.603773585,24.5977358 0.603773585,24.2837736 0.603773585,23.9698113 L0.603773585,23.8369811 C0.724528302,20.1116981 0.869433962,13.8867925 3.48981132,7.07622642 C5.00528302,3.14566038 7.34792453,1.16528302 11.085283,0.670188679 C11.4135452,0.626488156 11.7443139,0.604302448 12.0754717,0.603773585 L12.0754717,0.603773585 Z M12.0754717,4.02194001e-16 C11.7140163,0.000284956933 11.352976,0.0244887799 10.994717,0.0724528302 C7.02188679,0.603773585 4.52830189,2.69283019 2.92830189,6.85886792 C0.265660377,13.7660377 0.120754717,20.0573585 0.0362264151,23.8249057 L0.0362264151,23.9577358 C0.0362264151,24.2777358 0.0362264151,24.5615094 0.0362264151,24.869434 C-0.114716981,28.9811321 1.20754717,32.205283 3.96075472,34.4150943 C4.49361986,34.8430628 5.06340027,35.2229164 5.66339623,35.5501887 L5.66339623,35.5501887 C7.90026491,36.7247429 10.3824452,37.3556304 12.9086792,37.3916981 L13.8867925,37.4339623 C17.0083019,37.4339623 24.7124528,36.9871698 28.7577358,32.869434 C30.6746377,30.8900803 31.6374178,28.1757895 31.3962264,25.4309434 C31.0158491,17.7690566 26.3184906,8.52528302 20.2384906,3.48981132 C17.509434,1.20754717 14.6656604,0 12.0754717,4.02194001e-16 Z" id="Shape"></path>
                    </g>
                </g>
            </g>
        </g>
    </g>
</svg>