<?xml version="1.0" encoding="UTF-8"?>
<svg width="32px" height="38px" viewBox="0 0 32 38" version="1.1" xmlns="http://www.w3.org/2000/svg" xmlns:xlink="http://www.w3.org/1999/xlink">
    <!-- Generator: Sketch 46.2 (44496) - http://www.bohemiancoding.com/sketch -->
    <title>social-facebook</title>
    <desc>Created with Sketch.</desc>
    <defs></defs>
    <g id="Symbols" stroke="none" stroke-width="1" fill="none" fill-rule="evenodd">
        <g id="Footer-+1920" transform="translate(-501.000000, -161.000000)" fill-rule="nonzero" fill="#FFFFFF">
            <g id="Footer-1920">
                <g id="social-facebook" transform="translate(501.000000, 161.000000)">
                    <g id="dzensoft-logo-header" transform="translate(10.264151, 10.867925)">
                        <path d="M0,5.30716981 L1.55169811,5.30716981 L1.55169811,3.79773585 C1.4813362,2.99013838 1.65597223,2.18007969 2.05283019,1.47320755 C2.61132279,0.708021244 3.52264215,0.281979441 4.46792453,0.344150943 C5.40136882,0.297139773 6.33672355,0.384575107 7.24528302,0.603773585 L6.85886792,2.90415094 C6.45136382,2.79145966 6.03169555,2.72861078 5.6090566,2.71698113 C5.00528302,2.71698113 4.46188679,2.93433962 4.46188679,3.53811321 L4.46188679,5.29509434 L6.93735849,5.29509434 L6.76226415,7.54113208 L4.46188679,7.54113208 L4.46188679,15.36 L1.55169811,15.36 L1.55169811,7.55320755 L0,7.55320755 L0,5.30716981 Z" id="Shape"></path>
                    </g>
                    <g id="ico-shape">
                        <path d="M12.0754717,0.603773585 C14.490566,0.603773585 17.1954717,1.76301887 19.8279245,3.94867925 C25.7992453,8.90566038 30.4,17.9501887 30.7924528,25.4611321 C31.0206016,28.0386452 30.1171809,30.5880545 28.3169811,32.4467925 C24.4166038,36.4015094 16.9056604,36.8301887 13.8867925,36.8301887 L12.9207547,36.8301887 C10.509501,36.7930036 8.14021963,36.1934472 6.00150943,35.0792453 L5.95320755,35.0792453 C5.38525406,34.7691697 4.8457993,34.4095332 4.34113208,34.0045283 C1.74490566,31.8611321 0.49509434,28.8120755 0.603773585,24.8875472 C0.603773585,24.5977358 0.603773585,24.2837736 0.603773585,23.9698113 L0.603773585,23.8369811 C0.724528302,20.1116981 0.869433962,13.8867925 3.48981132,7.07622642 C5.00528302,3.14566038 7.34792453,1.16528302 11.085283,0.670188679 C11.4135452,0.626488156 11.7443139,0.604302448 12.0754717,0.603773585 L12.0754717,0.603773585 Z M12.0754717,4.02194001e-16 C11.7140163,0.000284956933 11.352976,0.0244887799 10.994717,0.0724528302 C7.02188679,0.603773585 4.52830189,2.69283019 2.92830189,6.85886792 C0.265660377,13.7660377 0.120754717,20.0573585 0.0362264151,23.8249057 L0.0362264151,23.9577358 C0.0362264151,24.2777358 0.0362264151,24.5615094 0.0362264151,24.869434 C-0.114716981,28.9811321 1.20754717,32.205283 3.96075472,34.4150943 C4.49361986,34.8430628 5.06340027,35.2229164 5.66339623,35.5501887 L5.66339623,35.5501887 C7.90026491,36.7247429 10.3824452,37.3556304 12.9086792,37.3916981 L13.8867925,37.4339623 C17.0083019,37.4339623 24.7124528,36.9871698 28.7577358,32.869434 C30.6746377,30.8900803 31.6374178,28.1757895 31.3962264,25.4309434 C31.0158491,17.7690566 26.3184906,8.52528302 20.2384906,3.48981132 C17.509434,1.20754717 14.6656604,0 12.0754717,4.02194001e-16 Z" id="Shape"></path>
                    </g>
                </g>
            </g>
        </g>
    </g>
</svg>