<?xml version="1.0" encoding="UTF-8"?>
<svg width="32px" height="38px" viewBox="0 0 32 38" version="1.1" xmlns="http://www.w3.org/2000/svg" xmlns:xlink="http://www.w3.org/1999/xlink">
    <!-- Generator: Sketch 46.2 (44496) - http://www.bohemiancoding.com/sketch -->
    <title>social-behance</title>
    <desc>Created with Sketch.</desc>
    <defs></defs>
    <g id="Symbols" stroke="none" stroke-width="1" fill="none" fill-rule="evenodd">
        <g id="Footer-+1920" transform="translate(-417.000000, -161.000000)" fill-rule="nonzero" fill="#FFFFFF">
            <g id="Footer-1920">
                <g id="social-behance" transform="translate(417.000000, 161.000000)">
                    <g id="dzensoft-logo-header" transform="translate(5.433962, 13.283019)">
                        <path d="M9.44301887,1.63622642 C9.8269989,2.1878612 10.0238186,2.84815963 10.0045283,3.52 C10.0365691,4.17202915 9.8353684,4.81415907 9.43698113,5.33132075 C9.17573351,5.62735522 8.85743014,5.86762292 8.50113208,6.03773585 C9.08357064,6.23178656 9.5848754,6.61413765 9.92603774,7.1245283 C10.2584461,7.66879192 10.4242582,8.29845822 10.4030189,8.93584906 C10.407984,9.61910747 10.2173355,10.2895197 9.85358491,10.8679245 C9.35858673,11.6947212 8.53539161,12.2720554 7.58943396,12.4558491 C7.01713,12.5715996 6.4344486,12.6282492 5.85056604,12.6249057 L0.301886792,12.6249057 L0.301886792,0.326037736 L6.2490566,0.326037736 C7.75446541,0.346163522 8.8191195,0.782893082 9.44301887,1.63622642 Z M2.75924528,2.46339623 L2.75924528,5.18037736 L5.77811321,5.18037736 C6.23284235,5.19927191 6.68400994,5.09274623 7.08226415,4.87245283 C7.4337103,4.63038674 7.62569835,4.21634022 7.58339623,3.79169811 C7.63861365,3.30632659 7.36854661,2.84230231 6.91924528,2.65056604 C6.43753455,2.50824575 5.93592156,2.44503436 5.43396226,2.46339623 L2.75924528,2.46339623 Z M2.75924528,7.22113208 L2.75924528,10.5056604 L5.77811321,10.5056604 C6.19525993,10.5128947 6.6091029,10.4305379 6.99169811,10.2641509 C7.55068914,9.96451626 7.87106135,9.35485273 7.80075472,8.7245283 C7.84863752,8.16131254 7.53321377,7.62994486 7.01584906,7.40226415 C6.63121486,7.25285456 6.22081675,7.1810349 5.80830189,7.1909434 L2.75924528,7.22113208 Z M17.8535849,3.71924528 C18.4950775,4.00833022 19.0399752,4.47568477 19.4233962,5.06566038 C19.8091081,5.62875018 20.0591638,6.27352199 20.1539623,6.94943396 C20.2267635,7.55028275 20.2530053,8.1558606 20.2324528,8.76075472 L13.5909434,8.76075472 C13.5516427,9.52346879 13.913309,10.2513796 14.5449057,10.6807547 C14.939861,10.9181122 15.3944762,11.0375273 15.8550943,11.0249057 C16.3312323,11.0466634 16.799687,10.8990681 17.1773585,10.6083019 C17.3789919,10.4416536 17.5452699,10.2363721 17.6664151,10.0045283 L20.0815094,10.0045283 C19.9694548,10.633385 19.6608187,11.210492 19.2,11.6528302 C18.3050638,12.5704536 17.0562469,13.0550034 15.7766038,12.9811321 C14.6089249,12.9966121 13.4733579,12.5988429 12.570566,11.8581132 C11.6407547,11.109434 11.1778616,9.90188679 11.1818868,8.2354717 C11.0962656,6.90817003 11.5489538,5.60233874 12.4377358,4.61283019 C13.2930387,3.73737361 14.4746272,3.25817381 15.6981132,3.29056604 C16.436982,3.27833472 17.1698999,3.42450655 17.8475472,3.71924528 L17.8535849,3.71924528 Z M14.2913208,5.77811321 C13.9347057,6.16937638 13.712565,6.66443283 13.6573585,7.1909434 L17.7630189,7.1909434 C17.7583072,6.64339914 17.5291396,6.12177007 17.1290566,5.74792453 C16.7295924,5.41244859 16.2193452,5.23806034 15.6981132,5.25886792 C15.1755855,5.22883783 14.6640039,5.41685501 14.285283,5.77811321 L14.2913208,5.77811321 Z M18.3184906,0.899622642 L13.0354717,0.899622642 L13.0354717,2.41509434 L18.3124528,2.41509434 L18.3184906,0.899622642 Z" id="Shape"></path>
                    </g>
                    <g id="ico-shape">
                        <path d="M12.0754717,0.603773585 C14.490566,0.603773585 17.1954717,1.76301887 19.8279245,3.94867925 C25.7992453,8.90566038 30.4,17.9501887 30.7924528,25.4611321 C31.0206016,28.0386452 30.1171809,30.5880545 28.3169811,32.4467925 C24.4166038,36.4015094 16.9056604,36.8301887 13.8867925,36.8301887 L12.9207547,36.8301887 C10.509501,36.7930036 8.14021963,36.1934472 6.00150943,35.0792453 L5.95320755,35.0792453 C5.38525406,34.7691697 4.8457993,34.4095332 4.34113208,34.0045283 C1.74490566,31.8611321 0.49509434,28.8120755 0.603773585,24.8875472 C0.603773585,24.5977358 0.603773585,24.2837736 0.603773585,23.9698113 L0.603773585,23.8369811 C0.724528302,20.1116981 0.869433962,13.8867925 3.48981132,7.07622642 C5.00528302,3.14566038 7.34792453,1.16528302 11.085283,0.670188679 C11.4135452,0.626488156 11.7443139,0.604302448 12.0754717,0.603773585 L12.0754717,0.603773585 Z M12.0754717,4.02194001e-16 C11.7140163,0.000284956933 11.352976,0.0244887799 10.994717,0.0724528302 C7.02188679,0.603773585 4.52830189,2.69283019 2.92830189,6.85886792 C0.265660377,13.7660377 0.120754717,20.0573585 0.0362264151,23.8249057 L0.0362264151,23.9577358 C0.0362264151,24.2777358 0.0362264151,24.5615094 0.0362264151,24.869434 C-0.114716981,28.9811321 1.20754717,32.205283 3.96075472,34.4150943 C4.49361986,34.8430628 5.06340027,35.2229164 5.66339623,35.5501887 L5.66339623,35.5501887 C7.90026491,36.7247429 10.3824452,37.3556304 12.9086792,37.3916981 L13.8867925,37.4339623 C17.0083019,37.4339623 24.7124528,36.9871698 28.7577358,32.869434 C30.6746377,30.8900803 31.6374178,28.1757895 31.3962264,25.4309434 C31.0158491,17.7690566 26.3184906,8.52528302 20.2384906,3.48981132 C17.509434,1.20754717 14.6656604,0 12.0754717,4.02194001e-16 Z" id="Shape"></path>
                    </g>
                </g>
            </g>
        </g>
    </g>
</svg>