<?xml version="1.0" encoding="UTF-8"?>
<svg width="32px" height="38px" viewBox="0 0 32 38" version="1.1" xmlns="http://www.w3.org/2000/svg" xmlns:xlink="http://www.w3.org/1999/xlink">
    <!-- Generator: Sketch 46.2 (44496) - http://www.bohemiancoding.com/sketch -->
    <title>social-dribbble</title>
    <desc>Created with Sketch.</desc>
    <defs></defs>
    <g id="Symbols" stroke="none" stroke-width="1" fill="none" fill-rule="evenodd">
        <g id="Footer-+1920" transform="translate(-459.000000, -161.000000)" fill="#FFFFFF">
            <g id="Footer-1920">
                <g id="social-dribbble" transform="translate(459.000000, 161.000000)">
                    <g id="dzensoft-logo-header" transform="translate(6.037736, 10.867925)">
                        <path d="M17.0264151,7.10641509 C16.8045765,6.02710371 16.3738555,5.00157752 15.7584906,4.08754717 C15.4544708,3.63935589 15.1087836,3.22089249 14.7260377,2.83773585 C13.5594053,1.66467356 12.0722943,0.862305745 10.4513208,0.531320755 C7.0999964,-0.154816991 3.66551411,1.24662339 1.7509434,4.08150943 C1.44498614,4.53389999 1.18411588,5.0151955 0.972075472,5.51849057 C0.0830299755,7.62212535 0.0830299755,9.99598785 0.972075472,12.0996226 C1.18415085,12.6029009 1.4450193,13.0841931 1.7509434,13.5366038 C3.32169363,15.864775 5.94622341,17.2607533 8.75471698,17.2618868 C10.9945165,17.2604481 13.1421797,16.3701125 14.7260377,14.7864151 C15.1086772,14.4031617 15.4543557,13.9847088 15.7584906,13.5366038 C17.0287021,11.6509498 17.485742,9.33310479 17.0264151,7.10641509 L17.0264151,7.10641509 Z M15.9637736,8.73660377 C14.3108494,8.40454285 12.6171161,8.32514909 10.9403774,8.50113208 L10.7833962,8.12679245 C10.6324528,7.77660377 10.469434,7.42641509 10.3064151,7.08226415 C11.8778032,6.50976162 13.2651337,5.5229837 14.3215094,4.22641509 C15.3697651,5.49710145 15.9495577,7.08939958 15.9637736,8.73660377 L15.9637736,8.73660377 Z M13.5184906,3.39320755 C13.5184906,3.39320755 12.4739623,4.98716981 9.7509434,6.00754717 C8.94906688,4.53865963 8.04732557,3.12653677 7.05207547,1.78113208 C9.33950147,1.22479631 11.7544192,1.82232498 13.5184906,3.38113208 L13.5184906,3.39320755 Z M5.66943396,2.29433962 C6.64186495,3.62858094 7.53692145,5.01753124 8.35018868,6.45433962 C6.18224758,7.02638515 3.95078275,7.32256139 1.70867925,7.33584906 C2.17099711,5.12511854 3.63781225,3.25643623 5.6754717,2.28226415 L5.66943396,2.29433962 Z M1.53962264,8.8090566 C1.53962264,8.73056604 1.53962264,8.65811321 1.53962264,8.57962264 C4.04516827,8.58951647 6.53944957,8.24393552 8.94792453,7.55320755 C9.15320755,7.95773585 9.35245283,8.36830189 9.55169811,8.76075472 L9.26792453,8.84528302 C6.82731803,9.7203887 4.75748013,11.4005349 3.39924528,13.6090566 L3.39924528,13.6090566 C2.20880154,12.2930373 1.54653017,10.5836031 1.53962264,8.8090566 L1.53962264,8.8090566 Z M8.75471698,16.0543396 C7.07696749,16.056264 5.45144389,15.4709901 4.16,14.4 L4.32301887,14.5267925 C4.32301887,14.5267925 5.70566038,11.5079245 9.98641509,10.0166038 L10.034717,10.0166038 C10.7212416,11.7908577 11.2367886,13.6266093 11.5743396,15.4988679 C10.679367,15.8618425 9.72035623,16.0405019 8.75471698,16.0241509 L8.75471698,16.0543396 Z M12.7818868,14.8467925 C12.4643256,13.0810702 11.995685,11.3458876 11.3811321,9.66037736 C12.883493,9.43679698 14.4165545,9.54394644 15.8732075,9.97433962 C15.5478226,11.9366264 14.4300109,13.6788408 12.7818868,14.7924528 L12.7818868,14.8467925 Z" id="Shape"></path>
                    </g>
                    <g id="ico-shape" fill-rule="nonzero">
                        <path d="M12.0754717,0.603773585 C14.490566,0.603773585 17.1954717,1.76301887 19.8279245,3.94867925 C25.7992453,8.90566038 30.4,17.9501887 30.7924528,25.4611321 C31.0206016,28.0386452 30.1171809,30.5880545 28.3169811,32.4467925 C24.4166038,36.4015094 16.9056604,36.8301887 13.8867925,36.8301887 L12.9207547,36.8301887 C10.509501,36.7930036 8.14021963,36.1934472 6.00150943,35.0792453 L5.95320755,35.0792453 C5.38525406,34.7691697 4.8457993,34.4095332 4.34113208,34.0045283 C1.74490566,31.8611321 0.49509434,28.8120755 0.603773585,24.8875472 C0.603773585,24.5977358 0.603773585,24.2837736 0.603773585,23.9698113 L0.603773585,23.8369811 C0.724528302,20.1116981 0.869433962,13.8867925 3.48981132,7.07622642 C5.00528302,3.14566038 7.34792453,1.16528302 11.085283,0.670188679 C11.4135452,0.626488156 11.7443139,0.604302448 12.0754717,0.603773585 L12.0754717,0.603773585 Z M12.0754717,4.02194001e-16 C11.7140163,0.000284956933 11.352976,0.0244887799 10.994717,0.0724528302 C7.02188679,0.603773585 4.52830189,2.69283019 2.92830189,6.85886792 C0.265660377,13.7660377 0.120754717,20.0573585 0.0362264151,23.8249057 L0.0362264151,23.9577358 C0.0362264151,24.2777358 0.0362264151,24.5615094 0.0362264151,24.869434 C-0.114716981,28.9811321 1.20754717,32.205283 3.96075472,34.4150943 C4.49361986,34.8430628 5.06340027,35.2229164 5.66339623,35.5501887 L5.66339623,35.5501887 C7.90026491,36.7247429 10.3824452,37.3556304 12.9086792,37.3916981 L13.8867925,37.4339623 C17.0083019,37.4339623 24.7124528,36.9871698 28.7577358,32.869434 C30.6746377,30.8900803 31.6374178,28.1757895 31.3962264,25.4309434 C31.0158491,17.7690566 26.3184906,8.52528302 20.2384906,3.48981132 C17.509434,1.20754717 14.6656604,0 12.0754717,4.02194001e-16 Z" id="Shape"></path>
                    </g>
                </g>
            </g>
        </g>
    </g>
</svg>