<?xml version="1.0" encoding="UTF-8"?>
<svg width="32px" height="38px" viewBox="0 0 32 38" version="1.1" xmlns="http://www.w3.org/2000/svg" xmlns:xlink="http://www.w3.org/1999/xlink">
    <!-- Generator: Sketch 46.2 (44496) - http://www.bohemiancoding.com/sketch -->
    <title>social-linkedin</title>
    <desc>Created with Sketch.</desc>
    <defs></defs>
    <g id="Symbols" stroke="none" stroke-width="1" fill="none" fill-rule="evenodd">
        <g id="Footer-+1920" transform="translate(-585.000000, -161.000000)" fill-rule="nonzero" fill="#FFFFFF">
            <g id="Footer-1920">
                <g id="social-linkedin" transform="translate(585.000000, 161.000000)">
                    <g id="ico-shape">
                        <path d="M12.0754717,0.603773585 C14.490566,0.603773585 17.1954717,1.76301887 19.8279245,3.94867925 C25.7992453,8.90566038 30.4,17.9501887 30.7924528,25.4611321 C31.0206016,28.0386452 30.1171809,30.5880545 28.3169811,32.4467925 C24.4166038,36.4015094 16.9056604,36.8301887 13.8867925,36.8301887 L12.9207547,36.8301887 C10.509501,36.7930036 8.14021963,36.1934472 6.00150943,35.0792453 L5.95320755,35.0792453 C5.38525406,34.7691697 4.8457993,34.4095332 4.34113208,34.0045283 C1.74490566,31.8611321 0.49509434,28.8120755 0.603773585,24.8875472 C0.603773585,24.5977358 0.603773585,24.2837736 0.603773585,23.9698113 L0.603773585,23.8369811 C0.724528302,20.1116981 0.869433962,13.8867925 3.48981132,7.07622642 C5.00528302,3.14566038 7.34792453,1.16528302 11.085283,0.670188679 C11.4135452,0.626488156 11.7443139,0.604302448 12.0754717,0.603773585 L12.0754717,0.603773585 Z M12.0754717,4.02194001e-16 C11.7140163,0.000284956933 11.352976,0.0244887799 10.994717,0.0724528302 C7.02188679,0.603773585 4.52830189,2.69283019 2.92830189,6.85886792 C0.265660377,13.7660377 0.120754717,20.0573585 0.0362264151,23.8249057 L0.0362264151,23.9577358 C0.0362264151,24.2777358 0.0362264151,24.5615094 0.0362264151,24.869434 C-0.114716981,28.9811321 1.20754717,32.205283 3.96075472,34.4150943 C4.49361986,34.8430628 5.06340027,35.2229164 5.66339623,35.5501887 L5.66339623,35.5501887 C7.90026491,36.7247429 10.3824452,37.3556304 12.9086792,37.3916981 L13.8867925,37.4339623 C17.0083019,37.4339623 24.7124528,36.9871698 28.7577358,32.869434 C30.6746377,30.8900803 31.6374178,28.1757895 31.3962264,25.4309434 C31.0158491,17.7690566 26.3184906,8.52528302 20.2384906,3.48981132 C17.509434,1.20754717 14.6656604,0 12.0754717,4.02194001e-16 Z" id="Shape"></path>
                    </g>
                    <g id="social" transform="translate(7.849057, 11.471698)">
                        <path d="M3.62264151,14.1584906 L0.700377358,14.1584906 L0.700377358,4.76377358 L3.62264151,4.76377358 L3.62264151,14.1584906 Z M2.09509434,3.59245283 L2.09509434,3.59245283 C1.47889173,3.63689048 0.89019869,3.33046608 0.573118354,2.80023932 C0.256038017,2.27001255 0.2646404,1.60640016 0.595358502,1.08457078 C0.926076603,0.562741399 1.52251483,0.271679811 2.13735849,0.332075472 C2.75326547,0.279017579 3.34649314,0.577607996 3.67079367,1.10390232 C3.99509419,1.63019665 3.99509419,2.29433166 3.67079367,2.82062598 C3.34649314,3.34692031 2.75326547,3.64551072 2.13735849,3.59245283 L2.09509434,3.59245283 Z M15.3781132,14.1645283 L12.0754717,14.1645283 L12.0754717,9.29811321 C12.0754717,8.02415094 11.5562264,7.15471698 10.4090566,7.15471698 C9.68675386,7.15741036 9.04717301,7.62189683 8.82113208,8.30792453 C8.74451276,8.54972015 8.7117955,8.80327884 8.7245283,9.05660377 L8.7245283,14.1403774 L5.43396226,14.1403774 C5.43396226,14.1403774 5.47622642,5.53056604 5.43396226,4.74566038 L8.73056604,4.74566038 L8.73056604,6.21886792 C8.92377358,5.57283019 9.98037736,4.65509434 11.6588679,4.65509434 C13.7418868,4.65509434 15.3841509,6.00754717 15.3841509,8.91773585 L15.3781132,14.1645283 Z" id="Shape"></path>
                    </g>
                </g>
            </g>
        </g>
    </g>
</svg>