<svg xmlns="http://www.w3.org/2000/svg" viewBox="0 0 270 200">
  <defs>
    <style>
      .d389a4f5-9aa9-4762-b03d-1b6c34ec5618{fill:#fff;}
    </style>
  </defs>
  <g id="d7881e54-8f7c-4121-bc09-320d080f6ed4" data-name="3">
    <path d="M10.77 189.23a2.37 2.37 0 0 0-3.36 0l-1.68 1.68-1.68-1.68a2.37 2.37 0 0 0-3.36 3.36l1.68 1.68-1.68 1.68a2.38 2.38 0 0 0 3.36 3.36l1.68-1.68 1.68 1.68a2.38 2.38 0 0 0 3.36-3.36l-1.68-1.68 1.68-1.68a2.37 2.37 0 0 0 0-3.36zm23-38.71a2.37 2.37 0 0 0-3.36 0l-1.68 1.68-1.68-1.68a2.37 2.37 0 0 0-3.36 3.36l1.68 1.68-1.68 1.68a2.38 2.38 0 1 0 3.36 3.36l1.68-1.68 1.68 1.68a2.38 2.38 0 1 0 3.36-3.36l-1.68-1.68 1.68-1.68a2.37 2.37 0 0 0 0-3.36zM269.3.7a2.37 2.37 0 0 0-3.36 0l-1.68 1.68L262.59.7a2.37 2.37 0 0 0-3.36 3.36l1.68 1.68-1.68 1.68a2.38 2.38 0 0 0 3.36 3.36l1.68-1.68 1.68 1.68a2.38 2.38 0 1 0 3.36-3.36l-1.68-1.68 1.68-1.68A2.37 2.37 0 0 0 269.3.7zm-62.55 72.78a7.73 7.73 0 0 0-7.75 7.81v25.18l-21.09 25.31v-5L188.49 114a10.33 10.33 0 0 0-15.87-13.22l-25.46 30.55a12.6 12.6 0 0 0-3 8.28v27.79h-2.72a2.5 2.5 0 0 0-2.5 2.5v7.94h-15.86v-7.94a2.5 2.5 0 0 0-2.5-2.5h-2.72v-27.78a12.61 12.61 0 0 0-3-8.28l-25.45-30.55A10.33 10.33 0 0 0 73.54 114l10.63 12.75v5l-21.09-25.27V81.29a7.82 7.82 0 0 0-2.31-5.6 7.63 7.63 0 0 0-5.48-2.22 7.74 7.74 0 0 0-7.64 7.72v35.52a12.46 12.46 0 0 0 2.9 8.16l31 38.18v4.34h-2.71a2.5 2.5 0 0 0-2.5 2.5v7.94H63.19a2.5 2.5 0 0 0 0 5h135.66a2.5 2.5 0 0 0 0-5H185.7v-7.93a2.5 2.5 0 0 0-2.5-2.5h-2.72v-4.34l31-38.18a12.46 12.46 0 0 0 2.9-8.16V81.2a7.74 7.74 0 0 0-7.63-7.72zM86 160.59l-31.58-38.87a7.54 7.54 0 0 1-1.78-5V81.2a2.72 2.72 0 0 1 2.69-2.72 2.66 2.66 0 0 1 1.92.77 2.85 2.85 0 0 1 .83 2v26.09a2.5 2.5 0 0 0 .58 1.6l26.09 31.3a2.5 2.5 0 0 0 4.42-1.6v-12.78a2.5 2.5 0 0 0-.58-1.6l-11.2-13.44a5.33 5.33 0 0 1 8.18-6.82L111 134.54a7.53 7.53 0 0 1 1.84 5.08v27.78H86.56v-5.23a2.5 2.5 0 0 0-.56-1.58zm-4.66 17.24v-5.43h36.74v5.44zm99.36 0H144v-5.43h36.7zm28.7-61.12a7.55 7.55 0 0 1-1.78 5L176 160.59a2.5 2.5 0 0 0-.56 1.58v5.23h-26.27v-27.78a7.53 7.53 0 0 1 1.84-5.08L176.47 104a5.33 5.33 0 1 1 8.19 6.82l-11.2 13.44a2.5 2.5 0 0 0-.58 1.6v12.83a2.5 2.5 0 0 0 4.42 1.6L203.38 109a2.5 2.5 0 0 0 .58-1.6V81.29a2.85 2.85 0 0 1 .83-2 2.5 2.5 0 0 1 1.92-.77 2.72 2.72 0 0 1 2.69 2.72zm2.5-92.8h-5.33v-5.33a2.5 2.5 0 0 0-5 0v5.33h-5.33a2.5 2.5 0 0 0 0 5h5.33v5.33a2.5 2.5 0 0 0 5 0v-5.33h5.33a2.5 2.5 0 0 0 0-5zm-161.76 5h5.33v5.33a2.5 2.5 0 0 0 5 0v-5.33h5.33a2.5 2.5 0 0 0 0-5h-5.33v-5.33a2.5 2.5 0 0 0-5 0v5.33h-5.33a2.5 2.5 0 0 0 0 5z" class="d389a4f5-9aa9-4762-b03d-1b6c34ec5618"/>
    <path d="M83.7 75.84l13 1.85a36.4 36.4 0 0 0 1.46 3.52l-7.88 10.5a2.5 2.5 0 0 0 .23 3.29l11.07 11.07a2.5 2.5 0 0 0 3.27.23l10.49-7.87a36.09 36.09 0 0 0 3.52 1.46l1.85 13a2.5 2.5 0 0 0 2.48 2.15h15.65a2.5 2.5 0 0 0 2.48-2.15l1.85-13a36.14 36.14 0 0 0 3.52-1.46l10.49 7.87a2.5 2.5 0 0 0 3.27-.23L171.53 95a2.5 2.5 0 0 0 .23-3.27l-7.87-10.49a36.4 36.4 0 0 0 1.46-3.52l13-1.85a2.5 2.5 0 0 0 2.15-2.47V57.72a2.5 2.5 0 0 0-2.15-2.47l-13-1.85a36.36 36.36 0 0 0-1.46-3.53l7.87-10.49a2.5 2.5 0 0 0-.23-3.27L160.46 25a2.5 2.5 0 0 0-3.27-.23l-10.49 7.9a36.52 36.52 0 0 0-3.53-1.46l-1.85-13a2.5 2.5 0 0 0-2.47-2.15h-15.66a2.5 2.5 0 0 0-2.48 2.15l-1.85 13a36.13 36.13 0 0 0-3.53 1.46l-10.49-7.87a2.5 2.5 0 0 0-3.27.23L90.51 36.1a2.5 2.5 0 0 0-.23 3.27l7.87 10.49a36.45 36.45 0 0 0-1.46 3.53l-13 1.85a2.5 2.5 0 0 0-2.15 2.47v15.66a2.5 2.5 0 0 0 2.16 2.47zm2.85-16l12.37-1.77a2.5 2.5 0 0 0 2-1.75 31.35 31.35 0 0 1 2.32-5.59 2.5 2.5 0 0 0-.21-2.68l-7.5-10 8-8 10 7.5a2.5 2.5 0 0 0 2.68.21 31.12 31.12 0 0 1 5.59-2.32 2.5 2.5 0 0 0 1.75-2l1.77-12.37h11.32l1.77 12.37a2.5 2.5 0 0 0 1.75 2 31.2 31.2 0 0 1 5.59 2.32 2.5 2.5 0 0 0 2.68-.21l10-7.5 8 8-7.5 10a2.5 2.5 0 0 0-.21 2.68 31.42 31.42 0 0 1 2.32 5.59 2.5 2.5 0 0 0 2 1.74l12.37 1.77V71.2l-12.3 1.8a2.5 2.5 0 0 0-2 1.75 31.31 31.31 0 0 1-2.32 5.59A2.5 2.5 0 0 0 159 83l7.5 10-8 8-10-7.5a2.5 2.5 0 0 0-2.68-.21 31.22 31.22 0 0 1-5.59 2.32 2.5 2.5 0 0 0-1.75 2l-1.8 12.39h-11.32l-1.77-12.37a2.5 2.5 0 0 0-1.75-2 31.3 31.3 0 0 1-5.59-2.32 2.5 2.5 0 0 0-2.68.21l-10 7.5-8-8 7.5-10a2.5 2.5 0 0 0 .21-2.68 31.31 31.31 0 0 1-2.28-5.63 2.5 2.5 0 0 0-2-1.75L86.56 71.2z" class="d389a4f5-9aa9-4762-b03d-1b6c34ec5618"/>
    <path d="M131 81.08a15.54 15.54 0 1 0-15.54-15.54A15.56 15.56 0 0 0 131 81.08zM131 55a10.54 10.54 0 1 1-10.54 10.54A10.56 10.56 0 0 1 131 55zM56.46 68a2.5 2.5 0 0 0 3.32-1.22A79.12 79.12 0 0 1 80.6 39.46a2.5 2.5 0 0 0-3.22-3.83 84.17 84.17 0 0 0-22.14 29A2.5 2.5 0 0 0 56.46 68zm145.8-1.26a2.5 2.5 0 0 0 4.54-2.09 84.2 84.2 0 0 0-22.14-29 2.5 2.5 0 0 0-3.22 3.83 79.16 79.16 0 0 1 20.82 27.26zm4.42 77.18a2.5 2.5 0 0 0-2.5 2.5v18.26a2.5 2.5 0 0 0 5 0v-18.26a2.5 2.5 0 0 0-2.5-2.5zm-12.94 18.15v7.83a2.5 2.5 0 0 0 5 0v-7.83a2.5 2.5 0 0 0-5 0zM55.36 143.92a2.5 2.5 0 0 0-2.5 2.5v18.26a2.5 2.5 0 0 0 5 0v-18.26a2.5 2.5 0 0 0-2.5-2.5zm12.93 25.98v-7.83a2.5 2.5 0 1 0-5 0v7.83a2.5 2.5 0 1 0 5 0zm-12.85 8.8a2.37 2.37 0 0 0-3.36 0l-1.68 1.68-1.68-1.68a2.37 2.37 0 0 0-3.36 3.36l1.64 1.68-1.68 1.68a2.38 2.38 0 0 0 3.36 3.36l1.68-1.68 1.68 1.68a2.38 2.38 0 0 0 3.36-3.36l-1.68-1.68 1.68-1.68a2.37 2.37 0 0 0 .04-3.36zM233.76 55.46l1.68-1.68a2.37 2.37 0 0 0-3.36-3.36l-1.68 1.68-1.68-1.68a2.37 2.37 0 1 0-3.36 3.36l1.64 1.68-1.68 1.68a2.38 2.38 0 1 0 3.36 3.36l1.68-1.68 1.68 1.68a2.38 2.38 0 0 0 3.36-3.36z" class="d389a4f5-9aa9-4762-b03d-1b6c34ec5618"/>
  </g>
</svg>
