<svg xmlns="http://www.w3.org/2000/svg" viewBox="0 0 270 200">
  <defs>
    <style>
      .c64f3c9b-33ab-472e-b3ad-c0e1a7d53e20{fill:#fff;}
    </style>
  </defs>
  <g id="54af155f-41c2-4cf6-ac9b-def1af1ae5ea" data-name="2">
    <path d="M65.41 182.4a2.34 2.34 0 0 0-3.32 0l-1.66 1.66-1.66-1.66a2.35 2.35 0 0 0-3.32 3.32l1.66 1.66-1.65 1.62a2.35 2.35 0 0 0 3.32 3.32l1.66-1.66 1.66 1.66a2.35 2.35 0 0 0 3.31-3.32l-1.66-1.66 1.66-1.66a2.34 2.34 0 0 0 0-3.28zm-54.77 6.96a2.35 2.35 0 0 0-3.32 0L5.66 191 4 189.36a2.35 2.35 0 0 0-3.32 3.32l1.66 1.66L.69 196A2.35 2.35 0 0 0 4 199.31l1.66-1.66 1.66 1.66a2.35 2.35 0 0 0 3.32-3.31L9 194.34l1.66-1.66a2.35 2.35 0 0 0-.02-3.32zm22.59-35.28a2.34 2.34 0 0 0-3.32 0l-1.66 1.66-1.66-1.66a2.35 2.35 0 1 0-3.32 3.32l1.66 1.66-1.66 1.66A2.35 2.35 0 0 0 26.6 164l1.66-1.66 1.65 1.66a2.35 2.35 0 0 0 3.32-3.32l-1.66-1.66 1.66-1.66a2.34 2.34 0 0 0 0-3.28zm145.59 3.59a7.46 7.46 0 0 0 10.53 0l3.49-3.5a7.45 7.45 0 0 0 0-10.53l-3.12-3.11a67.77 67.77 0 0 0 12.65-30.7h4.41a7.46 7.46 0 0 0 7.43-7.46v-4.98a7.46 7.46 0 0 0-7.47-7.39h-4.42a67.94 67.94 0 0 0-12.76-30.65l3.11-3.12a7.46 7.46 0 0 0 0-10.53l-3.5-3.49a7.39 7.39 0 0 0-5.28-2.21 7.4 7.4 0 0 0-5.26 2.19l-3.13 3.11a67.74 67.74 0 0 0-30.7-12.65v-4.41a7.46 7.46 0 0 0-7.45-7.44h-5a7.46 7.46 0 0 0-7.35 7.47v4.41a67.77 67.77 0 0 0-30.69 12.77l-3.13-3.12a7.46 7.46 0 0 0-10.53 0l-3.49 3.51a7.46 7.46 0 0 0 0 10.53l3.14 3.13a68 68 0 0 0-12.65 30.7h-4.41a7.46 7.46 0 0 0-7.43 7.46v4.95a7.46 7.46 0 0 0 7.45 7.39h4.42a67.74 67.74 0 0 0 12.76 30.65l-3.11 3.12a7.46 7.46 0 0 0 0 10.53l3.5 3.49a7.46 7.46 0 0 0 10.53 0l3.12-3.13a67.76 67.76 0 0 0 30.7 12.65v4.41a7.46 7.46 0 0 0 7.45 7.43h5a7.46 7.46 0 0 0 7.43-7.46v-4.41a67.76 67.76 0 0 0 30.65-12.76zm-36.57 5a2.5 2.5 0 0 0-2.22 2.49v6.61a2.46 2.46 0 0 1-2.44 2.45h-5a2.45 2.45 0 0 1-2.45-2.44v-6.61a2.5 2.5 0 0 0-2.22-2.48 62.77 62.77 0 0 1-32.13-13.25 2.5 2.5 0 0 0-3.32.19l-4.67 4.68a2.45 2.45 0 0 1-3.46 0l-3.5-3.49a2.46 2.46 0 0 1 0-3.46l4.66-4.68a2.5 2.5 0 0 0 .18-3.33 62.78 62.78 0 0 1-13.36-32.09 2.5 2.5 0 0 0-2.45-2.26h-6.61a2.45 2.45 0 0 1-2.45-2.44v-4.9a2.45 2.45 0 0 1 2.44-2.45h6.61A2.5 2.5 0 0 0 72.33 93a63 63 0 0 1 13.25-32.17 2.5 2.5 0 0 0-.19-3.33l-4.68-4.66a2.45 2.45 0 0 1 0-3.46l3.49-3.5a2.45 2.45 0 0 1 3.46 0l4.68 4.67a2.5 2.5 0 0 0 3.33.18 62.78 62.78 0 0 1 32.09-13.36 2.5 2.5 0 0 0 2.24-2.5v-6.61a2.46 2.46 0 0 1 2.44-2.45h5a2.46 2.46 0 0 1 2.45 2.44v6.61a2.5 2.5 0 0 0 2.11 2.47 62.78 62.78 0 0 1 32.13 13.25 2.5 2.5 0 0 0 3.32-.19l4.67-4.68a2.43 2.43 0 0 1 1.73-.72 2.42 2.42 0 0 1 1.73.71l3.51 3.49a2.46 2.46 0 0 1 0 3.46l-4.66 4.68a2.5 2.5 0 0 0-.18 3.33 63 63 0 0 1 13.36 32.09 2.5 2.5 0 0 0 2.52 2.25h6.61a2.45 2.45 0 0 1 2.45 2.44v4.95a2.45 2.45 0 0 1-2.44 2.45h-6.61a2.5 2.5 0 0 0-2.48 2.22 62.79 62.79 0 0 1-13.25 32.14 2.5 2.5 0 0 0 .19 3.32l4.68 4.67a2.45 2.45 0 0 1 0 3.46l-3.49 3.5a2.45 2.45 0 0 1-3.46 0l-4.68-4.66a2.5 2.5 0 0 0-3.33-.18 62.78 62.78 0 0 1-32.07 13.33z" class="c64f3c9b-33ab-472e-b3ad-c0e1a7d53e20"/>
    <path d="M177.07 138.39l-1.79-1.79a54.24 54.24 0 0 0 14.12-34.2h2.51a2.5 2.5 0 0 0 0-5h-2.52a54.24 54.24 0 0 0-14.24-34.15l1.79-1.79a2.5 2.5 0 0 0-3.54-3.53l-1.79 1.79a54.24 54.24 0 0 0-34.2-14.11v-2.52a2.5 2.5 0 0 0-2.5-2.5 2.5 2.5 0 0 0-2.5 2.5v2.51a54 54 0 0 0-34.15 14.27l-1.81-1.8a2.5 2.5 0 1 0-3.53 3.54l1.81 1.8A54 54 0 0 0 80.6 97.6h-2.51a2.5 2.5 0 0 0 0 5h2.52a54.25 54.25 0 0 0 14.24 34.15l-1.79 1.79a2.5 2.5 0 0 0 3.54 3.53l1.79-1.79a54.24 54.24 0 0 0 34.2 14.11v2.51a2.5 2.5 0 0 0 2.5 2.5 2.5 2.5 0 0 0 2.5-2.5v-2.51a54.24 54.24 0 0 0 34.15-14.24l1.8 1.79a2.5 2.5 0 1 0 3.53-3.54zM100 65.12a49.11 49.11 0 0 1 34.89-14.57h.11a49.51 49.51 0 0 1 49.45 49.34 49.51 49.51 0 0 1-49.37 49.52H135a49.41 49.41 0 0 1-35-84.33z" class="c64f3c9b-33ab-472e-b3ad-c0e1a7d53e20"/>
    <path d="M121.69 111a7.18 7.18 0 0 1 3.42 6.22v.09a2.5 2.5 0 0 0 0 5v2.45a9.94 9.94 0 0 0 9.92 9.9 9.93 9.93 0 0 0 9.91-9.94v-2.45a2.5 2.5 0 0 0 0-5v-.09a7.18 7.18 0 0 1 3.4-6.24A24.77 24.77 0 0 0 135 65.34 24.77 24.77 0 0 0 121.69 111zm13.37 18.66a4.94 4.94 0 0 1-4.92-4.91v-2.45H140v2.45a4.93 4.93 0 0 1-4.95 4.91zM121 76.15a19.63 19.63 0 0 1 14-5.81 19.77 19.77 0 0 1 10.66 36.41A12.19 12.19 0 0 0 140 117.2v.08h-2.42v-16.26l9.14-9.18a2.5 2.5 0 1 0-3.54-3.53L135 96.46l-8.14-8.11a2.5 2.5 0 1 0-3.53 3.54l9.17 9.11v16.26h-2.42v-.08a12.19 12.19 0 0 0-5.73-10.43 19.77 19.77 0 0 1-3.35-30.6zm46.16 26.29h2.45v2.45a2.5 2.5 0 0 0 2.5 2.5 2.5 2.5 0 0 0 2.5-2.5v-2.45h2.45a2.5 2.5 0 0 0 0-5h-2.46V95a2.5 2.5 0 0 0-2.5-2.5 2.5 2.5 0 0 0-2.5 2.5v2.45h-2.45a2.5 2.5 0 0 0 0 5zm-66.76.12h2.45a2.5 2.5 0 0 0 0-5h-2.45v-2.44a2.5 2.5 0 0 0-2.5-2.5 2.5 2.5 0 0 0-2.5 2.5v2.45h-2.46a2.5 2.5 0 0 0 0 5h2.46V105a2.5 2.5 0 0 0 2.5 2.5 2.5 2.5 0 0 0 2.5-2.5zm78.49-77.18a87.16 87.16 0 0 1 30.57 30.47 2.5 2.5 0 0 0 4.3-2.55 92.18 92.18 0 0 0-32.33-32.22 2.5 2.5 0 0 0-2.54 4.31zM213 143a2.5 2.5 0 0 0-3.42.88 87.2 87.2 0 0 1-30.47 30.57 2.5 2.5 0 1 0 2.55 4.3 92.21 92.21 0 0 0 32.22-32.33A2.5 2.5 0 0 0 213 143zM91.11 174.62a87.17 87.17 0 0 1-30.57-30.46 2.5 2.5 0 1 0-4.3 2.55 92.18 92.18 0 0 0 32.33 32.22 2.5 2.5 0 0 0 2.54-4.31zM57 57a2.5 2.5 0 0 0 3.42-.88 87.19 87.19 0 0 1 30.42-30.58 2.5 2.5 0 1 0-2.55-4.3 92.21 92.21 0 0 0-32.22 32.33A2.5 2.5 0 0 0 57 57zm153.14-35.73a2.35 2.35 0 0 0 3.32 0l1.66-1.66 1.66 1.66a2.35 2.35 0 0 0 3.32-3.32l-1.66-1.66 1.66-1.66a2.35 2.35 0 0 0-3.32-3.32L215.11 13l-1.66-1.66a2.35 2.35 0 1 0-3.32 3.32l1.66 1.66-1.66 1.66a2.35 2.35 0 0 0 .01 3.29zM250.59 35a2.34 2.34 0 0 0-3.32 0l-1.66 1.66L244 35a2.35 2.35 0 1 0-3.32 3.32L242.3 40l-1.66 1.66a2.35 2.35 0 1 0 3.36 3.27l1.66-1.66 1.66 1.66a2.35 2.35 0 0 0 3.32-3.32L248.93 40l1.66-1.66a2.34 2.34 0 0 0 0-3.34zm17.06-29.34L269.31 4A2.35 2.35 0 1 0 266 .69l-1.66 1.66-1.66-1.66A2.35 2.35 0 1 0 259.36 4L261 5.66l-1.66 1.66a2.35 2.35 0 1 0 3.32 3.32L264.34 9l1.66 1.64a2.35 2.35 0 1 0 3.32-3.32z" class="c64f3c9b-33ab-472e-b3ad-c0e1a7d53e20"/>
  </g>
</svg>
