<svg xmlns="http://www.w3.org/2000/svg" id="990bf035-a3c8-48ee-b57b-755df98e7593" data-name="4" viewBox="0 0 270 200">
  <defs>
    <style>
      .\35 5bcdbbf-4ec9-40df-8f16-81c90419485f{fill:#fff;}
    </style>
  </defs>
  <path d="M175.64 111.84a79.32 79.32 0 0 0 2.1-18c0-20.29-6.1-38.4-17.55-53a2.43 2.43 0 0 0-.15-.25 83.11 83.11 0 0 0-9.64-10.25l-.45-.41c-.51-.45-1-.89-1.54-1.33l-1.23-1c-.43-.35-.85-.7-1.29-1q-1.26-1-2.57-2l-.84-.6q-1.1-.79-2.24-1.56l-.86-.57c-1-.67-2-1.33-3.09-2a2.5 2.5 0 0 0-2.59 0c-1 .63-2.06 1.28-3.06 1.94l-.93.62q-1.08.73-2.13 1.48l-.93.66q-1.28.94-2.52 1.92c-.46.36-.91.74-1.37 1.11l-1.14 1q-.81.69-1.6 1.38l-.32.29a83.24 83.24 0 0 0-9.75 10.35 2.42 2.42 0 0 0-.15.26C98.35 55.5 92.25 73.6 92.25 93.89a79.32 79.32 0 0 0 2.1 18L83 122a2.5 2.5 0 0 0-.83 1.86v41.5a2.5 2.5 0 0 0 2.5 2.5h10.08a2.5 2.5 0 0 0 2.5-2.5v-9l10.09-10.09v4a2.5 2.5 0 0 0 2.5 2.5h3.63c-1.92 7.66 6.14 14.46 12.28 19.63 3 2.52 5.82 4.91 7.17 6.92a2.5 2.5 0 0 0 4.16 0c1.34-2 4.17-4.4 7.17-6.92 6.13-5.17 14.2-12 12.28-19.63h3.63a2.5 2.5 0 0 0 2.5-2.5v-4l10.09 10.09v9a2.5 2.5 0 0 0 2.5 2.5h10.06a2.5 2.5 0 0 0 2.5-2.5V123.9a2.5 2.5 0 0 0-.81-1.9zm-47.21-82.33l.07-.05q1-.75 2-1.48l.54-.37c.55-.39 1.1-.77 1.66-1.15s1-.69 1.58-1L135 25l.68.44c.55.35 1.09.7 1.63 1.06s1.07.73 1.6 1.1l.61.43q1 .7 1.94 1.43l.14.11a81.43 81.43 0 0 1 11 10.13h-35.23a81.43 81.43 0 0 1 11.06-10.19zm-15.22 15.14h43.57c10.42 13.66 16 30.46 16 49.24a74.76 74.76 0 0 1-2.51 19q-.25 1-.53 1.92c-.14.48-.28 1-.43 1.45s-.34 1.06-.52 1.58q-1.09 3.24-2.45 6.41l-.38.87v.07H104.1v-.1l-.34-.78q-1.39-3.21-2.49-6.51c-.17-.51-.34-1-.5-1.54s-.29-1-.44-1.47-.36-1.27-.53-1.91a74.76 74.76 0 0 1-2.51-19c-.04-18.78 5.5-35.57 15.92-49.23zM161.86 133c-.49.83-1 1.65-1.5 2.46-.2.32-.42.64-.63 1s-.6.89-.9 1.33h-47.66c-.3-.43-.59-.86-.88-1.3s-.45-.66-.66-1c-.47-.73-.91-1.47-1.35-2.22s-.83-1.44-1.23-2.17l-.49-.89h56.88l-.55 1c-.34.58-.68 1.18-1.03 1.79zM93 153.57a2.5 2.5 0 0 0-.73 1.77v7.56h-5.08V125l8.6-7.74c.12.4.26.8.39 1.2l.17.53q.44 1.34.92 2.66l.07.2a84.08 84.08 0 0 0 3.77 8.7v.09q.66 1.31 1.37 2.61l.2.37q.62 1.12 1.28 2.22l.43.72q.56.91 1.14 1.81l.66 1 .36.56zm48 15a77.05 77.05 0 0 0-6 5.43 76.9 76.9 0 0 0-6-5.43c-7.58-6.39-12.49-11.06-10.18-15.81h13.7v10.08a2.5 2.5 0 1 0 5 0v-10.03h13.71c2.13 4.33-1.59 8.55-10.23 15.81zm16.63-20.81h-45.28v-5.06h45.31zm25.15 15.09h-5.06v-7.56a2.5 2.5 0 0 0-.73-1.77L163.4 140l.35-.53.71-1.09c.37-.57.73-1.15 1.09-1.73l.48-.81q.62-1.05 1.22-2.12l.26-.48q.68-1.24 1.31-2.49l.1-.2q.69-1.37 1.32-2.77v-.05q.65-1.43 1.25-2.89v-.07q.58-1.41 1.1-2.83l.09-.25q.48-1.31.91-2.63l.18-.55c.13-.4.27-.79.39-1.19l8.6 7.74z" class="55bcdbbf-4ec9-40df-8f16-81c90419485f"/>
  <path d="M135 105a20.11 20.11 0 1 0-20.11-20.1A20.13 20.13 0 0 0 135 105zm0-35.22a15.11 15.11 0 1 1-15.11 15.12A15.12 15.12 0 0 1 135 69.79z" class="55bcdbbf-4ec9-40df-8f16-81c90419485f"/>
  <path d="M135 94.95a10 10 0 1 0-10-10 10.06 10.06 0 0 0 10 10zm0-15.09a5 5 0 1 1-5 5 5.05 5.05 0 0 1 5-5.01zm52.82 7.58a2.5 2.5 0 0 0-2.5 2.5v20.12a2.5 2.5 0 1 0 5 0V89.94a2.5 2.5 0 0 0-2.5-2.5zM84.68 110.06V89.94a2.5 2.5 0 0 0-5 0v20.12a2.5 2.5 0 0 0 5 0z" class="55bcdbbf-4ec9-40df-8f16-81c90419485f"/>
  <path d="M72.1 100A63.16 63.16 0 0 1 98 49.16a2.5 2.5 0 1 0-2.95-4A68.17 68.17 0 0 0 67.1 100a67.48 67.48 0 0 0 5.22 26.15 2.5 2.5 0 0 0 4.61-1.93A62.51 62.51 0 0 1 72.1 100zm122.31 27.5a2.49 2.49 0 0 0 3.27-1.34 67.95 67.95 0 0 0-22.69-81 2.5 2.5 0 0 0-2.95 4 63 63 0 0 1 21 75.07 2.5 2.5 0 0 0 1.37 3.27zm-75.36 46.28a75.05 75.05 0 0 1-13.27-4.17 2.5 2.5 0 0 0-1.94 4.61 80 80 0 0 0 14.16 4.45 2.5 2.5 0 0 0 1.05-4.89z" class="55bcdbbf-4ec9-40df-8f16-81c90419485f"/>
  <path d="M156.18 22.35a2.5 2.5 0 1 0-1.31 4.82 75.49 75.49 0 0 1 38.57 120.6 2.5 2.5 0 1 0 3.87 3.17 80.49 80.49 0 0 0-41.13-128.59zM59.52 100a75.61 75.61 0 0 1 55.61-72.83 2.5 2.5 0 1 0-1.31-4.82A80.49 80.49 0 0 0 72.7 150.94a2.5 2.5 0 0 0 3.87-3.17A75.6 75.6 0 0 1 59.52 100zm104.7 69.62a75.09 75.09 0 0 1-13.27 4.17 2.5 2.5 0 1 0 1.05 4.89 80.13 80.13 0 0 0 14.16-4.45 2.5 2.5 0 0 0-1.94-4.61zm46.92-149.35a2.35 2.35 0 0 0 3.32 0l1.66-1.66 1.66 1.66a2.35 2.35 0 0 0 3.32-3.32l-1.66-1.66 1.66-1.66a2.35 2.35 0 0 0-3.32-3.32L216.11 12l-1.66-1.66a2.35 2.35 0 1 0-3.32 3.32l1.66 1.66-1.66 1.66a2.35 2.35 0 0 0 .01 3.29zM251.59 34a2.34 2.34 0 0 0-3.32 0l-1.66 1.66L245 34a2.35 2.35 0 1 0-3.32 3.32L243.3 39l-1.66 1.66a2.35 2.35 0 1 0 3.36 3.27l1.66-1.66 1.66 1.66a2.35 2.35 0 0 0 3.32-3.32L249.93 39l1.66-1.66a2.34 2.34 0 0 0 0-3.34zm16.06-28.34L269.31 4A2.35 2.35 0 1 0 266 .69l-1.66 1.66-1.66-1.66A2.35 2.35 0 1 0 259.36 4L261 5.66l-1.66 1.66a2.35 2.35 0 1 0 3.32 3.32L264.34 9l1.66 1.64a2.35 2.35 0 1 0 3.32-3.32zM65.41 182.4a2.34 2.34 0 0 0-3.32 0l-1.66 1.66-1.66-1.66a2.35 2.35 0 0 0-3.32 3.32l1.66 1.66-1.65 1.62a2.35 2.35 0 0 0 3.32 3.32l1.66-1.66 1.66 1.66a2.35 2.35 0 0 0 3.31-3.32l-1.66-1.66 1.66-1.66a2.34 2.34 0 0 0 0-3.28zm-54.77 6.96a2.35 2.35 0 0 0-3.32 0L5.66 191 4 189.36a2.35 2.35 0 0 0-3.32 3.32l1.66 1.66L.69 196A2.35 2.35 0 0 0 4 199.31l1.66-1.66 1.66 1.66a2.35 2.35 0 0 0 3.32-3.31L9 194.34l1.66-1.66a2.35 2.35 0 0 0-.02-3.32zm22.59-35.28a2.34 2.34 0 0 0-3.32 0l-1.66 1.66-1.66-1.66a2.35 2.35 0 1 0-3.32 3.32l1.66 1.66-1.66 1.66A2.35 2.35 0 0 0 26.6 164l1.66-1.66 1.65 1.66a2.35 2.35 0 0 0 3.32-3.32l-1.66-1.66 1.66-1.66a2.34 2.34 0 0 0 0-3.28z" class="55bcdbbf-4ec9-40df-8f16-81c90419485f"/>
</svg>
