<?xml version="1.0" encoding="UTF-8"?>
<svg width="270px" height="201px" viewBox="0 0 270 201" version="1.1" xmlns="http://www.w3.org/2000/svg" xmlns:xlink="http://www.w3.org/1999/xlink">
    <!-- Generator: Sketch 46.2 (44496) - http://www.bohemiancoding.com/sketch -->
    <title>img-1-svg</title>
    <desc>Created with Sketch.</desc>
    <defs></defs>
    <g id="DS_TOP2%" stroke="none" stroke-width="1" fill="none" fill-rule="evenodd">
        <g id="DS-TOP2%-1920" transform="translate(-524.000000, -799.000000)" fill-rule="nonzero" fill="#FFFFFF">
            <g id="01" transform="translate(374.000000, 779.000000)">
                <g id="img-1-svg" transform="translate(150.000000, 19.000000)">
                    <path d="M172.71,37.49 L159.71,37.49 L159.71,24.49 C159.71,23.9118281 159.480322,23.3573365 159.071493,22.9485072 C158.662663,22.5396779 158.108172,22.31 157.53,22.31 L34.33,22.31 C33.1260192,22.31 32.15,23.2860192 32.15,24.49 L32.15,158.32 C32.15,158.898172 32.3796779,159.452663 32.7885072,159.861493 C33.1973365,160.270322 33.7518281,160.5 34.33,160.5 L47.33,160.5 L47.33,173.5 C47.33,174.703981 48.3060192,175.68 49.51,175.68 L172.71,175.68 C173.913981,175.68 174.89,174.703981 174.89,173.5 L174.89,39.67 C174.89,38.4660192 173.913981,37.49 172.71,37.49 Z M36.51,26.62 L155.29,26.62 L155.29,156.14 L36.51,156.14 L36.51,26.62 Z M170.51,171.37 L51.74,171.37 L51.74,160.5 L157.48,160.5 C158.683981,160.5 159.66,159.523981 159.66,158.32 L159.66,41.86 L170.53,41.86 L170.51,171.37 Z" id="Shape"></path>
                    <path d="M147.19,135.12 L147.19,36.91 C147.190006,36.3300913 146.958956,35.7740789 146.547961,35.3649609 C146.136967,34.9558429 145.579903,34.7273399 145,34.73 L46.8,34.73 C45.5960192,34.73 44.62,35.7060192 44.62,36.91 L44.62,135.12 C44.62,136.323981 45.5960192,137.3 46.8,137.3 L145,137.3 C145.579903,137.30266 146.136967,137.074157 146.547961,136.665039 C146.958956,136.255921 147.190006,135.699909 147.19,135.12 Z M103.43,56.53 C103.68,55.83 103.89,55.11 104.09,54.39 L104.22,53.91 C104.39,53.23 104.55,52.55 104.67,51.85 C112.851363,54.9514754 118.738572,62.2054932 120.09,70.85 L119.9,70.85 C119.106667,70.69 118.323333,70.4933333 117.55,70.26 L117.14,70.12 C116.352294,69.8660568 115.577967,69.5723465 114.82,69.24 L114.69,69.18 C113.95,68.85 113.24,68.47 112.54,68.07 L112.24,67.9 C111.55,67.49 110.88,67.04 110.24,66.56 L109.87,66.28 C109.23,65.79 108.62,65.28 108.03,64.73 L107.76,64.47 C107.143518,63.9069064 106.556092,63.3128048 106,62.69 L105.94,62.62 C105.402741,61.979638 104.898743,61.3120912 104.43,60.62 L104.19,60.27 C103.757931,59.5803659 103.360765,58.8694707 103,58.14 L102.9,57.94 C103.07,57.52 103.23,57.11 103.38,56.68 L103.43,56.53 Z M100.43,50.82 C100.43,50.99 100.36,51.15 100.33,51.32 C100.24,51.8 100.14,52.32 100.03,52.75 C99.98,52.96 99.92,53.18 99.86,53.39 C99.74,53.83 99.6066667,54.2666667 99.46,54.7 C99.39,54.89 99.33,55.09 99.26,55.28 C99.04,55.89 98.8,56.5 98.52,57.09 C98.24,57.68 97.93,58.28 97.61,58.86 L97.25,59.46 C97.04,59.82 96.82,60.17 96.59,60.51 L96.08,61.23 C95.88,61.5033333 95.6766667,61.7733333 95.47,62.04 C95.26,62.3 95.05,62.57 94.84,62.82 L94.31,63.4 C93.286994,64.499902 92.16567,65.5040728 90.96,66.4 L90.89,66.46 C90.48,66.77 90.05,67.06 89.62,67.34 L89.39,67.49 C88.9566667,67.7633333 88.52,68.0233333 88.08,68.27 L87.88,68.38 C86.0265763,69.392895 84.0502817,70.1625744 82,70.67 L81.24,70.85 L80.24,71.03 C79.86,71.09 79.49,71.15 79.11,71.19 L78.39,71.27 C77.8,71.32 77.2,71.36 76.6,71.37 L76.47,71.37 C75.88,71.37 75.28,71.37 74.68,71.31 L74.23,71.31 C73.73,71.31 73.23,71.19 72.74,71.12 L72,71 L71.76,70.95 C73.6485651,59.0616094 83.8627773,50.2860186 95.9,50.21 C96.58,50.21 97.24,50.21 97.9,50.31 C98.7420541,50.3792024 99.5798805,50.4926928 100.41,50.65 C100.41,50.71 100.4,50.77 100.4,50.82 L100.43,50.82 Z M71.43,75.32 L71.88,75.38 C72.32,75.4533333 72.76,75.5133333 73.2,75.56 L73.93,75.64 C74.38,75.64 74.83,75.7 75.29,75.72 L78.78,75.72 C79.32,75.72 79.86,75.62 80.4,75.54 L80.55,75.54 C87.7586594,74.4068551 94.2714728,70.587767 98.78,64.85 C98.94,64.65 99.1,64.46 99.26,64.26 C99.42,64.06 99.45,63.98 99.55,63.84 C99.86,63.41 100.17,62.99 100.46,62.54 L100.61,62.75 C101.07,63.44 101.56,64.11 102.07,64.75 L102.39,65.16 C102.95,65.8266667 103.54,66.4933333 104.16,67.16 L104.57,67.56 C105.18,68.15 105.81,68.72 106.46,69.26 L106.61,69.39 C107.3,69.95 108.03,70.46 108.77,70.95 L109.28,71.28 C110.02,71.75 110.78,72.19 111.56,72.59 L111.94,72.77 C112.66,73.13 113.396667,73.4633333 114.15,73.77 L114.6,73.95 C115.43,74.26 116.27,74.53 117.13,74.76 L117.69,74.9 C118.57,75.12 119.45,75.31 120.36,75.45 L120.36,84.65 C120.36,98.1809764 109.390976,109.15 95.86,109.15 C82.3290236,109.15 71.36,98.1809764 71.36,84.65 L71.43,75.32 Z M95.93,113.46 C105.258146,113.453328 114.0066,108.93379 119.41,101.33 C128.63877,105.072108 134.67238,114.041415 134.66,124 L134.66,132.93 L57.14,132.93 L57.14,124 C57.1325618,114.034042 63.1794508,105.062643 72.42,101.33 C77.8233995,108.93379 86.571854,113.453328 95.9,113.46 L95.93,113.46 Z M142.85,132.93 L139,132.93 L139,124 C139.008717,112.506527 132.18059,102.109062 121.63,97.55 C123.67407,93.5217727 124.736322,89.067167 124.73,84.55 L124.73,73.36 C124.172756,60.8208699 115.540144,50.0948903 103.41,46.87 C101.722996,46.4256878 99.9993403,46.1345072 98.26,46 C97.4,45.93 96.67,45.88 95.9,45.88 C80.8826549,45.9566639 68.4081707,57.4852568 67.15,72.45 C67.09,73.2 67.04,73.95 67.04,74.71 L67.04,84.6 C67.0336779,89.117167 68.09593,93.5717727 70.14,97.6 C59.6060768,102.151858 52.781227,112.524686 52.77,124 L52.77,132.93 L49,132.93 L49,39.09 L142.84,39.09 L142.85,132.93 Z" id="Shape"></path>
                    <path d="M82.42,79.37 L90.61,79.37 L90.61,83.74 L82.42,83.74 L82.42,79.37 Z M101.77,79.37 L109.96,79.37 L109.96,83.74 L101.77,83.74 L101.77,79.37 Z M95.79,100.65 C99.3226076,100.649635 102.680442,99.1130612 104.99,96.44 L101.69,93.58 C100.211848,95.2925438 98.0622414,96.2779321 95.8,96.28 C94.3722931,96.2791233 92.9719277,95.888404 91.75,95.15 L89.49,98.89 C91.3908444,100.03873 93.5690131,100.647234 95.79,100.65 L95.79,100.65 Z M241.75,21.5 L194.17,21.5 C188.997377,21.5055116 184.805512,25.6973766 184.8,30.87 L184.8,57 C184.807556,61.3131629 187.752482,65.0664996 191.94,66.1 L191.94,76.03 C191.937439,76.933912 192.480789,77.7499584 193.315755,78.0962173 C194.150721,78.4424762 195.112119,78.2504461 195.75,77.61 L207,66.41 L241.77,66.41 C244.257735,66.4020562 246.640421,65.4061825 248.393889,63.6414624 C250.147357,61.8767423 251.127969,59.4877345 251.12,57 L251.12,30.87 C251.114488,25.6973766 246.922623,21.5055116 241.75,21.5 L241.75,21.5 Z M246.66,57 C246.684158,58.3177361 246.177541,59.5898601 245.254106,60.5302217 C244.330671,61.4705832 243.067958,62.0002214 241.75,62 L206.06,62 C205.467928,61.998327 204.899494,62.2321762 204.48,62.65 L196.39,70.74 L196.39,64.18 C196.362915,62.9718516 195.378441,62.0051155 194.17,62 C192.852042,62.0002214 191.589329,61.4705832 190.665894,60.5302217 C189.742459,59.5898601 189.235842,58.3177361 189.26,57 L189.26,30.87 C189.281965,28.1739158 191.473826,25.9999105 194.17,26 L241.76,26 C244.471718,26 246.67,28.1982819 246.67,30.91 L246.66,57 Z M269.31,23.24 C268.867315,22.7966624 268.266513,22.5475431 267.64,22.5475431 C267.013487,22.5475431 266.412685,22.7966624 265.97,23.24 L264.3,24.91 L262.63,23.24 C261.707684,22.3176846 260.212316,22.3176847 259.29,23.2400001 C258.367685,24.1623156 258.367685,25.6576844 259.29,26.58 L261,28.25 L259.33,29.92 C258.407684,30.8423155 258.407684,32.3376845 259.33,33.26 C260.252316,34.1823155 261.747684,34.1823155 262.67,33.26 L264.34,31.59 L266,33.26 C266.596634,33.8566335 267.466246,34.0896455 268.281262,33.8712624 C269.096279,33.6528794 269.732879,33.016279 269.951262,32.2012624 C270.169645,31.3862459 269.936634,30.5166335 269.34,29.92 L267.67,28.25 L269.34,26.58 C269.779385,26.1333448 270.023124,25.5303007 270.017496,24.90378 C270.011869,24.2772593 269.757337,23.6786906 269.31,23.24 L269.31,23.24 Z M232.24,1.69 C231.797315,1.24666245 231.196513,0.997543103 230.57,0.997543103 C229.943487,0.997543103 229.342685,1.24666245 228.9,1.69 L227.23,3.36 L225.56,1.69 C224.626237,0.898221088 223.242056,0.951945731 222.372473,1.8137185 C221.502889,2.67549126 221.436678,4.05913107 222.22,5 L223.89,6.67 L222.22,8.34 C221.297685,9.26231555 221.297685,10.7576844 222.22,11.6799999 C223.142316,12.6023154 224.637684,12.6023155 225.56,11.68 L227.23,10 L228.9,11.67 C229.822316,12.5923155 231.317684,12.5923154 232.24,11.6699999 C233.162315,10.7476844 233.162315,9.25231555 232.24,8.33 L230.57,6.7 L232.24,5 C233.143425,4.08160096 233.143425,2.60839904 232.24,1.69 L232.24,1.69 Z M246.53,83.45 C246.972685,83.8933376 247.573487,84.1424569 248.2,84.1424569 C248.826513,84.1424569 249.427315,83.8933376 249.87,83.45 L251.54,81.78 L253.21,83.45 C253.806634,84.0466335 254.676246,84.2796455 255.491262,84.0612624 C256.306279,83.8428794 256.942879,83.206279 257.161262,82.3912624 C257.379645,81.5762459 257.146634,80.7066335 256.55,80.11 L254.88,78.44 L256.55,76.77 C257.472315,75.8476845 257.472315,74.3523156 256.55,73.4300001 C255.627684,72.5076846 254.132316,72.5076845 253.21,73.43 L251.54,75.1 L249.87,73.43 C248.947684,72.5076845 247.452316,72.5076845 246.53,73.43 C245.607684,74.3523155 245.607684,75.8476845 246.53,76.77 L248.2,78.44 L246.53,80.11 C246.086662,80.5526853 245.837543,81.1534871 245.837543,81.78 C245.837543,82.4065129 246.086662,83.0073147 246.53,83.45 L246.53,83.45 Z M33.49,190.29 C33.0473147,189.846662 32.4465129,189.597543 31.82,189.597543 C31.1934871,189.597543 30.5926853,189.846662 30.15,190.29 L28.48,192 L26.81,190.33 C25.8876845,189.407685 24.3923156,189.407685 23.4700001,190.33 C22.5476846,191.252316 22.5476845,192.747684 23.47,193.67 L25.14,195.34 L23.47,197 C22.5476845,197.922316 22.5476846,199.417684 23.4700001,200.34 C24.3923156,201.262315 25.8876845,201.262315 26.81,200.34 L28.48,198.67 L30.15,200.34 C31.0723155,201.262316 32.5676845,201.262316 33.49,200.34 C34.4123155,199.417684 34.4123155,197.922316 33.49,197 L31.82,195.33 L33.49,193.66 C33.9425986,193.216162 34.1976154,192.608907 34.1976154,191.975 C34.1976154,191.341093 33.9425986,190.733838 33.49,190.29 L33.49,190.29 Z M23.47,178.34 C23.9126853,178.783338 24.5134871,179.032457 25.14,179.032457 C25.7665129,179.032457 26.3673147,178.783338 26.81,178.34 L28.48,176.67 L30.15,178.34 C30.7466335,178.936634 31.6162459,179.169646 32.4312625,178.951263 C33.2462791,178.732879 33.8828795,178.096279 34.1012625,177.281262 C34.3196455,176.466246 34.0866336,175.596634 33.49,175 L31.82,173.33 L33.49,171.66 C34.0866335,171.063366 34.3196455,170.193754 34.1012624,169.378738 C33.8828794,168.563721 33.246279,167.927121 32.4312624,167.708738 C31.6162459,167.490355 30.7466335,167.723366 30.15,168.32 L28.48,170 L26.81,168.33 C26.2133665,167.733366 25.3437541,167.500354 24.5287375,167.718737 C23.7137209,167.937121 23.0771205,168.573721 22.8587375,169.388738 C22.6403545,170.203754 22.8733664,171.073366 23.47,171.67 L25.14,173.34 L23.47,175 C23.0266624,175.442685 22.7775431,176.043487 22.7775431,176.67 C22.7775431,177.296513 23.0266624,177.897315 23.47,178.34 L23.47,178.34 Z M11,168.32 C10.5573147,167.876662 9.95651295,167.627543 9.33,167.627543 C8.70348705,167.627543 8.10268532,167.876662 7.66,168.32 L6,170 L4.33,168.33 C3.39486689,167.512882 1.98647689,167.560256 1.1083663,168.438366 C0.230255722,169.316477 0.182881615,170.724867 1,171.66 L2.67,173.33 L1,175 C0.0776845456,175.922316 0.0776845825,177.417684 1.00000008,178.34 C1.92231558,179.262315 3.41768445,179.262315 4.34,178.34 L6,176.67 L7.67,178.34 C8.25835378,178.974246 9.14657545,179.23574 9.98473587,179.021461 C10.8228963,178.807182 11.476634,178.151481 11.6883985,177.312682 C11.900163,176.473883 11.6360074,175.586449 11,175 L9.33,173.33 L11,171.66 C11.4433376,171.217315 11.6924569,170.616513 11.6924569,169.99 C11.6924569,169.363487 11.4433376,168.762685 11,168.32 L11,168.32 Z" id="Shape"></path>
                    <circle id="Oval" cx="200.5" cy="51.5" r="3.5"></circle>
                    <circle id="Oval" cx="212.5" cy="51.5" r="3.5"></circle>
                    <circle id="Oval" cx="224.5" cy="51.5" r="3.5"></circle>
                </g>
            </g>
        </g>
    </g>
</svg>