<?xml version="1.0" encoding="UTF-8"?>
<svg width="33px" height="29px" viewBox="0 0 33 29" version="1.1" xmlns="http://www.w3.org/2000/svg" xmlns:xlink="http://www.w3.org/1999/xlink">
    <!-- Generator: Sketch 46.2 (44496) - http://www.bohemiancoding.com/sketch -->
    <title>upload</title>
    <desc>Created with Sketch.</desc>
    <defs></defs>
    <g id="DS_Get--proposal" stroke="none" stroke-width="1" fill="none" fill-rule="evenodd">
        <g id="DS-Get--proposal-1920" transform="translate(-528.000000, -841.000000)" fill-rule="nonzero" fill="#A4B3B7">
            <g id="Блок" transform="translate(474.000000, 150.000000)">
                <g id="1" transform="translate(1.000000, 190.000000)">
                    <g id="form">
                        <g id="Group-2" transform="translate(1.000000, 0.000000)">
                            <g id="Drag-&amp;-drop" transform="translate(2.000000, 460.000000)">
                                <path d="M74.6,48 C73.2,44.3 70.1,41.9 65.4,41.9 C59.5,41.9 55.3,46.2 54.9,51.8 C52,52.7 50,55.5 50,58.8 C50,62.8 53.2,66.1 57,66.1 L60,66.1 C60.6,66.1 61,65.7 61,65.1 C61,64.5 60.5,64.1 60,64.1 L57,64.1 C54.3,64.1 52.1,61.7 52.1,58.8 C52.1,56.3 53.9,54 56.2,53.6 L57.1,53.4 L57,52.5 C57,47.6 60.3,43.9 65.4,43.9 C69.5,43.9 71.8,45.9 72.9,49.2 L73.1,49.9 L73.8,49.9 C77.6,50 81,53 81,56.8 C81,60.2 78.7,64 75.1,64 L72.7,64 C72.1,64 71.7,64.4 71.7,65 C71.7,65.6 72.2,66 72.7,66 L75.1,66 C80.3,65.9 82.9,61.1 82.9,56.7 C83,52.2 79.2,48.5 74.6,48 M67.3,56 C67.3,56 67.3,56 67.3,56 L67,55.7 C66.9,55.6 66.7,55.5 66.5,55.5 C66.3,55.5 66.1,55.6 66,55.7 L65.7,56 C65.7,56 65.7,56 65.7,56 L62,60 C61.7,60.3 61.7,60.8 62,61.1 L62.3,61.3 C62.6,61.6 63.1,61.5 63.3,61.2 L65.5,58.8 L65.5,68.9 C65.5,69.5 66,69.9 66.5,69.9 C67.1,69.9 67.5,69.4 67.5,68.9 L67.5,58.8 L69.8,61.2 C70.1,61.5 70.6,61.6 70.8,61.3 L71.1,61.1 C71.4,60.8 71.4,60.3 71.1,60 L67.3,56" id="upload"></path>
                            </g>
                        </g>
                    </g>
                </g>
            </g>
        </g>
    </g>
</svg>