<?xml version="1.0" encoding="UTF-8"?>
<svg width="130px" height="130px" viewBox="0 0 130 130" version="1.1" xmlns="http://www.w3.org/2000/svg" xmlns:xlink="http://www.w3.org/1999/xlink">
    <!-- Generator: Sketch 46.2 (44496) - http://www.bohemiancoding.com/sketch -->
    <title>user_</title>
    <desc>Created with Sketch.</desc>
    <defs></defs>
    <g id="DS_WHY-how" stroke="none" stroke-width="1" fill="none" fill-rule="evenodd">
        <g id="DS-WHY-how-1920" transform="translate(-472.000000, -2990.000000)" fill-rule="nonzero" fill="#5AA8ED">
            <g id="Body" transform="translate(0.000000, 640.000000)">
                <g id="Choose-the-communica" transform="translate(375.000000, 1870.000000)">
                    <g id="step01" transform="translate(62.000000, 455.000000)">
                        <g id="user_" transform="translate(35.000000, 25.000000)">
                            <path d="M64.5,76 C49.375,76 37,63.625 37,48.5 C37,33.375 49.375,21 64.5,21 C79.625,21 92,33.375 92,48.5 C92,63.625 79.625,76 64.5,76 Z M64.5,24.4375 C51.265625,24.4375 40.4375,35.265625 40.4375,48.5 C40.4375,61.734375 51.265625,72.5625 64.5,72.5625 C77.734375,72.5625 88.5625,61.734375 88.5625,48.5 C88.5625,35.265625 77.734375,24.4375 64.5,24.4375 Z" id="Shape"></path>
                            <path d="M65,130 C29.137931,130 0,100.862069 0,65 C0,29.137931 29.137931,0 65,0 C100.862069,0 130,29.137931 130,65 C130,100.862069 100.862069,130 65,130 Z M65,3.44827586 C31.0344828,3.44827586 3.44827586,31.0344828 3.44827586,65 C3.44827586,98.9655172 31.0344828,126.551724 65,126.551724 C98.9655172,126.551724 126.551724,98.9655172 126.551724,65 C126.551724,31.0344828 98.9655172,3.44827586 65,3.44827586 Z" id="Shape"></path>
                            <path d="M22.9606742,111 L20,109.083871 C30.4494382,93.4064516 47.8651685,84 66.6741573,84 C85.3089888,84 102.550562,93.2322581 113,108.56129 L110.039326,110.477419 C100.286517,96.0193548 84.0898876,87.3096774 66.6741573,87.3096774 C49.0842697,87.3096774 32.7134831,96.1935484 22.9606742,111 Z" id="Shape"></path>
                        </g>
                    </g>
                </g>
            </g>
        </g>
    </g>
</svg>