<?xml version="1.0" encoding="UTF-8"?>
<svg width="24px" height="18px" viewBox="0 0 24 18" version="1.1" xmlns="http://www.w3.org/2000/svg" xmlns:xlink="http://www.w3.org/1999/xlink">
    <!-- Generator: Sketch 46.2 (44496) - http://www.bohemiancoding.com/sketch -->
    <title>video-icon-svg</title>
    <desc>Created with Sketch.</desc>
    <defs></defs>
    <g id="DS_our-work-case" stroke="none" stroke-width="1" fill="none" fill-rule="evenodd">
        <g id="DS-our-work-case-1920" transform="translate(-887.000000, -3549.000000)" fill="#5AA8ED">
            <g id="5" transform="translate(647.000000, 3073.000000)">
                <g id="Video-reference" transform="translate(231.000000, 470.000000)">
                    <path d="M19.875,12.665 L23.531,15 L19.875,17.327 L19.875,12.665 Z M19.1,10.321 C18.689,10.318 18.314,10.729 18.315,11.182 L18.315,18.818 C18.314,18.847 18.314,18.875 18.315,18.903 C18.343,19.186 18.505,19.447 18.734,19.576 C18.963,19.706 19.25,19.699 19.475,19.56 L25.483,15.741 C25.72,15.592 25.875,15.297 25.875,14.996 C25.875,14.694 25.72,14.399 25.483,14.25 L19.475,10.432 C19.36,10.361 19.23,10.322 19.1,10.321 L19.1,10.321 Z M12,7.637 L30,7.637 C30.77,7.637 31.364,8.23 31.364,9 L31.364,21 C31.364,21.769 30.77,22.363 30,22.363 L12,22.363 C11.23,22.363 10.636,21.769 10.636,21 L10.636,9 C10.636,8.23 11.23,7.637 12,7.637 L12,7.637 Z M12,6 C10.352,6 9,7.353 9,9 L9,21 C9,22.647 10.352,24 12,24 L30,24 C31.648,24 33,22.647 33,21 L33,9 C33,7.353 31.648,6 30,6 L12,6 Z" id="video-icon-svg"></path>
                </g>
            </g>
        </g>
    </g>
</svg>