<svg xmlns="http://www.w3.org/2000/svg" viewBox="0 0 182 182">
  <path fill="#5AA8ED" fill-rule="evenodd" d="M105.86 89.626c.828 1.436.337 3.266-1.097 4.095-1.434.828-3.264.338-4.094-1.097-.827-1.433-.335-3.267 1.097-4.094 1.434-.828 3.265-.337 4.093 1.096zm-51.17-13.71c1.433-.828 3.265-.337 4.093 1.097.828 1.434.336 3.266-1.095 4.093-1.437.827-3.266.336-4.095-1.095-.828-1.434-.336-3.266 1.097-4.093zm-13.712 13.71c.827-1.433 2.66-1.924 4.094-1.097 1.435.827 1.927 2.66 1.097 4.093-.828 1.435-2.66 1.926-4.094 1.098-1.435-.827-1.926-2.658-1.098-4.094zm0 37.46c-.828-1.434-.337-3.265 1.1-4.094 1.43-.827 3.264-.336 4.093 1.097.83 1.433.337 3.265-1.098 4.092-1.433.828-3.267.338-4.094-1.096zm13.712 13.71c-1.433-.826-1.925-2.658-1.097-4.093.83-1.433 2.663-1.926 4.095-1.096 1.433.827 1.925 2.66 1.095 4.093-.826 1.434-2.658 1.925-4.093 1.096zm37.46 0c-1.434.83-3.267.338-4.095-1.098-.828-1.43-.337-3.264 1.1-4.093 1.432-.828 3.266-.335 4.09 1.098.83 1.434.34 3.266-1.095 4.093zm13.71-13.71c-.828 1.434-2.66 1.922-4.095 1.096-1.43-.827-1.922-2.66-1.096-4.093.83-1.435 2.66-1.925 4.095-1.098 1.432.827 1.923 2.66 1.095 4.094zM80.017 53.3c-1.398-.163-2.527-1.294-2.635-2.748l-.74-9.622h-6.443l-.738 9.553c-.07 1.433-1.167 2.647-2.637 2.82-5.216.618-10.33 1.976-15.16 4.038-1.303.6-2.882.192-3.716-1.03l-5.454-7.965-5.59 3.226 4.144 8.654c.65 1.27.312 2.86-.87 3.745-4.19 3.14-8.007 6.957-11.15 11.147-.835 1.12-2.367 1.528-3.675.904l-8.72-4.178-3.226 5.59 7.963 5.454c1.156.786 1.634 2.303 1.065 3.64-2.077 4.85-3.452 9.995-4.072 15.234-.165 1.397-1.296 2.526-2.75 2.635l-9.622.74v6.443l9.555.736c1.433.07 2.647 1.166 2.82 2.638.616 5.215 1.978 10.327 4.04 15.156.597 1.3.19 2.883-1.033 3.717l-7.968 5.456 3.225 5.59 8.655-4.146c1.27-.65 2.86-.31 3.743.87 3.16 4.212 6.937 7.99 11.15 11.15 1.116.836 1.526 2.37.9 3.676l-4.177 8.72 5.59 3.227 5.453-7.964c.785-1.155 2.303-1.632 3.64-1.065 4.85 2.08 9.993 3.452 15.235 4.072 1.395.163 2.525 1.298 2.633 2.752l.74 9.62h6.443l.736-9.555c.072-1.434 1.17-2.647 2.64-2.822 5.215-.617 10.33-1.978 15.156-4.038 1.3-.6 2.883-.19 3.717 1.032l5.454 7.967 5.59-3.226-4.146-8.654c-.65-1.27-.31-2.858.87-3.743 4.21-3.16 7.99-6.937 11.15-11.148.835-1.12 2.37-1.528 3.676-.903l8.72 4.178 3.227-5.59-7.963-5.452c-1.154-.787-1.633-2.305-1.065-3.64 2.08-4.85 3.45-9.995 4.074-15.236.16-1.395 1.294-2.524 2.748-2.634l9.622-.74v-6.443l-9.556-.736c-1.433-.073-2.647-1.168-2.82-2.64-.618-5.215-1.978-10.326-4.04-15.155-.598-1.3-.19-2.882 1.034-3.716l7.967-5.458-3.226-5.59-8.654 4.146c-1.27.65-2.86.312-3.743-.87-3.157-4.206-6.942-7.992-11.15-11.15-1.117-.835-1.526-2.368-.9-3.674l4.177-8.723-5.59-3.225-5.453 7.964c-.8 1.176-2.328 1.622-3.64 1.064-4.85-2.08-9.993-3.45-15.233-4.073zm3.15-5.604c4.15.663 8.22 1.75 12.148 3.253l5.655-8.265c.9-1.318 2.664-1.69 4.012-.875l10.34 5.967c1.41.82 1.9 2.612 1.118 4.033l-4.264 8.896c3.265 2.656 6.238 5.63 8.893 8.896l9.054-4.34c1.4-.672 3.094-.156 3.875 1.194l5.993 10.38c.778 1.347.387 3.092-.903 3.97l-8.27 5.66c1.502 3.926 2.593 7.994 3.256 12.144l9.987.768c1.563.116 2.78 1.42 2.776 2.985v11.987c0 1.623-1.292 2.948-2.908 2.995l-9.852.757c-.663 4.152-1.753 8.223-3.252 12.147l8.262 5.657c1.318.9 1.69 2.663.876 4.013L134 150.256c-.82 1.412-2.613 1.904-4.034 1.12l-8.897-4.263c-2.654 3.262-5.63 6.24-8.896 8.894l4.34 9.053c.67 1.403.153 3.094-1.193 3.875l-10.38 5.993c-1.348.782-3.092.387-3.97-.903l-5.66-8.266c-3.925 1.5-7.994 2.59-12.144 3.253l-.768 9.99c-.116 1.56-1.42 2.775-2.984 2.773h-11.99c-1.622 0-2.947-1.293-2.992-2.905l-.76-9.854c-4.15-.663-8.22-1.75-12.145-3.25l-5.66 8.26c-.896 1.32-2.66 1.69-4.012.877l-10.336-5.968c-1.41-.817-1.905-2.612-1.12-4.032l4.264-8.896c-3.265-2.656-6.24-5.63-8.894-8.894l-9.056 4.337c-1.4.67-3.093.155-3.874-1.194l-5.992-10.38c-.782-1.347-.387-3.092.9-3.97l8.268-5.66c-1.5-3.925-2.59-7.994-3.252-12.144l-9.99-.768C1.215 117.22 0 115.917 0 114.35v-11.987c0-1.624 1.293-2.948 2.907-2.995l9.853-.758c.663-4.15 1.753-8.22 3.252-12.147L7.75 80.807c-1.32-.9-1.69-2.665-.876-4.014l5.966-10.337c.82-1.41 2.61-1.902 4.034-1.12l8.892 4.263c2.66-3.282 5.616-6.235 8.896-8.896l-4.336-9.052c-.672-1.403-.155-3.096 1.193-3.875l10.38-5.994c1.347-.778 3.092-.386 3.967.902l5.66 8.264c3.925-1.503 7.995-2.59 12.145-3.254l.77-9.984c.113-1.563 1.417-2.777 2.983-2.775h11.99c1.622 0 2.945 1.293 2.993 2.906l.758 9.853zM73.42 64.902c-24 0-43.454 19.456-43.454 43.454 0 24 19.455 43.453 43.454 43.453 23.997 0 43.454-19.455 43.454-43.454 0-23.998-19.457-43.454-43.454-43.454zm0-5.992c27.307 0 49.446 22.14 49.446 49.446 0 27.308-22.14 49.446-49.446 49.446-27.307 0-49.446-22.138-49.446-49.446 0-27.307 22.14-49.446 49.446-49.446zm0 46.45c-1.656 0-2.997 1.34-2.997 2.996s1.34 2.997 2.997 2.997c1.656 0 2.996-1.34 2.996-2.997 0-1.655-1.34-2.996-2.996-2.996zm34.46 0c1.66 0 3 1.34 3 2.996 0 1.654-1.34 2.997-3 2.997-1.653 0-2.995-1.343-2.995-2.997 0-1.655 1.342-2.996 2.996-2.996zm-71.92 2.996c0-1.654 1.34-2.996 2.997-2.996 1.655 0 2.998 1.342 2.998 2.996 0 1.656-1.343 2.997-2.998 2.997-1.657 0-2.996-1.34-2.996-2.997zm37.46 37.46c-1.654 0-2.997-1.34-2.997-2.998 0-1.654 1.343-2.997 2.997-2.997 1.656 0 2.996 1.344 2.996 2.998 0 1.657-1.34 2.997-2.996 2.997zm0-74.92c1.654 0 2.996 1.342 2.996 2.998 0 1.655-1.342 2.997-2.996 2.997-1.656 0-2.997-1.34-2.997-2.996s1.34-2.997 2.997-2.997zm5.234 30.152l6.587-4.613c1.353-.944 3.214-.615 4.16.736.943 1.354.612 3.214-.74 4.157l-6.58 4.61c.215.77.33 1.58.33 2.42 0 4.964-4.027 8.99-8.99 8.99-4.964 0-8.99-4.026-8.99-8.99 0-.567.05-1.12.153-1.658l-12.148-7.013c-1.43-.822-1.918-2.646-1.1-4.073.822-1.43 2.645-1.923 4.074-1.1l12.158 7.017c1.57-1.347 3.615-2.164 5.852-2.164 1.954 0 3.762.623 5.234 1.682zm54.305-78.86c-5.267 9.12-2.356 21.156 7.127 26.63 9.118 5.265 21.15 2.354 26.627-7.13 5.286-9.154 2.32-21.17-7.125-26.626-9.3-5.366-21.26-2.172-26.63 7.126zM154.7 2.22c.43-1.596 2.068-2.545 3.664-2.117 1.598.426 2.548 2.066 2.12 3.663l-1.212 4.523c2.268.91 4.402 2.142 6.322 3.652l3.315-3.31c1.168-1.172 3.065-1.172 4.235 0 1.17 1.17 1.17 3.066 0 4.236l-3.306 3.307c1.49 1.888 2.73 4.008 3.653 6.328l4.517-1.21c1.596-.428 3.238.52 3.663 2.118.427 1.598-.52 3.237-2.12 3.663l-4.51 1.21c.36 2.472.347 4.93 0 7.312l4.51 1.21c1.6.426 2.547 2.066 2.12 3.663-.425 1.597-2.067 2.546-3.663 2.118l-4.524-1.21c-.91 2.27-2.14 4.4-3.652 6.323l3.31 3.31c1.172 1.17 1.172 3.066 0 4.237-1.17 1.17-3.066 1.17-4.235 0l-3.307-3.305c-1.89 1.493-4.01 2.73-6.33 3.655l1.21 4.517c.43 1.596-.52 3.238-2.12 3.663-1.595.427-3.234-.52-3.662-2.12l-1.207-4.51c-2.472.36-4.93.347-7.312 0l-1.21 4.51c-.426 1.6-2.065 2.547-3.662 2.12-1.597-.425-2.548-2.067-2.118-3.663l1.21-4.524c-2.27-.91-4.402-2.142-6.322-3.652l-3.313 3.31c-1.17 1.17-3.065 1.17-4.236 0-1.172-1.172-1.172-3.067 0-4.238l3.305-3.305c-1.494-1.888-2.732-4.01-3.658-6.327l-4.513 1.208c-1.598.428-3.24-.52-3.665-2.118-.426-1.597.52-3.237 2.118-3.663l4.512-1.21c-.362-2.47-.348-4.93 0-7.312l-4.512-1.21c-1.597-.426-2.544-2.065-2.12-3.662.426-1.597 2.068-2.545 3.666-2.117l4.522 1.212c.908-2.27 2.14-4.405 3.653-6.325l-3.31-3.312c-1.172-1.17-1.172-3.067 0-4.237 1.17-1.17 3.065-1.17 4.235 0l3.306 3.306c1.89-1.49 4.012-2.73 6.328-3.653l-1.208-4.517c-.43-1.597.52-3.237 2.118-3.663 1.597-.428 3.236.52 3.663 2.118l1.21 4.514c2.47-.362 4.93-.35 7.313-.002l1.208-4.51zm-6.805 22.48c-4.008 1.073-6.372 5.17-5.298 9.18 1.074 4.015 5.168 6.373 9.18 5.3 4.014-1.075 6.374-5.17 5.3-9.183-1.073-4.006-5.172-6.372-9.182-5.298zm-1.55-5.783c7.187-1.924 14.59 2.355 16.514 9.535 1.92 7.174-2.36 14.59-9.536 16.508-7.176 1.925-14.588-2.36-16.51-9.535-1.925-7.18 2.358-14.584 9.532-16.508zm-54.195 57c1.433.827 1.924 2.66 1.096 4.094-.827 1.432-2.66 1.923-4.092 1.096-1.436-.827-1.927-2.66-1.1-4.093.83-1.434 2.662-1.925 4.096-1.097z"/>
</svg>
