<svg xmlns="http://www.w3.org/2000/svg" viewBox="0 0 185 173">
  <g fill="#5AA8ED" fill-rule="evenodd">
    <path d="M171.636 149.64h6.366c-.517 1.454-1.422 2.76-2.617 3.764-.105-.114-.212-.227-.32-.335l-3.43-3.43zm-4.69 17.34c-1.546 0-3-.604-4.094-1.698l-14.69-14.69-5.812-5.81v-.002l-9.154-9.154 4.094-4.094 2.012-2.012 2.082-2.082 29.656 29.655c.003.003.004.007.008.01.367.37.698.843 1.01 1.448.034.07.087.12.125.18.36.76.554 1.6.554 2.46 0 3.2-2.6 5.79-5.79 5.79zM14.362 155.462c-3.785 0-7.01-2.437-8.19-5.824H139.16l5.822 5.823H14.362zM5.692 14.36c0-4.778 3.89-8.668 8.67-8.668h155.462c4.78 0 8.67 3.89 8.67 8.67v8.67H5.692v-8.67zm86.4 115.192c-23.828 0-43.216-19.386-43.216-43.217 0-23.83 19.388-43.216 43.217-43.216 23.83 0 43.217 19.38 43.217 43.21s-19.387 43.21-43.217 43.21zm51.304-8.15c-1.11-1.113-2.914-1.113-4.024 0l-4.094 4.093-6.67-6.67c7.703-8.645 12.394-20.028 12.394-32.49 0-26.967-21.94-48.908-48.91-48.908-26.967 0-48.908 21.94-48.908 48.908s21.94 48.91 48.91 48.91c12.46 0 23.844-4.692 32.49-12.394l6.67 6.67-4.095 4.1c-1.12 1.11-1.12 2.92 0 4.03l6.3 6.31H5.69V28.73h172.8v115.22h-12.55l-22.55-22.547zM169.824 0H14.362C6.442 0 0 6.442 0 14.36v132.433c0 7.92 6.443 14.363 14.362 14.363h136.313l8.152 8.15c2.17 2.17 5.053 3.365 8.12 3.365 6.33 0 11.482-5.15 11.482-11.48 0-.92-.13-1.83-.34-2.7 3.76-2.66 6.09-7.01 6.09-11.69V14.36c0-7.918-6.44-14.36-14.36-14.36z"/>
    <path d="M106.488 11.515H14.362c-1.572 0-2.846 1.274-2.846 2.847 0 1.572 1.274 2.846 2.846 2.846h92.126c1.572 0 2.846-1.274 2.846-2.846 0-1.573-1.274-2.847-2.846-2.847M92.093 118.037c-17.48 0-31.7-14.222-31.7-31.702 0-17.48 14.22-31.7 31.7-31.7 17.48 0 31.702 14.22 31.702 31.7 0 17.48-14.222 31.702-31.702 31.702m0-69.094c-20.618 0-37.393 16.774-37.393 37.392 0 20.62 16.775 37.394 37.393 37.394 20.62 0 37.394-16.78 37.394-37.4 0-20.62-16.775-37.39-37.394-37.39m54.72-37.43h-.01c-1.572 0-2.842 1.27-2.842 2.84s1.28 2.84 2.86 2.84c1.57 0 2.85-1.28 2.85-2.85s-1.27-2.85-2.84-2.85m11.52 0h-.01c-1.57 0-2.84 1.276-2.84 2.85s1.28 2.846 2.85 2.846 2.85-1.276 2.85-2.848-1.275-2.85-2.85-2.85m11.518 0h-.01c-1.57 0-2.84 1.275-2.84 2.848s1.28 2.85 2.85 2.85 2.847-1.27 2.847-2.845-1.274-2.847-2.846-2.847"/>
    <path d="M97.447 86.965c-.717.607-1.008 1.58-.744 2.48l2.203 7.49-6.005-4.29c-.41-.293-.89-.44-1.37-.44s-.96.147-1.38.44l-6 4.29 2.21-7.49c.27-.9-.02-1.873-.74-2.48l-5.82-4.93h6.78c.99 0 1.875-.614 2.22-1.54l2.75-7.33 2.75 7.33c.348.926 1.23 1.54 2.22 1.54h6.78l-5.825 4.93zm12.302-9.672l-11.62-.003-4.4-11.71c-.35-.923-1.23-1.54-2.22-1.54-.99 0-1.88.61-2.22 1.54L84.9 77.29l-11.613.006c-.994 0-1.884.622-2.226 1.556-.34.93-.06 1.98.7 2.623l9.59 8.113-3.7 12.6c-.28.97.08 2.016.9 2.603.83.59 1.93.59 2.76 0l10.22-7.29 10.22 7.3c.41.3.89.44 1.378.44s.965-.14 1.377-.44c.826-.58 1.19-1.63.9-2.6L101.7 89.6l9.59-8.11c.76-.64 1.04-1.69.695-2.62-.34-.935-1.23-1.56-2.227-1.56z"/>
  </g>
</svg>
