<svg xmlns="http://www.w3.org/2000/svg" viewBox="0 0 180 180">
  <path fill="#5AA8ED" fill-rule="evenodd" d="M168.38 22.083v35.883c0 .93-.043 1.85-.127 2.76h5.646V22.084h-5.52zm-49.687 3.232v-3.232H96.61v38.644h11.168c-.083-.91-.125-1.83-.125-2.76V33.123c0-4.573 3.706-8.28 8.28-8.28.967 0 1.897.166 2.76.47zm0 142.938v5.645h38.645v-5.52h-35.885c-.93 0-1.85-.042-2.76-.125zm38.645-49.56V96.612h-38.645v11.167c.91-.083 1.83-.127 2.76-.127h24.842c4.573 0 8.28 3.71 8.28 8.28 0 .97-.164 1.9-.47 2.764h3.233zM11.042 157.337v-35.883c0-.93.042-1.85.125-2.76H5.52v38.643h5.522zm49.685-3.23v3.23H82.81v-38.642H71.643c.083.91.125 1.83.125 2.76v24.842c0 2.287-.927 4.357-2.425 5.855-1.5 1.5-3.57 2.426-5.856 2.426-.968 0-1.896-.165-2.76-.47zm-38.644-93.38V82.81h38.644V71.642c-.91.082-1.828.125-2.76.125H33.126c-4.573 0-8.282-3.71-8.282-8.28 0-.968.164-1.897.47-2.76h-3.23zm44.166 9.89V88.33h-5.576v9.662c4.772 3.926 8.255 9.24 9.943 15.18H88.33v5.573h9.66c3.93-4.772 9.244-8.253 15.182-9.94V91.088h5.572v-9.662c-4.772-3.926-8.25-9.242-9.942-15.18H91.09v-5.574h-9.66c-3.93 4.773-9.243 8.253-15.18 9.943zm-5.523-59.45V5.522H22.083v5.522h35.885c.93 0 1.85.043 2.76.125zm-44.165.35V0H66.25v12.194c5.92 1.682 11.2 5.138 15.123 9.89h9.717v-5.52h28.075c1.166-3.302 4.293-5.522 7.81-5.522 2.12 0 4.055.798 5.52 2.107 1.465-1.31 3.397-2.108 5.52-2.108 2.122 0 4.057.798 5.52 2.107 1.466-1.31 3.4-2.108 5.522-2.108 2.12 0 4.057.798 5.52 2.107 1.466-1.31 3.4-2.108 5.52-2.108 3.517 0 6.643 2.22 7.812 5.52h11.508V66.25h-12.19c-1.686 5.92-5.14 11.2-9.89 15.126v9.715h5.52v28.075c3.3 1.168 5.52 4.293 5.52 7.81 0 2.122-.796 4.055-2.11 5.52 1.314 1.463 2.11 3.4 2.11 5.52 0 2.12-.796 4.054-2.11 5.52 1.314 1.466 2.11 3.4 2.11 5.52 0 2.123-.796 4.055-2.11 5.52 1.314 1.465 2.11 3.4 2.11 5.523 0 3.517-2.22 6.642-5.52 7.808v11.515H113.17v-12.195c-5.922-1.68-11.202-5.14-15.126-9.89H88.33v5.522H60.255c-1.167 3.3-4.293 5.52-7.81 5.52-2.12 0-4.054-.797-5.52-2.108-1.465 1.31-3.4 2.108-5.52 2.108-2.12 0-4.054-.798-5.52-2.11-1.465 1.312-3.4 2.11-5.522 2.11-2.12 0-4.054-.798-5.52-2.11-1.465 1.312-3.4 2.11-5.52 2.11-3.516 0-6.643-2.222-7.81-5.52H0v-49.685h12.19c1.686-5.92 5.142-11.203 9.893-15.126V88.33h-5.52V60.253c-3.302-1.166-5.52-4.293-5.52-7.81 0-2.12.796-4.054 2.107-5.52-1.31-1.464-2.108-3.4-2.108-5.52 0-2.12.797-4.056 2.108-5.52-1.31-1.465-2.108-3.4-2.108-5.52 0-2.122.797-4.057 2.108-5.52-1.31-1.467-2.108-3.4-2.108-5.522 0-3.517 2.22-6.642 5.52-7.807zm30.363 43.69c1.525 0 2.762 1.235 2.762 2.76 0 1.525-1.237 2.76-2.762 2.76h-13.8c-1.525 0-2.762 1.236-2.762 2.76 0 1.526 1.237 2.762 2.762 2.762h24.843c7.856 0 15.125-3.63 19.852-9.904.5-.72 1.33-1.19 2.27-1.19h10.948v-27.55H80.05c-.868 0-1.68-.418-2.2-1.112-4.72-6.285-12.023-9.93-19.882-9.93H19.323c-1.525 0-2.76 1.235-2.76 2.76 0 1.526 1.235 2.76 2.76 2.76h11.04c1.525 0 2.762 1.237 2.762 2.762 0 1.524-1.237 2.76-2.762 2.76h-11.04c-1.525 0-2.76 1.234-2.76 2.76 0 1.515 1.242 2.76 2.76 2.76h11.04c1.525 0 2.762 1.237 2.762 2.76 0 1.524-1.237 2.76-2.762 2.76h-11.04c-1.54 0-2.76 1.22-2.76 2.76 0 1.516 1.242 2.76 2.76 2.76h11.04c1.525 0 2.762 1.238 2.762 2.76 0 1.525-1.237 2.76-2.762 2.76h-11.04c-1.54 0-2.76 1.223-2.76 2.76 0 1.527 1.235 2.762 2.76 2.762h27.602zm77.29-8.28c0 1.523-1.237 2.76-2.762 2.76s-2.76-1.237-2.76-2.76V33.123c0-1.525-1.236-2.76-2.76-2.76-1.524 0-2.76 1.235-2.76 2.76v24.842c0 7.856 3.63 15.127 9.904 19.854.72.5 1.188 1.328 1.188 2.27V91.04h27.552v-10.99c0-.834.39-1.658 1.11-2.198 6.286-4.722 9.93-12.024 9.93-19.884V19.322c0-1.525-1.234-2.76-2.76-2.76-1.525 0-2.76 1.235-2.76 2.76v11.042c0 1.523-1.235 2.76-2.76 2.76-1.524 0-2.76-1.237-2.76-2.76V19.322c0-1.525-1.235-2.76-2.76-2.76-1.525 0-2.762 1.235-2.762 2.76v11.042c0 1.523-1.234 2.76-2.76 2.76-1.523 0-2.76-1.237-2.76-2.76V19.322c0-1.532-1.23-2.76-2.76-2.76-1.526 0-2.76 1.235-2.76 2.76v11.042c0 1.523-1.236 2.76-2.76 2.76-1.522 0-2.76-1.237-2.76-2.76V19.322c0-1.522-1.24-2.76-2.76-2.76-1.526 0-2.76 1.235-2.76 2.76v27.602zm-66.247 82.808c1.523 0 2.76 1.236 2.76 2.76v13.802c0 .763.308 1.455.808 1.953s1.19.805 1.95.805c.763 0 1.454-.307 1.952-.806.5-.5.81-1.19.81-1.954v-24.843c0-7.857-3.63-15.126-9.904-19.853-.72-.5-1.19-1.328-1.19-2.268v-10.95h-27.55V99.37c0 .836-.392 1.658-1.11 2.198-6.287 4.723-9.932 12.025-9.932 19.885v38.645c0 1.524 1.236 2.76 2.76 2.76 1.526 0 2.76-1.236 2.76-2.76v-11.043c0-1.52 1.237-2.76 2.76-2.76 1.526 0 2.76 1.24 2.76 2.76v11.043c0 1.524 1.237 2.76 2.76 2.76 1.526 0 2.763-1.236 2.763-2.76l.012-11.043c0-1.52 1.224-2.76 2.747-2.76 1.526 0 2.76 1.24 2.76 2.76v11.043c0 1.54 1.222 2.76 2.762 2.76 1.523 0 2.758-1.236 2.758-2.76v-11.043c0-1.52 1.238-2.76 2.76-2.76 1.526 0 2.763 1.24 2.763 2.76v11.043c0 1.52 1.236 2.76 2.758 2.76 1.527 0 2.76-1.236 2.76-2.76v-27.604c0-1.524 1.236-2.76 2.763-2.76zm74.527-11.04h13.8c1.526 0 2.762-1.236 2.762-2.763 0-1.52-1.236-2.757-2.762-2.757h-24.842c-7.86 0-15.126 3.63-19.854 9.903-.497.72-1.33 1.19-2.27 1.19H88.384v27.55h10.984c.87 0 1.68.42 2.203 1.112 4.72 6.284 12.024 9.93 19.883 9.93h38.645c1.525 0 2.76-1.236 2.76-2.76 0-1.526-1.235-2.762-2.76-2.762h-11.04c-1.526 0-2.763-1.234-2.763-2.76 0-1.523 1.237-2.76 2.762-2.76h11.04c1.526 0 2.76-1.235 2.76-2.76 0-1.524-1.234-2.76-2.76-2.76h-11.04c-1.525 0-2.762-1.235-2.762-2.76 0-1.525 1.237-2.76 2.762-2.76h11.04c1.524 0 2.76-1.24 2.76-2.76 0-1.525-1.234-2.76-2.76-2.76h-11.04c-1.525 0-2.762-1.237-2.762-2.762 0-1.522 1.237-2.76 2.762-2.76h11.04c1.524 0 2.76-1.24 2.76-2.76 0-1.525-1.234-2.762-2.76-2.762h-27.602c-1.524 0-2.76-1.233-2.76-2.76 0-1.523 1.236-2.758 2.76-2.758z"/>
</svg>
