<svg xmlns="http://www.w3.org/2000/svg" viewBox="0 0 178 160">
  <g fill="#5AA8ED" fill-rule="evenodd">
    <path d="M19.47 43.32v44.468h1.055c.453-6.16 2.738-10.857 6.395-13.23-.806-1.908-1.253-4.003-1.253-6.202V63.29c0-.418.03-.832.06-1.245.642-8.26 7.633-14.73 15.917-14.73.437 0 .864.028 1.294.062.943.075 1.898.24 2.844.493 6.734 1.807 11.477 7.7 11.805 14.665l.012.197c.01.184.02.37.02.557v5.064c0 2.2-.448 4.294-1.254 6.202 3.657 2.373 5.942 7.07 6.395 13.23h1.177v-44.47H19.47zm33.55 25.036V63.29c0-.087-.007-.173-.012-.258l-.016-.292c-.234-4.945-3.61-9.14-8.398-10.425-.676-.18-1.357-.3-2.018-.353-.304-.023-.613-.047-.932-.047-5.897 0-10.874 4.604-11.33 10.483-.022.293-.048.59-.048.89v5.068c0 6.273 5.105 11.376 11.378 11.376S53.02 74.63 53.02 68.356zM29.304 78.492c-2.97 1.987-3.892 6.334-4.16 9.296h33c-.268-2.96-1.19-7.308-4.16-9.295-2.932 3.563-7.375 5.84-12.34 5.84-4.964 0-9.407-2.277-12.34-5.84zM17.17 92.388c-1.27 0-2.3-1.03-2.3-2.3v-49.07c0-1.27 1.03-2.3 2.3-2.3h49.07c1.27 0 2.3 1.03 2.3 2.3v49.07c0 1.27-1.03 2.3-2.3 2.3H17.17z"/>
    <path d="M4.6 154.662h168.162V25.14H4.602v129.522zm0-134.122h168.162V4.6H4.602v15.94zM175.064 0H2.3C1.03 0 0 1.03 0 2.3v154.662c0 1.27 1.03 2.3 2.3 2.3h172.763c1.27 0 2.3-1.03 2.3-2.3V2.3c0-1.27-1.03-2.3-2.3-2.3z"/>
    <path d="M11.9 15.435h5.27v-4.6H11.9m11.5 4.6h5.27v-4.6H23.4m11.5 4.6h5.27v-4.6H34.9m59.57 4.6h69.847v-4.6H94.47m-6.94 50.5h18.018V43.32h-18.02v18.016zm-2.3 4.6h22.62c1.27 0 2.3-1.03 2.3-2.3V41.02c0-1.272-1.03-2.302-2.3-2.302H85.23c-1.27 0-2.3 1.03-2.3 2.3v22.62c0 1.268 1.03 2.3 2.3 2.3zM17.17 110.45h49.07v-4.602H17.17m98.08-59.418h46.27v-4.6h-46.27m-.002 15.163h24.42v-4.6h-24.42M87.53 97.883h18.018v-18.02h-18.02v18.02zm-2.3 4.6h22.62c1.27 0 2.3-1.03 2.3-2.3v-22.62c0-1.27-1.03-2.3-2.3-2.3H85.23c-1.27 0-2.3 1.03-2.3 2.3v22.62c0 1.27 1.03 2.3 2.3 2.3zm30.02-19.51h46.27v-4.6h-46.27m-.002 15.167h34.386v-4.6h-34.386M87.53 134.427h18.018V116.41h-18.02v18.017zm-2.3 4.6h22.62c1.27 0 2.3-1.03 2.3-2.3V114.11c0-1.27-1.03-2.3-2.3-2.3H85.23c-1.27 0-2.3 1.03-2.3 2.3v22.617c0 1.27 1.03 2.3 2.3 2.3zm30.02-19.507h46.27v-4.6h-46.27m-.002 15.165h34.386v-4.6h-34.386m-98.078-2.003h49.07v-4.6H17.17m0 17.635h49.07v-4.6H17.17"/>
  </g>
</svg>
