<svg width="294" height="994" xmlns="http://www.w3.org/2000/svg" viewBox="0 0 294 994"><g transform="translate(1 1)" stroke-width="2" fill="none" fill-rule="evenodd"><path d="M172.887 950.535l14.209-261.806c-.307-7.42-.302-14.415.015-20.98.316-6.553 4.622-88.913 12.917-247.08a40 40 0 0 0 .055-1.941l.066-17.337a40 40 0 0 1 2.365-13.396l86.53-240.348A50 50 0 0 0 292 130.69l-.021-53.496c.014-.231.021-.462.021-.694C292 54.132 226.634 36 146 36S0 54.132 0 76.5c0 .231.007.462.02.692L0 130.69a50 50 0 0 0 2.956 16.957l86.53 240.348a40 40 0 0 1 2.364 13.396l.067 17.337a40 40 0 0 0 .055 1.941c8.295 158.167 12.6 240.527 12.917 247.08.317 6.565.322 13.56.015 20.98l14.208 261.806c-.074.318-.112.64-.112.965 0 5.799 12.088 10.5 27 10.5s27-4.701 27-10.5c0-.325-.038-.647-.113-.965z" stroke="#373535" fill="#FFF"/><path d="M172.887 950.535l14.209-261.806c-.307-7.42-.302-14.415.015-20.98.316-6.553 4.622-88.913 12.917-247.08a40 40 0 0 0 .055-1.941l.066-17.337a40 40 0 0 1 2.365-13.396l86.53-240.348A50 50 0 0 0 292 130.69l-.021-53.496c.014-.231.021-.462.021-.694C292 54.132 226.634 36 146 36S0 54.132 0 76.5c0 .231.007.462.02.692L0 130.69a50 50 0 0 0 2.956 16.957l86.53 240.348a40 40 0 0 1 2.364 13.396l.067 17.337a40 40 0 0 0 .055 1.941c8.295 158.167 12.6 240.527 12.917 247.08.317 6.565.322 13.56.015 20.98l14.208 261.806c-.074.318-.112.64-.112.965 0 5.799 12.088 10.5 27 10.5s27-4.701 27-10.5c0-.325-.038-.647-.113-.965z" stroke="#373535" fill="#F3FAFF"/><g transform="translate(6 42)" stroke="#5AA8ED"><ellipse cx="140" cy="37.432" rx="140" ry="37.432"/><ellipse cx="140" cy="83.644" rx="140" ry="37.432"/><path d="M.042 85.03H0V37.894h.01c-.007-.154-.01-.308-.01-.462C0 16.759 62.68 0 140 0s140 16.759 140 37.432c0 .154-.003.308-.01.462h.01V85.03h-.042c-1.835 20.246-63.794 36.508-139.958 36.508S1.877 105.276.042 85.03z" fill-opacity=".2" fill="#5AA8ED"/></g><g transform="translate(96 379)" stroke="#5AA8ED"><ellipse cx="50" cy="15" rx="50" ry="15"/><ellipse cx="50" cy="39" rx="50" ry="15"/><path d="M100 39V15c0-8.284-22.386-15-50-15S0 6.716 0 15v24c0 8.284 22.386 15 50 15s50-6.716 50-15z" fill-opacity=".2" fill="#5AA8ED"/></g><g transform="translate(109 655)" stroke="#5AA8ED"><ellipse cx="37" cy="12.778" rx="37" ry="12.778"/><ellipse cx="37" cy="33.222" rx="37" ry="12.778"/><path d="M74 33.222V12.778C74 5.72 57.435 0 37 0S0 5.72 0 12.778v20.444C0 40.28 16.565 46 37 46s37-5.72 37-12.778z" fill-opacity=".2" fill="#5AA8ED"/></g><g transform="translate(122 922)" stroke="#5AA8ED"><ellipse cx="24" cy="9.444" rx="24" ry="9.444"/><ellipse cx="24" cy="24.556" rx="24" ry="9.444"/><path d="M48 24.556V9.444C48 4.228 37.255 0 24 0S0 4.228 0 9.444v15.112C0 29.772 10.745 34 24 34s24-4.228 24-9.444z" fill-opacity=".2" fill="#5AA8ED"/></g><circle stroke="#FF3A4E" cx="102" cy="8" r="8"/><circle stroke="#FF3A4E" cx="178" cy="100" r="8"/><circle stroke="#FF3A4E" cx="146" cy="31" r="8"/><circle stroke="#FF3A4E" cx="186" cy="54" r="8"/><circle stroke="#FF3A4E" cx="97" cy="52" r="8"/><circle stroke="#FF3A4E" cx="90" cy="93" r="8"/><circle stroke="#FF3A4E" cx="137" cy="73" r="8"/><circle stroke="#FF3A4E" cx="131" cy="119" r="8"/><circle stroke="#FF3A4E" cx="83" cy="140" r="8"/><circle stroke="#FF3A4E" cx="113" cy="290" r="8"/><circle stroke="#FF3A4E" cx="143" cy="270" r="8"/><circle stroke="#FF3A4E" cx="173" cy="250" r="8"/><circle stroke="#FF3A4E" cx="173" cy="284" r="8"/><circle stroke="#FF3A4E" cx="143" cy="304" r="8"/><circle stroke="#FF3A4E" cx="173" cy="320" r="8"/><circle stroke="#FF3A4E" cx="128" cy="540" r="8"/><circle stroke="#FF3A4E" cx="159" cy="554" r="8"/><circle stroke="#FF3A4E" cx="137" cy="799" r="8"/><circle stroke="#FF3A4E" cx="157" cy="779" r="8"/><circle stroke="#FF3A4E" fill="#FF3A4E" cx="146" cy="984" r="8"/><circle stroke="#FF3A4E" cx="158" cy="520" r="8"/><circle stroke="#FF3A4E" cx="225" cy="75" r="8"/><circle stroke="#DBDBDB" cx="216.5" cy="403.5" r="6.5"/><circle stroke="#DBDBDB" cx="237.5" cy="393.5" r="6.5"/><circle stroke="#DBDBDB" cx="234.5" cy="415.5" r="6.5"/><circle stroke="#DBDBDB" cx="90.5" cy="675.5" r="6.5"/><circle stroke="#DBDBDB" cx="77.5" cy="659.5" r="6.5"/><circle stroke="#DBDBDB" cx="69.5" cy="678.5" r="6.5"/><circle stroke="#DBDBDB" cx="191" cy="941" r="6"/><circle stroke="#DBDBDB" cx="210" cy="938" r="6"/><circle stroke="#DBDBDB" cx="197" cy="923" r="6"/></g></svg>